<?xml version="1.0" encoding="utf-8"?>
<!-- Generator: Adobe Illustrator 21.1.0, SVG Export Plug-In . SVG Version: 6.00 Build 0)  -->
<svg version="1.1" id="Art" xmlns="http://www.w3.org/2000/svg" xmlns:xlink="http://www.w3.org/1999/xlink" x="0px" y="0px"
	 viewBox="0 0 224.6 126.2" style="enable-background:new 0 0 224.6 126.2;" xml:space="preserve">
<style type="text/css">
	.st0{fill:#A90533;}
</style>
<g>
	<path class="st0" d="M70,60.7c-6.3,0-6.8-4.8-6.8-6.3c0-1.7,0.4-4.8,4.5-6.3c4.1-1.5,5-1.7,7.9-2.6v-0.7c0-1.4,0-1.7-0.3-2.6
		c-0.5-1.6-2.1-2.7-4.3-2.7c-2.1,0-3.9,1.2-4.7,2.9l-1.2-0.7c0.7-2.6,3.4-5.3,8-5.3c3.2,0,5.4,0.9,6.7,2.9c1,1.6,1.1,3.8,1.1,6
		c0,2-0.1,4.2-0.1,6c0,1.2-0.1,2.3-0.1,3c0,1.6,0.3,2.9,1.6,2.9c0.6,0,0.7-0.2,1.2-0.5l0.7,0.9c-1.2,1.6-2.6,2.9-4.9,2.9
		c-1.8,0-3.1-0.9-3.6-2.4C74.8,59.4,72.9,60.7,70,60.7z M75.6,48.5c-3.1,0.9-4.2,1.4-5.1,1.9c-1.4,0.7-2,2-2,3.7
		c0,1.3,0.5,3.4,3.5,3.4c1,0,2.4-0.2,3.7-1.1V48.5z M23.4,59.5c0-2.3,0-4.3-0.2-6.7h1.4c0,1.5,0.4,2.6,1.1,3.3
		c1,1.1,3.3,1.8,5.4,1.8c4.4,0,6.5-1.7,6.5-5.3c0-3.1-1.9-4.4-4.5-6.2l-0.4-0.3l-2.8-1.9C26,41.7,24,39.6,24,35.5
		c0-2,0.8-8.6,10.5-8.6c2.5,0,5.7,0.3,7.6,0.6c0,0.3-0.1,1.8-0.1,3.1c0,1.5,0,1.9,0.1,3.7H41c0-1.6-0.5-2.6-1.2-3.3
		c-0.9-0.9-3-1.4-5.2-1.4c-5.2,0-5.8,2.6-5.8,4.6c0,2.7,1.4,3.7,4.5,5.7l3.5,2.3c3,2,5.8,3.9,5.8,8.9c0,8.4-7.9,9.3-11.2,9.3
		C28.4,60.7,25.9,60.3,23.4,59.5z M86.3,38.1c1.2,0.1,3,0,4.7-0.3c1.5-0.3,2-0.5,3.1-1l0.5,0.3v1.8c1.2-0.9,3.5-2.2,6.8-2.2
		c4.2,0,6.9,2,7.7,5.5c0.2,0.9,0.3,3,0.3,4.2v6.8c0,3.8,0.2,4.9,0.9,5.6c0.4,0.3,1.2,0.7,2.3,0.7v1.1c-1.5-0.1-4.2-0.2-5.8-0.2
		c-2.1,0-4.5,0.1-5.8,0.2v-1.1c1.2-0.1,1.9-0.5,2.3-0.8c0.7-0.7,0.8-2,0.9-4.9c0-0.9,0.1-2.7,0.1-4c0-1.7,0-3.5-0.2-5.3
		c-0.3-3-1.9-4.4-4.9-4.4c-2.1,0-3.4,0.5-4.4,1v12.2c0,3.8,0.2,4.9,0.9,5.6c0.4,0.3,1.3,0.7,2.2,0.7v1.1c-1.9-0.1-4.2-0.2-5.7-0.2
		c-3.1,0-4.1,0.1-5.9,0.2v-1.1c1,0,2-0.4,2.5-1c0.7-0.8,0.8-2.8,0.8-6.7V45c0-2.9-0.1-4.1-0.5-4.7c-0.3-0.5-1.1-0.9-2.7-0.9V38.1z
		 M115.2,59.4c1,0,2-0.3,2.5-1c0.7-0.8,0.8-2.8,0.8-6.7V40.1h-3v-1.3c1.3-0.5,2.4-1.1,3-1.6c0-2.1,0.1-4.7,0.4-6.2
		c0.9-4.8,4-7.2,9.3-7.2c2.3,0,4.5,0.8,5.9,1.9l0.1,0.5l-2.3,3.2l-0.6,0c-0.8-1.9-2-3-4.1-3c-0.7,0-1.7,0.2-2.3,0.8
		c-1,1-1.2,2.5-1.2,5.5v4.5h5.2v2.9h-5.2V53c0,3.1,0.1,4.6,0.5,5.2c0.6,1,2.7,1.1,3.7,1.1v1.2c-1.7-0.1-4.4-0.2-6.3-0.2
		c-2.9,0-4.8,0.1-6.3,0.2V59.4z M142,60.9c-7.1,0-11.3-4.4-11.3-11.8c0-5.8,3.1-12.5,11.8-12.5c7.1,0,11.3,4.4,11.3,11.8
		C153.8,54.2,150.7,60.9,142,60.9z M142.3,39.3c-1.4,0-2.5,0.4-3.3,1.1c-1.9,1.6-2.8,4.4-2.8,8.5c0,1.6,0.3,9.4,6,9.4
		c1.4,0,2.5-0.4,3.3-1.1c1.9-1.6,2.8-4.4,2.8-8.5C148.3,47.1,148,39.3,142.3,39.3z M156.1,38c1.6,0.1,3.3-0.1,5.1-0.4
		c1.4-0.2,2.3-0.5,2.8-0.8l0.4,0.2v2c1.1-1.1,2.9-2.2,5.4-2.2c1.8,0,3,0.5,4.1,1.4v0.7l-2,3.6h-1c-0.6-1.1-1.8-2.1-3.9-2.1
		c-1,0-1.8,0.2-2.5,0.7V53c0,3.1,0.1,4.5,0.5,5.1c0.6,1,2.6,1.1,3.7,1v1.3c-1.6-0.1-4.4-0.2-6.3-0.2c-2.3,0-4.5,0-6.3,0.2v-1.2
		c1.3-0.1,2-0.4,2.5-1c0.7-0.8,0.8-2.7,0.8-6.7V45c0-2.9,0-4.1-0.5-4.7c-0.4-0.5-1.2-0.8-2.7-0.8V38z M188.9,25.2
		c1.4,0,3.2-0.3,5.5-0.7c1.3-0.2,2.1-0.5,2.5-0.6l0.4,0.2c-0.2,1.9-0.2,6.2-0.2,9.3v19c0,2.8,0,4.6,0.4,5.2c0.4,0.5,1.2,0.9,2.7,0.9
		v1.2c-1.5,0-3.2,0.2-5,0.5c-1.2,0.2-2.1,0.4-2.6,0.6l-0.6-0.2v-2c-1.2,0.9-3.4,2.2-6.5,2.2c-6.4,0-10.5-4.4-10.5-11.3
		c0-2.3,0.4-4.4,1.2-6.3c2-4.2,6-6.6,11.1-6.6c1.9,0,3.5,0.2,4.5,0.4v-4.9c0-2.9,0-4.4-0.5-5.1c-0.3-0.5-0.8-0.7-2.5-0.8V25.2z
		 M188.1,57.5c1.6,0,2.7-0.3,3.8-0.9V41c-0.4-0.4-1.8-1.6-4.6-1.6c-4.5,0-6.7,3.1-6.7,9.5C180.5,51.6,181.3,57.5,188.1,57.5z
		 M60.9,58.2c-0.7,0.9-2.5,2.7-6.3,2.7c-3.6,0-5.6-1.3-6.5-4.2c-0.4-1.1-0.4-3.4-0.4-4.7c0-3.7,0-6.7,0.1-10.2l0-1.6h-3.1v-0.9
		c1.2-0.5,2.1-1,2.9-1.6c1.8-1.4,3-3.1,4.3-5.6h1v5.2h7.9v2.9H53v12.2c0,3.7,0.7,5.7,4.1,5.7c1.6,0,2.7-0.5,3.3-0.9L60.9,58.2z"/>
	<path class="st0" d="M171.7,80c-0.4,0-0.9,0.1-1.2,0.4c-0.3,0.2-0.3,0.5-0.3,0.7c0,0.4,0.1,0.7,0.4,1.5l2.2,5.8
		c0.3,0.9,0.6,1.6,0.7,2.1l2.7-7.9c0.3-0.9,0.4-1.1,0.4-1.5c0-0.2-0.1-0.4-0.3-0.6c-0.3-0.3-0.7-0.4-1.2-0.4v-0.9c0.3,0,1,0,1.3,0.1
		c0.3,0,0.9,0.1,1.4,0.1c1,0,2.4-0.1,3-0.1v0.9c-0.4,0.1-1.3-0.1-2.1,2.2L173,97.5c-0.8,2.2-1.9,4.9-5.8,4.9c-1.6,0-2.7-0.4-3.6-1.2
		v-0.4l1.4-1.7l0.4,0c0.4,0.9,1.2,1.3,2.3,1.3c1.8,0,2.6-1.6,3.8-4.8l0.3-0.9L167,82.3c0-0.1-0.1-0.3-0.2-0.5
		c-0.1-0.3-0.4-0.9-0.4-0.9c-0.3-0.6-0.8-0.8-1.4-0.8v-0.9c0.9,0.1,2.5,0.1,3.3,0.1c0.5,0,1.3,0,2.1-0.1c0.4,0,1.1-0.1,1.4-0.1V80z
		 M118.8,79.8c1,0.1,2.1-0.1,3.2-0.3c0.9-0.2,1.4-0.3,1.8-0.5l0.3,0.1v1.3c0.7-0.7,1.8-1.4,3.4-1.4c1.2,0,1.9,0.3,2.6,0.9v0.5
		l-1.2,2.3h-0.6c-0.4-0.7-1.1-1.3-2.5-1.3c-0.6,0-1.1,0.2-1.6,0.5v7.5c0,2,0.1,2.9,0.3,3.3c0.4,0.6,1.6,0.7,2.3,0.7v0.8
		c-1-0.1-2.8-0.1-4-0.1c-1.4,0-2.9,0-4,0.2v-0.8c0.8,0,1.3-0.3,1.6-0.6c0.5-0.5,0.5-1.7,0.5-4.3v-4.2c0-1.8,0-2.6-0.3-3
		c-0.2-0.3-0.8-0.5-1.7-0.5V79.8z M52.2,94.3c-4.2,0-6.7-1.3-7.6-4.1C44,88.7,44,87,44,85.5v-8c0-2.4-0.1-2.8-0.6-3.2
		c-0.2-0.2-0.7-0.4-1.4-0.5v-0.8c1,0.1,2.7,0.2,3.7,0.2c1.7,0,2.7,0,3.8-0.2V74c-0.7,0-1.2,0.2-1.6,0.6c-0.5,0.5-0.5,1.4-0.5,4v7.1
		c0,4.2,0.4,6.9,5.1,6.9c4.8,0,5.1-2.8,5.1-7.1v-7.8c0-2.4-0.1-2.8-0.6-3.2c-0.3-0.2-0.8-0.4-1.4-0.5v-0.8c0.9,0,2.1,0.1,3.3,0.1
		c1.1,0,2.2,0,3.5-0.2V74c-0.7,0-1.2,0.2-1.6,0.6c-0.5,0.5-0.5,1.4-0.5,4v6c0,1.9,0,4-0.6,5.7C58.8,93,56.3,94.3,52.2,94.3z
		 M80.7,93.4c0.8-0.1,1.3-0.2,1.7-0.6c0.5-0.5,0.5-1.7,0.5-4.3v-4.2c0-1.8,0-2.7-0.3-3.1c-0.2-0.3-0.6-0.5-1.7-0.6v-0.9
		c0.6,0.1,2.2-0.1,3.4-0.3c0.6-0.1,1.3-0.3,1.6-0.5l0.3,0.3c-0.1,1-0.1,3.1-0.1,5.9v4.3c0,2,0.1,2.9,0.3,3.3
		c0.3,0.4,0.9,0.7,1.8,0.7v0.7C87.4,94,85.9,94,84.6,94c-1.5,0-3.1,0.1-3.9,0.2V93.4z M84.4,76.3c-1.2,0-1.9-0.7-1.9-1.8
		c0-1.1,0.8-1.9,2-1.9c1.2,0,1.9,0.7,1.9,1.8C86.4,75.6,85.6,76.3,84.4,76.3z M143.9,93.4c0.8-0.1,1.3-0.2,1.7-0.6
		c0.5-0.5,0.5-1.7,0.5-4.3v-4.2c0-1.8,0-2.7-0.3-3.1c-0.2-0.3-0.6-0.5-1.7-0.6v-0.9c0.6,0.1,2.2-0.1,3.4-0.3
		c0.6-0.1,1.3-0.3,1.6-0.5l0.3,0.3c-0.1,1-0.1,3.1-0.1,5.9v4.3c0,2,0.1,2.9,0.3,3.3c0.3,0.4,0.9,0.7,1.8,0.7v0.7
		c-0.9-0.1-2.4-0.1-3.7-0.1c-1.5,0-3.1,0.1-3.9,0.2V93.4z M147.6,76.3c-1.2,0-1.9-0.7-1.9-1.8c0-1.1,0.8-1.9,2-1.9
		c1.2,0,1.9,0.7,1.9,1.8C149.6,75.6,148.8,76.3,147.6,76.3z M131.8,93.6c0-1.5-0.1-3.1-0.2-3.9h1c0,0.8,0.2,1.5,0.6,1.9
		c0.6,0.7,1.3,1,2.6,1h0.2c1.6,0,2.5-0.7,2.5-2.1c0-1.1-0.7-1.6-1.9-2.3l-2.1-1.3c-1.1-0.7-2.4-1.7-2.4-3.8c0-1.7,0.7-3,2.1-3.7
		c0.9-0.5,2.3-0.5,3-0.5c1.2,0,2.9,0.2,3.9,0.4c-0.1,0.4-0.1,1.4-0.1,1.8c0,0.3,0,1.7,0.1,2h-1c0-0.6-0.2-1.2-0.6-1.7
		c-0.4-0.5-1.3-0.8-2.4-0.8c-1.5,0-2.3,0.6-2.3,1.9c0,1,0.8,1.5,1.5,2l0.1,0l2,1.2c1.3,0.8,3,1.8,3,4.1c0,3.9-3.6,4.5-5.7,4.5
		C134.5,94.2,133.2,94.1,131.8,93.6z M163.2,92.6c-0.5,0.5-1.6,1.7-4,1.7c-2.3,0-3.6-0.8-4.1-2.7c-0.2-0.7-0.2-2.2-0.2-3
		c0-2.4,0-4.3,0-6.5l0-1h-2v-0.6c0.8-0.3,1.3-0.6,1.9-1c1.1-0.9,1.9-2,2.8-3.6h0.7v3.3h5v1.8h-5v7.8c0,2.3,0.4,3.7,2.6,3.7
		c1,0,1.7-0.3,2.1-0.6L163.2,92.6z M95.5,79.2c-0.3,0-1,0-1.4,0.1c-0.8,0-1.6,0.1-2.2,0.1c-1.1,0-2.7-0.1-3.2-0.1v0.9
		c0.2,0,1-0.1,1.5,0.9c0.2,0.4,0.3,0.7,0.4,0.9c0.1,0.2,0.2,0.4,0.2,0.5l4.8,12l1.5-0.3l5.3-11.8c0-0.1,0.1-0.2,0.2-0.4
		c0.1-0.1,0.1-0.3,0.5-0.9c0.3-0.6,1-0.9,1.5-0.9l0-0.9c-0.6,0-1.9,0.1-2.9,0.1c-0.5,0-1,0-1.5-0.1c-0.4,0-1-0.1-1.4-0.1v0.8
		c0.5,0,1,0.2,1.3,0.4c0.1,0.1,0.3,0.4,0.3,0.6c0,0.3-0.1,0.6-0.4,1.5l-2.9,7.1c-0.1-0.4-0.3-1-0.6-1.8l-2-5.3
		c-0.3-0.8-0.4-1.1-0.4-1.5c0-0.2,0-0.4,0.2-0.5c0.3-0.3,0.8-0.5,1.3-0.5L95.5,79.2z M90.3,81 M62.9,79.8c0.8,0.1,1.9,0,3-0.2
		c0.9-0.2,1.3-0.3,2-0.6l0.3,0.2v1.2c0.7-0.6,2.3-1.4,4.3-1.4c2.7,0,4.4,1.3,4.9,3.5c0.1,0.6,0.2,1.9,0.2,2.7v4.3
		c0,2.4,0.1,3.1,0.6,3.6c0.2,0.2,0.8,0.4,1.4,0.4v0.7c-1,0-2.7-0.1-3.7-0.1c-1.4,0-2.9,0.1-3.7,0.2v-0.7c0.7-0.1,1.2-0.3,1.5-0.5
		c0.4-0.4,0.5-1.3,0.6-3.1c0-0.6,0-1.7,0-2.6c0-1.1,0-2.3-0.1-3.4C73.9,81.9,72.9,81,71,81c-1.3,0-2.2,0.3-2.8,0.6v7.8
		c0,2.4,0.1,3.1,0.6,3.6c0.2,0.2,0.8,0.4,1.4,0.4v0.7C68.9,94,67.5,94,66.5,94c-2,0-2.6,0-3.7,0.2v-0.7c0.6,0,1.3-0.2,1.6-0.6
		c0.4-0.5,0.5-1.8,0.5-4.3v-4.2c0-1.8,0-2.6-0.3-3c-0.2-0.3-0.7-0.6-1.7-0.5V79.8z M111.5,94.3c-4.5,0-6.9-2.6-6.9-7.3
		c0-0.8,0.2-8.1,7-8.1c2,0,3.8,0.8,4.6,2.2c0.9,1.4,1,2.8,1,4V86h-9.3c0,0.8,0.1,1.4,0.2,1.9c0.5,2.9,2.1,4.3,4.9,4.3
		c1.6,0,2.6-0.3,3.5-0.9l0.4,0.7C115.9,93.3,113.8,94.3,111.5,94.3z M107.9,84.3h5.8c0-1.8-0.3-3.8-2.9-3.8
		C108.5,80.6,108,82.8,107.9,84.3z"/>
</g>
</svg>
