<?xml version="1.0" encoding="utf-8"?>
<!-- Generator: Adobe Illustrator 21.1.0, SVG Export Plug-In . SVG Version: 6.00 Build 0)  -->
<svg version="1.1" id="Layer_1" xmlns="http://www.w3.org/2000/svg" xmlns:xlink="http://www.w3.org/1999/xlink" x="0px" y="0px"
	 viewBox="0 0 612 792" style="enable-background:new 0 0 612 792;" xml:space="preserve">
<style type="text/css">
	.st0{fill:#FFFFFF;}
	.st1{fill:none;stroke:#262626;stroke-width:0.5002;stroke-linecap:square;stroke-linejoin:round;stroke-miterlimit:10;}
	.st2{fill:#4D4D4F;}
	.st3{font-family:'Helvetica';}
	.st4{font-size:9.9998px;}
	.st5{letter-spacing:34;}
	.st6{fill:none;stroke:#ED2024;stroke-width:0.5002;stroke-linejoin:round;stroke-miterlimit:10;}
	.st7{fill:none;stroke:#000000;stroke-width:0.5002;stroke-linejoin:bevel;stroke-miterlimit:10;stroke-dasharray:0.75,2.25;}
	.st8{fill:none;stroke:#3953A4;stroke-width:0.5002;stroke-linejoin:bevel;stroke-miterlimit:10;stroke-dasharray:7.5,4.5;}
	.st9{font-size:9px;}
	.st10{fill:none;stroke:#262626;stroke-width:0.5002;stroke-miterlimit:10;}
</style>
<g>
	<rect x="47" y="239" class="st0" width="518.3" height="315"/>
	<rect x="47" y="239" class="st0" width="518.3" height="315"/>
	<rect x="114.5" y="262.3" class="st0" width="173.3" height="108"/>
	<path class="st1" d="M114.5,370.3h173.3 M114.5,262.3h173.3 M114.5,370.3v-1.7 M157.8,370.3v-1.7 M201.1,370.3v-1.7 M244.4,370.3
		v-1.7 M287.8,370.3v-1.7 M114.5,262.3v1.7 M157.8,262.3v1.7 M201.1,262.3v1.7 M244.4,262.3v1.7 M287.8,262.3v1.7"/>
	<text transform="matrix(1 0 0 1 107.375 384.75)" class="st2 st3 st4">-1</text>
	<text transform="matrix(1 0 0 1 115.5781 384.75)" class="st2 st3 st4 st5">00</text>
	<text transform="matrix(1 0 0 1 195.5 384.75)" class="st2 st3 st4">10</text>
	<text transform="matrix(1 0 0 1 238.8125 384.75)" class="st2 st3 st4">20</text>
	<text transform="matrix(1 0 0 1 282.125 384.75)" class="st2 st3 st4">30</text>
	<path class="st1" d="M114.5,370.3v-108 M287.8,370.3v-108 M114.5,370.3h1.7 M114.5,334.3h1.7 M114.5,298.3h1.7 M114.5,262.3h1.7
		 M287.8,370.3H286 M287.8,334.3H286 M287.8,298.3H286 M287.8,262.3H286"/>
	<text transform="matrix(1 0 0 1 104.5 374.375)" class="st2 st3 st4">0</text>
	<text transform="matrix(1 0 0 1 96.25 338.375)" class="st2 st3 st4">0.</text>
	<text transform="matrix(1 0 0 1 103.4453 338.375)" class="st2 st3 st4">1</text>
	<text transform="matrix(1 0 0 1 96.25 302.375)" class="st2 st3 st4">0.</text>
	<text transform="matrix(1 0 0 1 103.4453 302.375)" class="st2 st3 st4">2</text>
	<text transform="matrix(1 0 0 1 96.25 266.375)" class="st2 st3 st4">0.</text>
	<text transform="matrix(1 0 0 1 103.4453 266.375)" class="st2 st3 st4">3</text>
	<polyline class="st6" points="114.5,368.9 118.8,368 123.2,366.5 127.5,364.4 131.8,361.7 136.2,358.3 140.5,354.6 144.8,350.7 
		149.1,347.1 153.5,344.2 157.8,342.3 162.1,341.6 166.5,342.1 170.8,343.6 175.1,345.8 179.5,348.5 183.8,351.5 188.1,354.5 
		192.5,357.3 196.8,360 201.1,362.4 205.5,364.4 209.8,366.1 214.1,367.4 218.4,368.4 222.8,369.1 227.1,369.6 231.4,369.9 
		235.8,370.1 240.1,370.2 244.4,370.2 248.8,370.2 253.1,370.2 257.4,370.2 261.8,370.2 266.1,370.2 270.4,370.3 274.8,370.3 
		279.1,370.3 283.4,370.3 287.8,370.3 	"/>
	<polyline class="st7" points="114.5,370.3 118.8,370.3 123.2,370.3 127.5,370.3 131.8,370.3 136.2,370.3 140.5,370.2 144.8,369.2 
		149.1,357.3 153.5,312.1 157.8,273.4 162.1,307.3 166.5,349.2 170.8,363.1 175.1,362 179.5,350.3 183.8,339.8 188.1,343.5 
		192.5,358.3 196.8,367.9 201.1,370.1 205.5,370.2 209.8,370.3 214.1,370.3 218.4,370.3 222.8,370.3 227.1,370.3 231.4,370.3 
		235.8,370.3 240.1,370.3 244.4,370.3 248.8,370.3 253.1,370.3 257.4,370.3 261.8,370.3 266.1,370.3 270.4,370.3 274.8,370.3 
		279.1,370.3 283.4,370.3 287.8,370.3 	"/>
	<polyline class="st8" points="114.5,367.5 118.8,366.2 123.2,364.6 127.5,362.5 131.8,360.1 136.2,357.4 140.5,354.5 144.8,351.8 
		149.1,349.3 153.5,347.3 157.8,345.9 162.1,345.3 166.5,345.4 170.8,346.2 175.1,347.7 179.5,349.6 183.8,351.9 188.1,354.3 
		192.5,356.7 196.8,359.1 201.1,361.3 205.5,363.2 209.8,364.9 214.1,366.3 218.4,367.4 222.8,368.2 227.1,368.9 231.4,369.4 
		235.8,369.7 240.1,369.9 244.4,370.1 248.8,370.1 253.1,370.2 257.4,370.2 261.8,370.2 266.1,370.2 270.4,370.2 274.8,370.2 
		279.1,370.2 283.4,370.3 287.8,370.3 	"/>
	<rect x="170.8" y="266.8" class="st0" width="111.8" height="39.8"/>
	<text transform="matrix(1 0 0 1 198.5 278)" class="st3 st9">Bandwidth = Defaul</text>
	<text transform="matrix(1 0 0 1 273.3125 278)" class="st3 st9">t</text>
	<line class="st6" x1="173.8" y1="274.3" x2="196.3" y2="274.3"/>
	<text transform="matrix(1 0 0 1 198.5 290.3828)" class="st3 st9">Bandwidth = </text>
	<text transform="matrix(1 0 0 1 248.7578 290.3828)" class="st3 st9">1</text>
	<line class="st7" x1="173.8" y1="286.6" x2="196.3" y2="286.6"/>
	<text transform="matrix(1 0 0 1 198.5 302.75)" class="st3 st9">Bandwidth = </text>
	<text transform="matrix(1 0 0 1 248.7578 302.75)" class="st3 st9">5</text>
	<line class="st8" x1="173.8" y1="299" x2="196.3" y2="299"/>
	<rect x="170.8" y="266.8" class="st10" width="111.8" height="39.8"/>
	<rect x="342.5" y="262.3" class="st0" width="173.3" height="108"/>
	<path class="st1" d="M342.5,370.3h173.3 M342.5,262.3h173.3 M342.5,370.3v-1.7 M385.8,370.3v-1.7 M429.1,370.3v-1.7 M472.4,370.3
		v-1.7 M515.8,370.3v-1.7 M342.5,262.3v1.7 M385.8,262.3v1.7 M429.1,262.3v1.7 M472.4,262.3v1.7 M515.8,262.3v1.7"/>
	<text transform="matrix(1 0 0 1 335.375 384.75)" class="st2 st3 st4">-1</text>
	<text transform="matrix(1 0 0 1 343.5781 384.75)" class="st2 st3 st4 st5">00</text>
	<text transform="matrix(1 0 0 1 423.5 384.75)" class="st2 st3 st4">10</text>
	<text transform="matrix(1 0 0 1 466.8125 384.75)" class="st2 st3 st4">20</text>
	<text transform="matrix(1 0 0 1 510.125 384.75)" class="st2 st3 st4">30</text>
	<path class="st1" d="M342.5,370.3v-108 M515.8,370.3v-108 M342.5,370.3h1.7 M342.5,334.3h1.7 M342.5,298.3h1.7 M342.5,262.3h1.7
		 M515.8,370.3H514 M515.8,334.3H514 M515.8,298.3H514 M515.8,262.3H514"/>
	<text transform="matrix(1 0 0 1 332.5 374.375)" class="st2 st3 st4">0</text>
	<text transform="matrix(1 0 0 1 319 338.375)" class="st2 st3 st4">0.05</text>
	<text transform="matrix(1 0 0 1 324.25 302.375)" class="st2 st3 st4">0.</text>
	<text transform="matrix(1 0 0 1 331.4531 302.375)" class="st2 st3 st4">1</text>
	<text transform="matrix(1 0 0 1 319 266.375)" class="st2 st3 st4">0.15</text>
	<polyline class="st6" points="342.5,370.3 346.8,370.3 351.2,370.3 355.5,370.2 359.8,370.2 364.2,370.1 368.5,369.4 372.8,367.1 
		377.1,362 381.5,355 385.8,349.9 390.1,349.4 394.5,350.6 398.8,347.9 403.1,336.9 407.5,318.1 411.8,299.6 416.1,292.8 
		420.5,301.2 424.8,319 429.1,337.7 433.5,350.3 437.8,352.1 442.1,343.8 446.4,333.2 450.8,329.4 455.1,335.3 459.4,346.3 
		463.8,357.1 468.1,364.6 472.4,368.4 476.8,369.8 481.1,370.2 485.4,370.2 489.8,370.2 494.1,370.3 498.4,370.3 502.8,370.3 
		507.1,370.3 511.4,370.3 515.8,370.3 	"/>
	<polyline class="st7" points="342.5,370.3 346.8,370.3 351.2,370.3 355.5,370.3 359.8,370.3 364.2,370.3 368.5,370.2 372.8,370 
		377.1,367.2 381.5,354.1 385.8,338.9 390.1,346.6 394.5,357.6 398.8,354 403.1,349.7 407.5,325.3 411.8,279.2 416.1,271.5 
		420.5,296.3 424.8,318.1 429.1,342.8 433.5,363 437.8,366.2 442.1,349.3 446.4,319.6 450.8,315.6 455.1,332.5 459.4,347.7 
		463.8,361.8 468.1,368.8 472.4,370.2 476.8,370.2 481.1,370.3 485.4,370.3 489.8,370.3 494.1,370.3 498.4,370.3 502.8,370.3 
		507.1,370.3 511.4,370.3 515.8,370.3 	"/>
	<polyline class="st8" points="342.5,369.2 346.8,368.7 351.2,367.9 355.5,366.9 359.8,365.6 364.2,363.9 368.5,361.8 372.8,359.3 
		377.1,356.4 381.5,353.1 385.8,349.6 390.1,345.8 394.5,342.1 398.8,338.5 403.1,335.3 407.5,332.7 411.8,330.8 416.1,329.8 
		420.5,329.6 424.8,330.3 429.1,331.6 433.5,333.5 437.8,335.9 442.1,338.6 446.4,341.4 450.8,344.4 455.1,347.4 459.4,350.5 
		463.8,353.5 468.1,356.4 472.4,359 476.8,361.5 481.1,363.6 485.4,365.3 489.8,366.7 494.1,367.8 498.4,368.6 502.8,369.2 
		507.1,369.6 511.4,369.9 515.8,370 	"/>
	<rect x="428" y="263" class="st0" width="111.8" height="39.8"/>
	<text transform="matrix(1 0 0 1 455.75 274.25)" class="st3 st9">Bandwidth = Defaul</text>
	<text transform="matrix(1 0 0 1 530.5547 274.25)" class="st3 st9">t</text>
	<line class="st6" x1="431" y1="270.5" x2="453.5" y2="270.5"/>
	<text transform="matrix(1 0 0 1 455.75 286.6328)" class="st3 st9">Bandwidth = </text>
	<text transform="matrix(1 0 0 1 506.0078 286.6328)" class="st3 st9">1</text>
	<line class="st7" x1="431" y1="282.9" x2="453.5" y2="282.9"/>
	<text transform="matrix(1 0 0 1 455.75 299)" class="st3 st9">Bandwidth = </text>
	<text transform="matrix(1 0 0 1 506.0078 299)" class="st3 st9">5</text>
	<line class="st8" x1="431" y1="295.3" x2="453.5" y2="295.3"/>
	<rect x="428" y="263" class="st10" width="111.8" height="39.8"/>
	<rect x="114.5" y="412.3" class="st0" width="173.3" height="107.2"/>
	<path class="st1" d="M114.5,519.5h173.3 M114.5,412.3h173.3 M114.5,519.5v-1.7 M157.8,519.5v-1.7 M201.1,519.5v-1.7 M244.4,519.5
		v-1.7 M287.8,519.5v-1.7 M114.5,412.3v1.7 M157.8,412.3v1.7 M201.1,412.3v1.7 M244.4,412.3v1.7 M287.8,412.3v1.7"/>
	<text transform="matrix(1 0 0 1 107.375 534)" class="st2 st3 st4">-1</text>
	<text transform="matrix(1 0 0 1 115.5781 534)" class="st2 st3 st4 st5">00</text>
	<text transform="matrix(1 0 0 1 195.5 534)" class="st2 st3 st4">10</text>
	<text transform="matrix(1 0 0 1 238.8125 534)" class="st2 st3 st4">20</text>
	<text transform="matrix(1 0 0 1 282.125 534)" class="st2 st3 st4">30</text>
	<path class="st1" d="M114.5,519.5V412.3 M287.8,519.5V412.3 M114.5,519.5h1.7 M114.5,492.7h1.7 M114.5,465.9h1.7 M114.5,439.1h1.7
		 M114.5,412.3h1.7 M287.8,519.5H286 M287.8,492.7H286 M287.8,465.9H286 M287.8,439.1H286 M287.8,412.3H286"/>
	<text transform="matrix(1 0 0 1 104.5 523.625)" class="st2 st3 st4">0</text>
	<text transform="matrix(1 0 0 1 91 496.8125)" class="st2 st3 st4">0.05</text>
	<text transform="matrix(1 0 0 1 96.25 470)" class="st2 st3 st4">0.</text>
	<text transform="matrix(1 0 0 1 103.4453 470)" class="st2 st3 st4">1</text>
	<text transform="matrix(1 0 0 1 91 443.1875)" class="st2 st3 st4">0.15</text>
	<text transform="matrix(1 0 0 1 96.25 416.375)" class="st2 st3 st4">0.</text>
	<text transform="matrix(1 0 0 1 103.4453 416.375)" class="st2 st3 st4">2</text>
	<polyline class="st6" points="114.5,519.5 118.8,519.5 123.2,519.5 127.5,519.5 131.8,519.5 136.2,519.4 140.5,519.1 144.8,518.3 
		149.1,516.7 153.5,514.3 157.8,511.5 162.1,509.4 166.5,509 170.8,510.6 175.1,513.2 179.5,515.8 183.8,517.2 188.1,516.9 
		192.5,514.7 196.8,510.3 201.1,504.1 205.5,496.4 209.8,487.1 214.1,477 218.4,468.4 222.8,464.6 227.1,466.8 231.4,472.7 
		235.8,479.4 240.1,485.9 244.4,492.9 248.8,500.5 253.1,507.8 257.4,513.4 261.8,516.9 266.1,518.6 270.4,519.2 274.8,519.4 
		279.1,519.5 283.4,519.5 287.8,519.5 	"/>
	<polyline class="st7" points="114.5,519.5 118.8,519.5 123.2,519.5 127.5,519.5 131.8,519.5 136.2,519.5 140.5,519.5 144.8,519.5 
		149.1,519.3 153.5,517.3 157.8,510.6 162.1,504 166.5,503 170.8,507.8 175.1,515.5 179.5,519 183.8,519.5 188.1,519.5 192.5,519.2 
		196.8,516 201.1,504.4 205.5,493.9 209.8,495.5 214.1,485.7 218.4,453.5 222.8,436.2 227.1,461.6 231.4,484.9 235.8,483.3 
		240.1,479.6 244.4,487.1 248.8,501.6 253.1,514.2 257.4,518.8 261.8,519.5 266.1,519.5 270.4,519.5 274.8,519.5 279.1,519.5 
		283.4,519.5 287.8,519.5 	"/>
	<polyline class="st8" points="114.5,519.2 118.8,519 123.2,518.7 127.5,518.4 131.8,518 136.2,517.5 140.5,516.9 144.8,516.3 
		149.1,515.6 153.5,515 157.8,514.3 162.1,513.6 166.5,512.9 170.8,512.1 175.1,511.1 179.5,509.8 183.8,508.2 188.1,506.1 
		192.5,503.6 196.8,500.7 201.1,497.7 205.5,494.5 209.8,491.6 214.1,489.1 218.4,487.3 222.8,486.4 227.1,486.3 231.4,487.3 
		235.8,489.1 240.1,491.6 244.4,494.7 248.8,498.1 253.1,501.6 257.4,504.9 261.8,508 266.1,510.7 270.4,513 274.8,514.9 
		279.1,516.3 283.4,517.3 287.8,518.1 	"/>
	<rect x="117.5" y="394.3" class="st0" width="111.8" height="39.7"/>
	<text transform="matrix(1 0 0 1 145.25 405.5)" class="st3 st9">Bandwidth = Defaul</text>
	<text transform="matrix(1 0 0 1 220.0625 405.5)" class="st3 st9">t</text>
	<line class="st6" x1="120.5" y1="401.8" x2="143" y2="401.8"/>
	<text transform="matrix(1 0 0 1 145.25 417.8828)" class="st3 st9">Bandwidth = </text>
	<text transform="matrix(1 0 0 1 195.5078 417.8828)" class="st3 st9">1</text>
	<line class="st7" x1="120.5" y1="414.1" x2="143" y2="414.1"/>
	<text transform="matrix(1 0 0 1 145.25 430.25)" class="st3 st9">Bandwidth = </text>
	<text transform="matrix(1 0 0 1 195.5078 430.25)" class="st3 st9">5</text>
	<line class="st8" x1="120.5" y1="426.5" x2="143" y2="426.5"/>
	<rect x="117.5" y="394.3" class="st10" width="111.8" height="39.7"/>
	<rect x="342.5" y="412.3" class="st0" width="173.3" height="107.2"/>
	<path class="st1" d="M342.5,519.5h173.3 M342.5,412.3h173.3 M342.5,519.5v-1.7 M385.8,519.5v-1.7 M429.1,519.5v-1.7 M472.4,519.5
		v-1.7 M515.8,519.5v-1.7 M342.5,412.3v1.7 M385.8,412.3v1.7 M429.1,412.3v1.7 M472.4,412.3v1.7 M515.8,412.3v1.7"/>
	<text transform="matrix(1 0 0 1 335.375 534)" class="st2 st3 st4">-1</text>
	<text transform="matrix(1 0 0 1 343.5781 534)" class="st2 st3 st4 st5">00</text>
	<text transform="matrix(1 0 0 1 423.5 534)" class="st2 st3 st4">10</text>
	<text transform="matrix(1 0 0 1 466.8125 534)" class="st2 st3 st4">20</text>
	<text transform="matrix(1 0 0 1 510.125 534)" class="st2 st3 st4">30</text>
	<path class="st1" d="M342.5,519.5V412.3 M515.8,519.5V412.3 M342.5,519.5h1.7 M342.5,483.7h1.7 M342.5,448h1.7 M342.5,412.3h1.7
		 M515.8,519.5H514 M515.8,483.7H514 M515.8,448H514 M515.8,412.3H514"/>
	<text transform="matrix(1 0 0 1 332.5 523.625)" class="st2 st3 st4">0</text>
	<text transform="matrix(1 0 0 1 324.25 487.875)" class="st2 st3 st4">0.</text>
	<text transform="matrix(1 0 0 1 331.4531 487.875)" class="st2 st3 st4">2</text>
	<text transform="matrix(1 0 0 1 324.25 452.125)" class="st2 st3 st4">0.</text>
	<text transform="matrix(1 0 0 1 331.4531 452.125)" class="st2 st3 st4">4</text>
	<text transform="matrix(1 0 0 1 324.25 416.375)" class="st2 st3 st4">0.</text>
	<text transform="matrix(1 0 0 1 331.4531 416.375)" class="st2 st3 st4">6</text>
	<polyline class="st6" points="342.5,519.5 346.8,519.5 351.2,519.5 355.5,519.5 359.8,519.5 364.2,519.5 368.5,519.5 372.8,519.5 
		377.1,516.5 381.5,435.3 385.8,446.2 390.1,498.4 394.5,519.4 398.8,519.5 403.1,519.5 407.5,519.5 411.8,519.5 416.1,519.5 
		420.5,519.5 424.8,519.5 429.1,519.5 433.5,519.5 437.8,519.5 442.1,519.5 446.4,519.5 450.8,519.5 455.1,519.5 459.4,519.5 
		463.8,519.5 468.1,519.5 472.4,519.5 476.8,519.5 481.1,519.5 485.4,519.5 489.8,519.5 494.1,519.5 498.4,519.5 502.8,519.5 
		507.1,519.5 511.4,519.5 515.8,519.5 	"/>
	<polyline class="st7" points="342.5,519.5 346.8,519.5 351.2,519.5 355.5,519.5 359.8,519.5 364.2,519.5 368.5,519.2 372.8,515.3 
		377.1,496.5 381.5,466.6 385.8,461.9 390.1,487.9 394.5,511.2 398.8,518.6 403.1,519.5 407.5,519.5 411.8,519.5 416.1,519.5 
		420.5,519.5 424.8,519.5 429.1,519.5 433.5,519.5 437.8,519.5 442.1,519.5 446.4,519.5 450.8,519.5 455.1,519.5 459.4,519.5 
		463.8,519.5 468.1,519.5 472.4,519.5 476.8,519.5 481.1,519.5 485.4,519.5 489.8,519.5 494.1,519.5 498.4,519.5 502.8,519.5 
		507.1,519.5 511.4,519.5 515.8,519.5 	"/>
	<polyline class="st8" points="342.5,517.2 346.8,516.3 351.2,515 355.5,513.6 359.8,512 364.2,510.3 368.5,508.6 372.8,507.2 
		377.1,506.1 381.5,505.5 385.8,505.4 390.1,505.8 394.5,506.8 398.8,508.1 403.1,509.7 407.5,511.4 411.8,513.1 416.1,514.6 
		420.5,515.9 424.8,517 429.1,517.8 433.5,518.4 437.8,518.8 442.1,519.1 446.4,519.3 450.8,519.4 455.1,519.4 459.4,519.5 
		463.8,519.5 468.1,519.5 472.4,519.5 476.8,519.5 481.1,519.5 485.4,519.5 489.8,519.5 494.1,519.5 498.4,519.5 502.8,519.5 
		507.1,519.5 511.4,519.5 515.8,519.5 	"/>
	<rect x="406.3" y="419" class="st0" width="111.8" height="39.8"/>
	<text transform="matrix(1 0 0 1 434 430.25)" class="st3 st9">Bandwidth = Defaul</text>
	<text transform="matrix(1 0 0 1 508.8125 430.25)" class="st3 st9">t</text>
	<line class="st6" x1="409.3" y1="426.5" x2="431.8" y2="426.5"/>
	<text transform="matrix(1 0 0 1 434 442.625)" class="st3 st9">Bandwidth = </text>
	<text transform="matrix(1 0 0 1 484.2578 442.625)" class="st3 st9">1</text>
	<line class="st7" x1="409.3" y1="438.9" x2="431.8" y2="438.9"/>
	<text transform="matrix(1 0 0 1 434 455)" class="st3 st9">Bandwidth = </text>
	<text transform="matrix(1 0 0 1 484.2578 455)" class="st3 st9">5</text>
	<line class="st8" x1="409.3" y1="451.3" x2="431.8" y2="451.3"/>
	<rect x="406.3" y="419" class="st10" width="111.8" height="39.8"/>
</g>
</svg>
