<?xml version="1.0" encoding="utf-8"?>
<!-- Generator: Adobe Illustrator 21.1.0, SVG Export Plug-In . SVG Version: 6.00 Build 0)  -->
<svg version="1.1" xmlns="http://www.w3.org/2000/svg" xmlns:xlink="http://www.w3.org/1999/xlink" x="0px" y="0px"
	 viewBox="0 0 612 792" style="enable-background:new 0 0 612 792;" xml:space="preserve">
<style type="text/css">
	.st0{fill:#FFFFFF;}
	.st1{fill:#A90533;}
</style>
<g id="Layer_1">
	<g>
		<path class="st0" d="M405.9,396.4c0,55.4-44.9,100.3-100.3,100.3c-55.4,0-100.3-44.9-100.3-100.3c0-55.4,44.9-100.3,100.3-100.3
			C361,296.1,405.9,341,405.9,396.4z"/>
		<g>
			<g>
				<g>
					<path class="st1" d="M244.8,394.8c0.1-2.5,1.6-3.3,3.6-3.2c1.9,0.1,3.4,1.1,3.3,3.1l-0.1,2l-6.8-0.3L244.8,394.8z M250.5,394.7
						c0-1-0.6-1.7-2.3-1.8c-1.4,0-2.1,0.5-2.2,1.7l0,0.5l4.5,0.2L250.5,394.7z"/>
					<path class="st1" d="M252.1,389.4l-6.8-1l0.2-1.3l6.8,1L252.1,389.4z"/>
					<path class="st1" d="M248.1,380.3l-0.7,2.7l1.6,0.4l0.5-2.2l1.1,0.3l-0.5,2.2l1.7,0.4l0.7-2.9l1.1,0.3l-1,4.1L246,384l1-4
						L248.1,380.3z"/>
					<path class="st1" d="M255.4,373.6l1.1-2.5l1.1,0.5l-1.7,3.7l-6.2-2.9l0.6-1.2L255.4,373.6z"/>
					<path class="st1" d="M255.2,362.2l4,2.5c1.2,0.7,1.4,2,0.7,3.1c-0.7,1.2-1.9,1.5-3.1,0.8l-4-2.5l0.7-1.1l3.6,2.3
						c1,0.6,1.4,0.5,1.8-0.1c0.3-0.6,0.2-1-0.7-1.6l-3.6-2.3L255.2,362.2z"/>
					<path class="st1" d="M260.6,357.2l-1.7,2.2l1.3,1l1.3-1.7l0.9,0.7l-1.3,1.7l2.2,1.8l-0.8,1l-5.3-4.3l2.6-3.2L260.6,357.2z"/>
					<path class="st1" d="M265.6,352.1l-1.2,1.2l4,4.1l-0.9,0.9l-4-4.1l-1.2,1.2l-0.8-0.8l3.4-3.3L265.6,352.1z"/>
					<path class="st1" d="M272.1,345.7c2.1-1.4,3.6-0.6,4.7,1c1,1.6,1,3.4-0.6,4.5l-1.7,1.1l-3.7-5.8L272.1,345.7z M275.4,350.3
						c0.9-0.6,1-1.5,0.1-2.9c-0.8-1.2-1.6-1.5-2.7-0.8l-0.4,0.3l2.5,3.8L275.4,350.3z"/>
					<path class="st1" d="M281.9,341.6l-2.5,1.2l0.7,1.5l2.1-1l0.5,1l-2.1,1l0.7,1.5l2.6-1.3l0.5,1.1l-3.8,1.8l-2.9-6.2l3.7-1.8
						L281.9,341.6z"/>
					<path class="st1" d="M286.9,338.5c1.4-0.5,2.3,0.4,2.6,1.2c0.2,0.7,0,1.5-0.5,2l2.2,2.6l-1.3,0.4l-2-2.3l-1,0.3l0.9,2.7
						l-1.2,0.4l-2.1-6.5L286.9,338.5z M287.1,341.4c0.5-0.2,1.4-0.4,1.1-1.2c-0.3-0.9-1.1-0.5-1.7-0.4L286,340l0.5,1.6L287.1,341.4z
						"/>
					<path class="st1" d="M323.5,339.5l-2.7-0.7l-0.4,1.6l2.1,0.6l-0.3,1.1l-2.1-0.6l-0.8,2.8l-1.3-0.3l1.8-6.6l3.9,1.1L323.5,339.5
						z"/>
					<path class="st1" d="M328.7,340.1c1.4,0.6,1.5,1.8,1.2,2.6c-0.3,0.7-1,1.2-1.7,1.2l0.1,3.4l-1.3-0.5l0-3.1l-0.9-0.4l-1.1,2.6
						l-1.2-0.5l2.6-6.3L328.7,340.1z M327,342.5c0.5,0.2,1.3,0.6,1.6-0.2c0.4-0.9-0.5-1.1-1.1-1.4l-0.4-0.2l-0.6,1.6L327,342.5z"/>
					<path class="st1" d="M336.2,345.2l-2.4-1.3l-0.8,1.4l2,1.1l-0.6,1l-2-1.1l-0.8,1.5l2.6,1.4l-0.6,1l-3.7-2l3.3-6l3.6,2
						L336.2,345.2z"/>
					<path class="st1" d="M335.3,351.3l3.8-5.7l1.1,0.7l-3.8,5.7L335.3,351.3z"/>
					<path class="st1" d="M343.5,352.3l1.7-2.1l1,0.8l-4.4,5.3l-1-0.8l1.9-2.3l-1.7-1.4l-1.9,2.3l-1-0.8l4.3-5.3l1,0.8l-1.7,2.1
						L343.5,352.3z"/>
					<path class="st1" d="M350.3,356.8l-1.9-2l-1.2,1.1l1.6,1.7l-0.8,0.8l-1.6-1.7l-1.2,1.2l2,2.1l-0.8,0.8l-2.9-3.1l5-4.7l2.8,3
						L350.3,356.8z"/>
					<path class="st1" d="M347.5,362.4l5.4-4.2l0.8,1l-5.4,4.2L347.5,362.4z"/>
					<path class="st1" d="M356.8,365.7l-0.9-1.4l-4.8,3.1l-0.7-1.1l4.7-3.1l-0.9-1.4l1-0.6l2.6,4L356.8,365.7z"/>
					<path class="st1" d="M356.3,377.8l-0.5-1.2l4-2.6v0l-4.7,1l-0.5-1.2l5.8-3.9l0.5,1.2l-4.1,2.6l0,0l4.8-1.1l0.5,1.3l-4.1,2.6
						l0,0l4.8-1.1l0.5,1.2L356.3,377.8z"/>
					<path class="st1" d="M363.8,383.3l-0.7-2.7l-1.6,0.4l0.6,2.2l-1.1,0.3l-0.6-2.2l-1.7,0.4l0.7,2.8l-1.1,0.3l-1.1-4.1l6.6-1.7
						l1,4L363.8,383.3z"/>
					<path class="st1" d="M363.4,389.8l2.6-0.3l0.2,1.3l-6.8,0.9l-0.2-1.3l3-0.4l-0.3-2.2l-3,0.4l-0.2-1.3l6.8-0.9l0.2,1.3l-2.7,0.3
						L363.4,389.8z"/>
					<path class="st1" d="M365.2,398.2l0-1.7l-5.7,0.1l0-1.3l5.7-0.1l0-1.7l1.2,0l0,4.7L365.2,398.2z"/>
				</g>
				<g>
					<path class="st1" d="M305.6,327.3c-38.2,0-69.1,30.9-69.1,69.1c0,38.2,30.9,69.1,69.1,69.1c38.1,0,69.1-30.9,69.1-69.1
						C374.7,358.3,343.8,327.3,305.6,327.3z M305.6,463.8c-37.2,0-67.4-30.2-67.4-67.4c0-37.2,30.2-67.4,67.4-67.4
						c37.2,0,67.4,30.2,67.4,67.4C373,433.7,342.8,463.8,305.6,463.8z"/>
					<g>
						<path class="st1" d="M257.8,426.2l-0.5,0.2c-0.2,0.1-0.2,0.3-0.2,0.4c0.1,0.2,0.2,0.2,0.4,0.2l0.5-0.2
							c0.2-0.1,0.2-0.3,0.2-0.4C258.1,426.2,257.9,426.1,257.8,426.2z"/>
						<path class="st1" d="M344.3,443.3c-0.1-0.1-1.7,0.5-2.1,0.8c-0.4,0.3-0.2,0.9,0.1,0.8c0.3-0.1,2.1-1.2,2.2-1.2
							C344.6,443.5,344.5,443.4,344.3,443.3z"/>
						<path class="st1" d="M317.1,428.4c0.2-0.2,0.5-0.3,0.3-0.4c-0.2-0.1-0.4-0.1-0.6,0.1c-1.1,0.8-2,1.2-3.1,2
							c-0.5,0.4-2.1,2.4-3.1,2.9c0,0.6,0.6,0.6,1,0.1c0.1-0.1,1.7-1.9,1.9-2c1-0.9,1.5-1.1,2.6-1.8L317.1,428.4z"/>
						<path class="st1" d="M311.8,428.9l0.6-0.2c0,0,0.3-0.2,0.4-0.3c0.2-0.1,0.1-0.7-0.4-0.4l-0.4,0.2l0,0l-0.2,0.1l-0.5,0.3
							c-0.1,0.1-0.1,0.2,0,0.3C311.3,429,311.6,429,311.8,428.9z"/>
						<path class="st1" d="M310.1,429.2l-0.4,0.3l-0.2,0.1l-0.5,0.3c-0.1,0.1-0.1,0.2,0,0.3c0.1,0.1,0.3,0.1,0.5,0.1l0.6-0.2
							l0.3-0.2C310.8,429.4,310.6,429,310.1,429.2z"/>
						<path class="st1" d="M321.8,427.5c-0.1-0.1-0.3-0.1-0.4,0c-0.9,0.6-1.9,1.2-2.7,1.9c-0.5,0.4-0.9,0.7-1.3,1.2
							c-0.3,0.3-0.6,1.1-1,1.3c-0.2,0.1-0.3,0.2-0.3,0.4c0,0.2,0.2,0.2,0.4,0.2c0.7-0.3,1.1-1.2,1.7-1.8c1-1,2.4-1.8,3.6-2.6
							C321.8,427.8,321.9,427.6,321.8,427.5z"/>
						<path class="st1" d="M315.6,432.7c-0.3,0-0.7,0.3-1,0.9c-0.1,0.1-0.3,0.6-0.5,0.7c-0.2,0.1-0.2,0.3-0.2,0.5
							c0,0.2,0.2,0.2,0.3,0.1c0.4-0.2,0.6-0.7,0.8-1c0.3-0.5,0.4-0.5,0.4-0.5c0.1,0,0.3-0.1,0.3-0.3
							C315.8,432.9,315.7,432.7,315.6,432.7z"/>
						<path class="st1" d="M324,429.2c-0.1,0-1.3,0.7-1.5,0.8c-0.2,0.1-0.9,0.8-0.8,1.1c0,0.1,0.2,0.3,0.4,0.2
							c0.3-0.1,0.5-0.3,0.6-0.5l0.2-0.3l0.4-0.2c0.3-0.1,0.8-0.2,0.9-0.7C324.3,429.4,324.2,429.2,324,429.2z"/>
						<path class="st1" d="M320.6,432c-0.2,0.1-0.4,0.2-0.4,0.2l0,0l-0.2,0.1l-0.5,0.3c-0.2,0.1-0.1,0.2,0,0.3
							c0.1,0.2,0.3,0.1,0.5,0.1l0.6-0.2c0,0,0,0,0.2-0.1c0.2-0.1,0.2-0.1,0.2-0.1c-0.1,0.1,0.2-0.1,0.1-0.3
							C321,432.1,320.8,431.9,320.6,432z"/>
						<path class="st1" d="M326.3,431.3c-0.4,0-0.7,0.3-0.9,0.6l-0.3,0.3c-0.1,0.1-0.2,0.3,0,0.4c0.1,0.1,0.3,0.2,0.4,0l0.3-0.3
							c0.1-0.1,0.4-0.4,0.4-0.4c0.2,0,0.3-0.1,0.3-0.3C326.6,431.5,326.4,431.3,326.3,431.3z"/>
						<path class="st1" d="M326.4,439.2c0.3-0.1,0.5-0.3,0.7-0.5l0.2-0.3c0.2-0.1,0.5-0.2,0.5-0.2c0.1,0,0.3-0.1,0.3-0.3
							c0-0.1,0-0.3-0.2-0.3c-0.3-0.1-1,0.3-1,0.3l-0.4,0.4c-0.1,0.1-0.2,0.3-0.3,0.3c-0.2,0-0.3,0.2-0.2,0.3
							C326.1,439.1,326.3,439.2,326.4,439.2z"/>
						<path class="st1" d="M305.6,330.9c-36.2,0-65.5,29.3-65.5,65.5c0,36.2,29.3,65.5,65.5,65.5c36.1,0,65.5-29.3,65.5-65.5
							C371.1,360.3,341.7,330.9,305.6,330.9z M292.7,445c-1.5,1.1-3.6,1-5,2.3c-2.2,0.1-4,0.9-6.3,0.8c-1.5,1.3-3.5,0.5-5.1,1.7
							c-1.6-0.2-3.3-0.2-4.6,0.7l-1.2,0c-1-0.6-1.9-1.3-2.9-2c0.2-0.2,0.4-0.4,0.7-0.6c0.5-0.5,1.1-0.9,1.7-1.3
							c0.7-0.5,1.5-1,2.3-1.5c0.4-0.2,2.2-0.8,2.2-1.3c0,0,0,0,0-0.1c0-0.2-0.1-0.2-0.3-0.2c-0.7,0.2-1.4,0.5-2.1,0.8
							c-0.7,0.3-1.1,0.8-1.7,1.3c-1.1,0.9-2.2,1.6-3.3,2.5c-1.5-1.1-3-2.3-4.4-3.6l0,0c0.1-0.1,0.2-0.1,0.3-0.2
							c0.4-0.3,0.9-0.4,1.3-0.6c0.4-0.2,1.9-0.9,2-1.3c0-0.1,0-0.3-0.2-0.3c-0.5-0.2-1.4,0.7-1.9,1c-0.7,0.3-1.3,0.7-2,1.1
							c-1.3-1.2-2.5-2.4-3.7-3.6c0,0,0.1-0.1,0.2-0.1c0.5-0.4,1.5-1.1,0.8-1.2c-0.2,0-1.2,0.6-1.5,0.8c-0.6-0.7-1.3-1.4-1.9-2.2
							c1-0.4,2-0.8,2.7-0.3c1.4,0.4,2.6,0.7,4.2,0.6c0.7,0.6,1.8-0.1,2.6,0.4c3.1,1.4,6.5-1.8,9.2,0.7c1.3-0.5,1.9,0.8,3.1,0.7
							c1.1,0.9,2.4,1.6,3.8,1.3c2.7,1,5.6,1.5,8.5,1.6c0.4,0.2,2,0.5,3.5,0.8c0,0.1-0.1,0.2-0.1,0.3
							C293.3,444.4,293,444.7,292.7,445z M298.2,439.4c-0.9,0.3-1.8,0.7-2.6,1.2c-0.5,0.9-1.5,1.5-1.9,2.4c-0.4-0.1-0.8-0.2-0.9-0.3
							c-0.7-0.2-4.4-0.9-5.2-0.9c-1.9-0.2-3.9-0.3-5.6-1.2c-1,0.1-1.8-0.4-2.7-0.5c0.5-0.5,1.4-1.8,1.5-2c0-0.2-0.1-0.3-0.2-0.3
							c-0.2,0-0.3,0.1-0.4,0.2c0,0.1-1.1,1.6-1.3,1.8c-1.4-1.1-3.1-1.1-4.7-1.5c0-0.1-0.1-0.2-0.2-0.2c0.6-0.6,1.7-1.9,1.7-2.1
							c0-0.2-0.1-0.3-0.2-0.3c-0.2,0-0.3,0.1-0.4,0.2c0,0.1-1.6,1.9-1.7,2c0,0,0,0,0,0c0,0-0.1,0-0.1,0c-1-0.5-2.5-1.2-3.6-0.3
							c-0.5,0.1-1,0.2-1.5,0.2c0.8-0.9,2.3-2.9,2.3-3.1c0-0.2-0.1-0.3-0.2-0.3c-0.1,0-0.3,0.1-0.4,0.2c-0.1,0.1-2.3,3-2.4,3.1
							c-0.1,0-0.1,0.1-0.1,0.2c-2.1,0.1-4.2,0-6.1-0.4c-0.1,0-0.1,0-0.1,0c0.9-0.8,4.6-4.2,4.7-4.5c0.1-0.2,0-0.3-0.1-0.3
							c-0.5-0.3-4.6,4-5.3,4.8c-0.5-0.2-0.8-0.8-1.4-0.7c-1-0.6-2.5-0.1-3.8,0.3c-0.3-0.3-0.6-0.7-0.8-1c0.6-0.5,1.3-1,1.9-1.4
							c1.2-0.8,6.6-2.7,6.8-4.4c0-0.2-0.1-0.3-0.3-0.3c-0.2,0-0.3,0.1-0.3,0.3c-0.2,1.2-4.8,3-5.6,3.4c-1,0.5-2,1.3-2.9,2
							c-0.6-0.8-1.2-1.6-1.7-2.4c0,0,0.1-0.1,0.2-0.2c0.6-0.5,1.8-1.3,2-1.4c1-0.5,4.9-0.9,5.1-2.4c0-0.2-0.1-0.3-0.3-0.3
							c-0.2,0-0.3,0.1-0.3,0.3c-0.1,1.1-4.1,1.6-4.8,1.9c-0.8,0.4-1.5,1.1-2.2,1.6l0,0c-0.6-0.9-1.2-1.9-1.8-2.8l0.2-0.2
							c1.9-0.7,3.7-1.3,5.6-2.1c0.5-0.2,0.2-0.4,0-0.4c-0.6-0.1-5.2,1.9-6.1,2.2c-0.5-0.8-1-1.7-1.4-2.6c0.6-0.1,1-0.2,1.9-1
							c1.7,0,3.1-0.9,4.7-1.3c1.3-1.4,3.3-0.2,5-0.3c2.7,0.6,4.9,2.2,7.6,2.9c3.8,0.6,5.8,4.5,9.8,4.6c1.5,0.1,3.5,1.5,5,1.5l1,0.5
							c0.2,0.1,0.4,0.3,0.6,0.3c0.1,0,0.3,0,0.4,0c0.3,0,0.4,0.1,0.6,0.1c0.3,0,0.6,0,0.8,0c0.4,0.1,0.8,0.4,1.3,0.5
							c0.7,0,1.4,0.3,2.1,0.4c0.3,0.1,0.6,0.1,0.8,0.2c0.2,0.1,0.3,0.2,0.5,0.3c0.2,0.1,0.4,0,0.6,0c0.2,0,0.7,0.2,0.9,0.2
							c0.2,0,0.3,0.1,0.3,0.2c0.2,0.1,0.4,0.1,0.6,0.2c0.2,0.1,0.4,0.2,0.6,0.3c0.3,0.1,0.7,0,1,0c0.3,0,0.5,0,0.8,0
							c0.4,0,0.5,0.1,0.8,0.1c0.3,0,0.6,0,0.8-0.1c0.4,0,1.1,0.4,2,0.5C299.5,438,299.6,438.9,298.2,439.4z M285.7,429.3l-0.2,0.1
							c-0.1,0-0.1,0.1-0.2,0.2c-0.2,0.2-2.7,2-2.9,2.1c-0.1,0.1-0.2,0.3-0.2,0.3c-0.2,0-0.3-0.1-0.5-0.2l-0.4-0.2c0,0,0,0,0,0l0,0
							c-0.3-0.1-0.6-0.2-0.9-0.3l-0.1,0v0l0.3-0.3c0,0,0.1-0.1,0.1-0.1c0.1,0,1.7-1.5,1.7-1.6l0-0.1c0,0,0,0,0,0
							c0,0-0.1-0.1-0.1-0.2c-0.1-0.1-0.2,0-0.3,0l-1.7,1.5l-0.4,0.3l-0.1,0.1c-0.1,0.1-0.1,0.2-0.2,0.2c-0.5,0-0.7-0.1-1.1-0.3
							l-0.4-0.1c-0.2-0.1-0.3-0.2-0.4-0.3c0,0,0,0,0,0c1.1-0.9,3.3-2.9,3.4-3.2c0-0.1-0.1-0.3-0.2-0.3c-0.3,0-3.2,2.6-3.9,3.5
							l-0.1,0c-0.3-0.1-0.6-0.3-0.9-0.5l-0.6-0.2c-0.2,0-0.4,0-0.6,0l-0.3-0.1c0.7-0.9,3.5-2.6,4.1-3c0.1-0.1,0.1-0.2,0.1-0.3
							c-0.1-0.1-0.2-0.1-0.3-0.1c-0.7,0.5-3.5,2.3-4.3,3.3l-0.2-0.1l-0.9-0.5c0-0.2-0.1-0.3-0.2-0.4l-0.3-0.3
							c-0.2-0.1-0.4-0.3-0.6-0.4c-0.1-0.1-0.3-0.2-0.5-0.3h0.1c0.6-0.4,1.4-0.6,2.1-0.9c0.3-0.1,3.4-1.4,3.7-1.3
							c0.1,0,0.2,0,0.3-0.1c0-0.1,0-0.3-0.2-0.3c-0.5-0.1-1.2,0.4-1.6,0.6c-0.5,0.3-2.7,0.8-3.2,1c-0.4,0.2-0.7,0.4-1.1,0.5
							c-0.2,0.1-0.9,0-1,0.2c-0.4-0.2-0.8-0.4-0.8-0.9c1.1-1,3-0.3,4.1-1.4l0.9-0.4c0,0,1.3-0.2,1.4-0.3c0.1-0.1,0.7-0.1,1.2-0.3
							c0.4-0.2,1.5-0.2,1.7-0.3c0.2,0,0.9-0.2,0.9-0.2c2.6-0.1,5.1,0.1,7.4,0.9c0.6,0.8,6.1,3.5,8.6,4.3c-1.1,0.4-2.2,0.7-3.3,0.8
							c-1.9,0.1-3.4,2-8.4,2.4c-0.4-0.1-0.9-0.1-1.3-0.1c0.1-0.1,2.5-1.9,2.6-2c0,0,0.1,0,0.1,0
							C286.3,429.4,285.6,429.3,285.7,429.3z M299.8,435.6c-0.1,0-0.2-0.1-0.4-0.1c0.2-0.2,0.3-0.4,0.4-0.6l0.1-0.1
							c0.1-0.2,0-0.4-0.1-0.4c-0.1-0.1-0.3,0-0.4,0.1l0,0.1c-0.2,0.4-0.3,0.6-0.5,0.7c-0.6-0.1-1.1-0.1-1.5-0.2
							c0.4-0.3,0.8-0.7,1.2-1c0.4-0.5-0.2-0.6-0.6-0.3c-0.5,0.5-1,1-1.6,1.3c-0.1,0-0.1,0-0.2,0c-0.3,0-0.7,0-1,0
							c-0.4,0-0.7-0.1-1-0.2l-0.8-0.2c-0.2,0-0.3,0-0.5,0c0.3-0.1,0.6-0.2,0.8-0.3c0.3-0.2,0.5-0.4,0.8-0.6c0.5-0.3,1.2-0.7,1.8-0.8
							c0.5-0.1,1-0.3,1.4-0.5l0.2-0.1c0.1-0.1,0.2-0.3,0.1-0.4c-0.1-0.1-0.2-0.2-0.4-0.1l-0.2,0.1c-0.4,0.2-0.8,0.4-1.2,0.5
							c-0.6,0.1-1.2,0.4-1.7,0.7c-0.5,0.3-1,0.7-1.6,1c-0.3,0.1-0.5,0.2-0.8,0.3c0,0-0.1,0-0.1,0.1c-0.1-0.1-0.2-0.1-0.3-0.1
							l-0.8-0.2c-0.1,0-0.1-0.1-0.2-0.1c-0.3-0.1-0.6-0.2-0.9-0.2c1.3-0.5,2.6-1,3.9-1.5c0.8-0.3,1.6-0.6,2.4-0.9
							c0.4-0.2,1.5-0.9,1.9-0.8c0.2,0.1,0.3-0.1,0.4-0.2c0-0.2-0.1-0.3-0.2-0.4c-0.6-0.1-1.4,0.4-1.9,0.6c-0.8,0.3-1.5,0.6-2.3,0.9
							c-1.2,0.4-2.3,0.8-3.5,1.3c-0.3,0.1-1.6,0.5-2.1,0.9l-0.6-0.1c0,0-0.1,0-0.2-0.1c-0.4-0.1-0.6-0.1-1-0.1
							c-0.3-0.1-0.6-0.2-0.9-0.3c-0.2,0-0.5-0.1-0.7-0.2c2.5-0.4,5.4-1.6,7.3-2.2c2-0.6,3-1.4,5.1-1.7c1-0.1,1.8-0.5,3.3-1l0,1.9
							C300.3,434.7,299.8,435.6,299.8,435.6z M310.3,438.1c-0.6,0.1-1-0.2-1.3-0.6l0.4,0c2.7-0.8,2.3-0.4,4.4-1.1
							c0.5-0.2,2.2-0.5,2.6-0.6c0.5-0.1,2.9-0.4,3.4-0.5c0.5-0.1,1.9-1.1,2.3-1.3c0.5-0.2,0.5-0.5,0.8-0.5c0.2-0.1,1,0.1,1.7,0.7
							c0.9,0.6,2.4-0.1,3.1,0.9c1.3,0.3,2.4,0,3.5,0.5c1.8-0.1,3.4,0.5,5,0.6c0.9,1,2.5,0.6,3.7,0.7c1.4,0.3,2.9,0.6,4.4,0.5
							c-0.3,0.3-0.9,0.3-1.3,0.4c-1.8,0.6-3.9,1-5.9,1.5c-1.3,1.7-3.6,1.5-5.6,1.7c-0.4,0-0.8,0-1.2,0c0.2-0.1,0.4-0.2,0.4-0.3
							c0-0.2-0.1-0.4-0.2-0.4c-0.3,0-0.6,0.1-0.8,0.2l-0.1,0l-0.4,0.3c0,0-0.1,0.1-0.1,0.1c-0.5,0-1.1,0-1.6,0l0-0.1l0.1,0
							c0.3-0.1,0.7-0.4,0.6-0.8c0-0.1-0.1-0.2-0.3-0.2c-0.2,0-1.3,0.8-1.5,1.1c-0.4,0-0.7,0-1,0l-0.6,0c-0.2,0-0.6-0.1-1-0.1
							c0.2-0.1,0.5-0.2,0.6-0.2c0.2,0,0.3-0.1,0.4-0.2c0-0.2-0.1-0.3-0.2-0.4c-0.5-0.1-1,0.2-1.3,0.4c-0.2,0.1-0.4,0.2-0.7,0.2
							c-0.5,0-1.4-0.2-1.8-0.3l-1.2-0.2c0.9-0.2,1.7-0.6,2.6-0.9c0.5-0.2,0.9-0.3,1.4-0.4c0.3-0.1,1.7-0.5,1.8-0.8
							c0-0.2-0.1-0.3-0.2-0.3c-0.5-0.1-1.1,0.4-1.5,0.5c-0.6,0.2-1.2,0.3-1.8,0.5c-0.9,0.3-1.7,0.8-2.6,0.9
							c-0.8,0.1-1.5,0.1-2.3,0.1l-0.6-0.1c-0.6-0.1-1.2-0.2-1.2-0.2c0.9,0,1.7-0.7,2.5-0.9c0.9-0.2,1.9-0.3,2.9-0.5
							c0.6-0.1,1.2-0.4,1.8-0.6c0.1-0.1,0,0,0.2-0.3c0.2-0.2-0.2-0.4-0.3-0.4c-1,0.3-1.9,0.6-2.9,0.8c-1.1,0.1-2.3,0.2-3.3,0.8
							c-0.7,0.4-1.9,0.7-2.7,0.7l-0.6-0.1c-0.6-0.1-1.4-0.2-2.2-0.3C310.5,438.3,310.4,438.2,310.3,438.1z M338.6,451.8
							c-1.3,0.2-2.5-0.1-3.6-0.6c0.8-0.9,2.1-2.4,3.7-3.7c0.9-0.8,1.8-1.3,2.5-1.8c0.7-0.4,0.4-1.1-0.2-0.8c-0.5,0.3-1.5,1-2.1,1.5
							c-1.8,1.5-3.5,3.3-4.4,4.4c-1.3-0.6-2.6-1.3-4.1-1.5c0.7-0.5,1.4-1.1,1.9-1.5c1.2-0.9,3.9-2.5,4-2.7c0.1-0.1,0-0.3-0.1-0.4
							c-0.2-0.2-3,1.5-4.4,2.5c-0.7,0.5-1.6,1.3-2.4,2c0,0-0.1,0-0.1,0c-1.1-0.5-2.2-0.8-3.5-1c-0.2-0.1-0.4-0.3-0.6-0.4
							c0.4-0.2,0.9-0.5,1.3-0.5c0.5-0.1,1-0.3,1.4-0.5l0.2-0.1c0.2-0.1,0.2-0.3,0.1-0.4c-0.1-0.2-0.2-0.2-0.4-0.1l-0.2,0.1
							c-0.4,0.2-0.8,0.4-1.2,0.5c-0.6,0.1-1.2,0.4-1.7,0.7c-0.1,0.1-0.3,0.2-0.4,0.3c-0.9-0.1-1.9,0.3-2.8-0.4
							c-0.5,0.1-1.1-0.1-1.7-0.2c-0.5-0.9-1.4-1.1-1.7-2c0.4-0.1,0.6-0.1,0.8-0.1c2.4-0.2,5-0.6,7.3-1.1c0-0.1,0-0.2,0-0.3
							c-1.3,0-2.5,0.3-3.8,0.5c-1.3,0.2-2.6,0-3.9,0.3c-0.1,0-0.3,0.1-0.6,0.1c-0.4-0.5-0.5-0.9-1.3-1.2c-1.5-0.9-2.6-0.8-3.4-2.9
							c-0.4-0.2-1.2-0.9-1.6-1.2c0.5,0,1,0,1.6,0.1c0.6,0.1,1.1,0.4,1.7,0.5c1.2,0.2,2.5,0.3,3.6,0.7c3.5,0.7,7.3,0.1,10.8,0.8
							c1.3-0.5,2.6,0,4.1-0.2c-1.6,0.8-3.5,1.3-5.3,1.6c-0.3,0.5-1,0.5-1.4,0.9c0.2,0.1,0.6,0.1,0.6,0.1s1.8-1.2,2.9-0.8
							c0.7-0.4,1.8-0.3,2.5-0.9c2-0.3,3.2-1.9,5.2-2.5c1.2-0.8,3.1-0.7,4.5-1.2c2.4-0.5,5.2-0.9,7.3-2.1c1.5,0.4,2.5-0.8,4-0.5
							c1-0.1,2-0.2,3-0.3C351.8,442.2,345.6,447.6,338.6,451.8z M357.2,435c-0.1,0-0.2,0-0.4,0c-3.1,0.6-7.2-0.2-9.8,1.8
							c-2.1-0.6-4.4,0.1-6.6-0.6c-1.1-0.9-3.3,0.2-4.3-1c-2.2-0.2-4.4-0.8-6.7-0.6c-1.5,0.1-2.2-1.3-3.7-1c-0.7-0.7-1.8-0.5-2.8-0.6
							c0,0,0,0,0,0c-0.3,0.1-2.3,0.8-2.3,0.8c-0.5,0.2-0.9,0.5-1.4,0.5c-0.5,0.1-1.7,0.5-2.4,0.6c-0.7,0.1-1.9,0.6-2.4,0.6
							c-0.6,0.1-1.4,0.4-2.2,0.5c-0.8,0.2-1.9,0.2-2.3,0.4c-0.2,0.1-0.9,0.1-1.3,0.1c-0.1-0.4-0.2-0.9-0.3-1.3v0c0,0,0,0,0,0
							c0-0.2,0-0.4,0.1-0.6c0-0.4,0.1-1,0.1-1.9c-0.2-0.8,0.1-1.8-0.3-2.6c-0.1-0.9,0-2.2,0.2-3c4.9-0.5,6.4-1.5,9.9-2.5
							c0,0,2.3-0.2,2.3-0.2c2.1-0.6,3,1.8,5.1,1.4c1.1,0.4,2.2,0.1,3.3,0.6c2.3,0.7,4.4,1.7,6.6,2.5c1.8,0,3.2,0.7,4.9,0.9
							c0.5,0.3,1.1,0.2,1.6,0.3c1.7,0.1,4.8,0.9,5,0.3c0.1-0.5-3.1-0.5-4.7-1.1c-0.9-0.1-1.8-0.3-2.7-0.5c0.1-0.1,0.2-0.2,0.3-0.3
							c0.2-0.2,0.3-0.3,0.4-0.3c0.1,0.1,0.3,0,0.3-0.1c0-0.1,0-0.3-0.1-0.3c-0.4-0.1-0.6,0.2-0.8,0.4c-0.1,0.1-0.3,0.3-0.4,0.3
							c-0.1,0-0.2,0.1-0.2,0.2c-0.4-0.1-0.7-0.2-1.1-0.2l0.4-0.3c0.2-0.1,0.4-0.3,0.6-0.3c0.1,0,0.2-0.1,0.2-0.2
							c0-0.1-0.2-0.2-0.3-0.2c-0.3,0-0.6,0.2-0.8,0.4l-0.4,0.2c-0.1,0.1-0.2,0.3-0.1,0.3c0,0,0,0,0,0c0,0-0.1,0-0.1,0
							c-0.5-0.2-1.1-0.5-1.6-0.6c0.1-0.1,0.3-0.1,0.6-0.1c0.6,0,1.1-0.2,1.5-0.8c0.1-0.1,0.1-0.2,0-0.3c-0.1-0.1-0.2-0.1-0.3,0
							c-0.3,0.4-0.6,0.6-1.1,0.6c-0.7,0-1,0.3-1.1,0.5c-0.1,0-0.2,0-0.3,0.1c-0.5-0.3-1.1-0.5-1.6-0.7l0.2,0l0.3-0.1l0.1,0l0.3,0
							l0.6-0.3l0.5-0.1c0.4,0,0.6-0.1,0.9-0.3c0,0,0.1,0.1,0.1,0c0.1,0,0.2-0.2,0.2-0.3l0-0.1c0-0.1-0.1-0.1-0.1-0.1
							c-0.1,0-0.1,0-0.2,0c-0.3,0.2-0.5,0.3-0.8,0.3l-0.7,0.1l-0.2,0.1l-0.6,0.2l-0.2,0.1l-0.2,0.1l-0.4,0.1l-0.1,0
							c-0.1,0-0.2,0-0.2,0c0,0-0.1,0-0.1,0c-0.2-0.1-0.5-0.2-0.7-0.4c0.6-1.7,2.5-0.9,3.6-1.9c1.1-0.1,2.6-0.7,3.4,0.3
							c2.9,0.7,6.1,1.6,8.6,3.1c1.7,0,2.9,1.8,4.6,1.9c0.6,0.3,1.3,0.3,1.9,0.5c1.4,0,2.6,1.2,3.9,1.6c0.5,0,1,0,1.4,0
							C358.7,433,358,434,357.2,435z M354,429l1.3-0.7c0,0,0.7-0.3,0.9-0.5c0.2-0.2-0.1-0.3-0.5-0.2c-0.4,0.1-0.9,0.4-0.9,0.4
							s-1.1,0.6-1.2,0.8c-0.2,0.2-0.9,0.5-0.9,0.5c-0.3-0.1-1.6-0.3-3.4-1.4c0.4-0.4,1.3,0.1,1.7,0c0.4-0.2,0.6-0.4,1.1-0.5
							c1-0.2,2-1,3.1-0.9c0.7,0.1,1.4-0.3,2-0.2c0.4,0,0.8,0.2,1.4,0.4c0.5,0.1,1.1,0.3,2,0.5l1.2,0.5c0,0-0.7,1.2-0.7,1.3
							c0,0,0,0.1-0.1,0.1c-0.4,0.6-0.8,1.3-1.2,1.9c-0.5,0-1.1,0-1.7-0.1l-0.5-0.1c-0.6-0.1-1.1-0.3-1.5-0.7c-0.1,0-0.3-0.1-0.4-0.1
							c0.3-0.2,0.6-0.3,1-0.4l0.1,0l0.5-0.2l0.3-0.2l0.2-0.1c0.1-0.1,0.1-0.2,0.1-0.2c-0.1-0.1-0.1-0.1-0.2,0l-0.3,0.3l-0.2,0.1
							l-0.5,0.2l-0.1,0c-0.5,0.1-0.9,0.3-1.3,0.5c-0.7-0.2-1.4-0.3-2.1-0.4L354,429z M360.6,426.3c-0.5-0.1-1-0.2-1.4-0.1
							c-0.3-0.2-0.6-0.3-0.9-0.4c-0.4-0.1-0.9-0.2-1.4-0.3c-0.7,0-1.4,0.1-2.1,0.4c-0.9,0-2.4,0.7-3.8,1.4c-0.5,0.2-1.2-0.3-1.6-0.1
							c-0.4,0.1-0.9,0.3-1.2,0.3c-1.7-0.7-1.3-0.2-2.8-1.3c-1.6-0.4-3.6-0.9-5-1.6c-1.3-0.2-2.5-1.5-3.9-0.8c-1.8,0.4-3.9,1-5.5,2.1
							c-0.6,0.1-1.4,0.4-2,0c-1.5-0.2-2.8-1.4-4.4-0.9c-0.9-0.4-2-0.5-2.8-1.2h-1.8c0,0,0,0,0,0c-3.1,0.2-4.7,1.4-8,1.9
							c-0.7,0.1-1.2,0.4-3.5,0.5c0,0-0.5-1.5,0.4-2.7v-1.6c-0.1-0.6-0.1-1.8-0.1-2.3c0,0-0.1-0.1-0.2-0.1c-0.6-1.7,0.4-4.2-0.9-5.8
							c1-1.7-0.1-3.4,0.4-5.3c0.6-0.1,1.2,1.4,1.7,0.2c0.7,0.5,1.4,1.8,2.2,1.1h0.2c-0.2,0.8,0.3,1.5,0.4,2.3
							c-0.3,0.7-1.9,0.9-1.1,1.8c0.6,0.5,1.4,0,2.1,0.4c0.5-0.5,0.8-1.1,1.4-1.3c0.3,0.2,0.4,0.5,0.1,0.8l-0.2,0.2
							c0.2,0.7,1.7,1.3,0.5,2v0.6l0.9,0.1c0.1,1.1-1.4,1-0.8,2.3c0.8,0.6,1.5-0.7,2.6-0.2c0.6-0.4,0.4-1,0.7-1.6c-0.5-0.8,1-1,0.5-2
							c-0.4-0.7-0.5-1.5-1.1-2.1c-0.2-1.2-1.6-1.5-1.8-2.7c-1.7-0.2-2.2-1.9-3.2-2.7c0-0.3,0.3-0.5,0.7-0.4c0.4-0.2,0.5,0.3,0.8,0.4
							c-0.1,0.5,0.2,0.8,0.6,1c0.4-0.4,0-1,0.3-1.4c0.4,0.1,1.1-0.3,1.3,0.3c-0.1,0.4-0.6,0.8-0.2,1.2c0.5,0.4,1.3,1.1,2.1,0.7
							c0.7-0.2,1.1,1.4,1.6,0.2c-0.1,1.2-0.3,2.5,0.3,3.7c-0.6,0.8-2.3-1.1-1.2,0.8c1,0.4,1.5,0.4,2,1.5c0.5,0.2,1,0.6,1.5,0.5
							c1.5-1.5,1.4-3.9,1-5.8c-0.6-0.7-0.8-1.3-0.9-2.3c-0.6-0.8-1.7-1.1-2-2c-1.2-0.4-2.2-1.1-3.6-1.1c-0.1-0.4-0.6-0.4-1-0.4
							c-1.5-2.4-4.9-2.5-5.8-5c0.8-0.3,1.4,0.8,2.2,0.6c0.4,0.5,1.3-0.1,1.6,0.5h0.3c0-0.3,0.1-0.7-0.1-1.2c0.4,0.5,1.4,0.8,1.3,1.7
							l0.4,0.2c0.5-2.2-2.3-2.9-2.7-4.8c2.5,0.1,2.9,2.7,4.1,4.3c0,0.9-1.1,1.8-0.7,2.6c0.6,0.5,1.1,0.5,1.7,0.5
							c1.2-0.7,1.3-1.8,2.6-2c0.6,0.6,1.2,1.4,2,1.7c0.6-0.5,0.7-1,0.6-1.7c0.3-0.1,0.6,0.1,0.7,0.4c0.1,0.1,0.3,0.4,0.4,0.1
							c0.6-0.4-0.2-0.9-0.2-1.3c-0.3-0.3-0.5-0.6-0.5-1c0.6-0.3,1,0.5,1.4,1c-0.1,1.5,2,2.6,1.7,4.2c0.3,0.6,1,0.6,1.6,0.5
							c0.8-0.8,1.5-0.3,2.4-0.4c0.3,0.4-0.3,0.3,0.1,0.7c0.3-0.5,0.9-0.7,0.4-1.2c-0.9-1.3-0.9-3.4-3-3.8c-0.5-1-1.3-2-2.6-1.9
							c-1.1-1.1-3.2-0.4-4-1.9c-1.5-0.1-2.4-1.5-3.9-1.4c-1.2-0.8-3.1,1.3-3.6-0.5c0.6-0.3,1-0.6,1.6-0.8c0.1-0.6-0.2-1.3,0.2-1.7
							c0.7,0.4,1.2-0.4,1.8-0.1c0.1-0.3-0.1-0.8,0.3-0.9c0.9-0.2,0.7,0.4,1.1,0.8c0,0.2-0.1,0.3-0.2,0.5c-0.3,0-0.5,0.1-0.6-0.2
							c-0.5,0.5-0.5,1.3-0.3,1.9c0.5,1,1.4,0.2,1.9,1c0.7-0.3,2,1,2.4-0.4c0.4-0.7-0.4-1.2-0.6-1.8c-1.4-0.4-1.6-1.9-3.2-2
							c-0.6-0.2-0.6-0.7-0.9-1.2c-1-0.2-2,0.1-2.6-1c-0.1-0.4,0.2-0.9,0.6-0.9c0.6,0.2,0.6,1.6,1.5,1.2c0.3-0.4,0.9-1.1,0.3-1.6
							c-0.3-0.2-0.3-0.5-0.5-0.7c-0.2,0.3,0.4,0.8,0,1.1c-0.5-0.3-1.2-0.6-1.2-1.1v-0.2c0.3-0.4,0.8,0.2,1,0c-1.4-1.8-4,0.8-4.9-1.5
							c-0.6-0.7-1.9-0.3-2.1-1.4c-1,0.3-0.8-0.9-1.3-1.3c0.1-1-0.8-1.3-1.1-2.1c-0.4-1.1-1.1-2.4-0.7-3.6c0.5-0.4,0.1-1.1,0-1.6
							c0.1-0.4-0.1-0.8,0.1-1.1c0.7,0.3,1.3,1,2.2,1.1c0.8,0.3,1.1,2.4,2.2,1.2c0.6,0.5,1.7,0.4,2,1.3c-0.2,0.7,0.2,1.3,0.5,1.9
							c0.2,0.2,0.5,0,0.8,0.1c0.2-1.4,1.9,0,2-1.4c0.4-0.2,1.1-0.4,1.2-0.9c0.9,0.1,1.2,1.4,2.3,1.3c0.2-0.8,1.5-0.7,2.2-0.5
							c0.8,2.3,3.4-0.3,4.2,2.1c-0.1,0.6,0.2,1.3,0.8,1.4c1.1-0.4,1.1-1.2,1-2.2c0-2.4-2.6-2.2-3.8-3.7c-1.1,0.1-1.5-1.6-2.7-1.1
							c-1-1.7-3.4-0.3-4.7-1.2c-1.4-0.4-3.3,0.3-4-1.3c-1.2,0.1-2-1-3.2-0.9c-0.2-0.1-0.4-0.3-0.5-0.4c0.1-0.4,0.3-0.9,0.7-0.9
							c0.5-0.3,1.3,0.8,1.6-0.2h0.4c0.4,0.5-0.6,0.9,0,1.3c0.3,0.1,1.1,0,1-0.6c0.5-1.8-2-2.2-3-3c-0.6-0.2-0.4,0.3-0.9,0.4
							c-0.9,0.2-1.1-0.5-1.4-1.1c-0.1-0.7-0.5-1-0.9-1.6c0.1-1.3-0.3-1.9,0.3-3.2c0-0.6-0.6-2.4-0.4-2.9c-0.1-0.7,0.2-1.6-0.3-2.2
							c0.3,1.5-1.4,2.2-0.7,3.8c-0.3,0.2-0.3,0.4-0.6,0.5l-0.2-0.9c-0.5,0.1-0.5,1.6-1.3,0.8c0.6-0.7-0.2-1.9,0.7-2.4
							c0.1-0.4-0.3-1.3,0.3-1.3h0.4c0,0.2-0.1,0.5,0.1,0.6c0.4-1-0.3-1.9-0.1-2.9c0.9-0.2,0.4,1.9,1.8,1.3c1,0.8-0.1,1.5,1,2.3
							c-0.7,1.7,0.6,3.1,1.6,4.5c1-0.1,1.9,1,2.9,1.2c0.3-0.5,0.2-1.4,1.1-0.9c0.6,1,1,2.1,2.3,2.2c-0.2,0.5,0.3,0.7,0.6,0.9
							c0.9-0.5,1.5,0.8,2.5,0.2c0.5,0.5,0.1,0.9,0,1.4c0.7,0.5,0.9,2.1,2.2,1.5c0.6-0.3,0.9-1,1-1.6c0.8,1,2.1-1,1.9,0.9
							c1,0.9,2.2,0.5,3.4,0.5c0.2,0.1,0.4,0.2,0.5,0.4c0,0.6-0.4,0.4-0.2,1c0.4,0.4,1.1,0.4,1.5,0.1c0.9-1.1,0.4-1.5,0.4-2.5
							c-2.3-2.4-5.2-5.5-8.9-5.5c-1.1-1.6-3.3-0.9-4.7-1.8c-2.8-1.1-4.7-2.8-7.2-4.6c-0.3-0.9-1.3-1.5-1.1-2.4
							c0.5-0.1,0.8-0.4,0.6-1c-0.5-0.5-1.3-0.8-1.5-1.5c0.6-0.4,1.3,0.4,1.8,0.9c1.1,0.8,1.2,2.5,2.7,3c0.3,1.6,2.2,0.8,3.1,1.2
							c0.6-0.2,1.5,0.4,1.8-0.4c-0.3-0.6-0.8-1.1-0.9-1.8c1.9,0.1,1.5,2.6,3.5,3c0.8-0.2,0.8-1.7,2.1-1c-0.1,0.6,0.4,1,0.9,1.3
							c0.8,0.2,0.8-0.7,1.4-1c0.1-1.1-0.1-1.7-0.8-2.6c-0.4-0.8-1.4-0.3-2-0.7c-1.8-1.4-4.1-1.7-6.6-1.6c-1.3-1-3.1-0.7-4.4-1.8
							c-0.7-0.7-2.3-0.8-2.5-2c-0.5-0.6-1.7-1.2-1.2-2.5c0.3-0.6,1.1-0.6,1.6-0.4c0.8,0.6,1,1.9,2.3,2.1c0.7-1.6-2.1-2.1-2.3-3.6
							c1.2,0.8,2.2,2,3.3,2.9c-0.1,1,0.9,1.7,1.7,2.2l0.8-0.9c0.5,0.4,1,1.4,1.8,1.9c0.6-0.3,2.2,0.6,2.2-0.8
							c0.1-1.2-1.4-1.5-0.9-2.9c-1.8-2.1-4.2-2.9-6.4-3.9c-1.2-1.4-2.7-2.9-3-4.7c-0.7-0.6-0.1-1-0.5-1.7c-0.1-0.3-0.1-1.3-0.4-1.5
							c-0.6,0-1.5,0.1-1.6,0.7c-0.1,5.2-6.2,7.3-10.4,9.3c-1.6,0.9-2.9,2.5-3.5,4.3c-0.1,0.6,0.1,1.2,0.6,1.6
							c0.2,0.2,0.5,0.1,0.8,0.1c0.4-0.8,1.7-0.8,2-1.7c0.8,1.3,1.5-0.5,2.1-0.5c0.4-1,2.1-0.3,1.8-1.6c0.2-0.5,0.7-0.9,1.2-0.7
							c0.1,0.4,0.2,0.9,0.7,0.9c0.3,0.1,0.7,0.7,1.1,0.9c1.1,0.3,1.4-1.9,2.4-0.5c0,1.3-0.6,2.9-2,3.4c-1.4,0.2-2.7,0.8-3.4,2.1
							c0.1,0.8-0.7,0.5-1,0.9c-2.4-0.3-3.3,1.9-5.2,2.4c-0.9,0.6-0.7,1.7-1,2.6c0.6,0.6,1.3,0.7,1.9,1.1c2-0.2,1.7-2.7,3.6-3.1
							c0.4-0.3,0.9,0,1,0.4c0,0.2,0,0.4-0.2,0.5c0.2,0.3,0.7-0.1,0.9,0.3c-0.8,0.7-0.2,2.9-1.8,2.3c-0.1-1.1,0.7-1.5,0.9-2.4
							c-0.6,0-1.4,0.1-1.8,0.7c0.1,1.4-1.4,2.6-2.6,3.1c-0.4,0.1-0.7,0.2-1,0.5c0.2,1.3-1.5,1.9-0.9,3.1c-0.2,0.1-0.1,0.4-0.1,0.6
							c0.8,1.4,1.3-0.4,2.1-0.5c0.9-0.6,0.6-2.5,2.2-2.2c1-1,1.8-1.6,2.7-2.5c0.4-0.5,0.1-1.4,0.2-1.9c0.5-0.6,0.7-1.5,1.6-1.7
							c0,0.5-0.6,1.1-0.9,1.7c0.1,0.4-0.1,0.8,0.1,1.1c0.7-0.3,1-0.8,1-1.5h0.6c0.5,0.5-0.9,0.8-0.1,1.3c0.8-0.5,1.9-0.7,2.5-1.5
							c0.3-0.1,0.4,0.1,0.7,0.2c0,0.8-1,1-0.7,1.9c-0.3,0.6-0.4,1-0.6,1.4l0,0.3c-0.3,0.3-0.2,0.8-0.5,1c-1.8,2.1-5.2,1.9-6.4,4.5
							c0.3,0.7,0.8-0.4,1.1,0.2c-0.3,1.3-1.9,0.6-2.6,1.4c-1.8-1.2-2.7,1.6-4.6,1.1c-0.8,0.6-2.5,0.8-2.1,2.3c0.6,1,1.5-0.5,2.3,0.3
							c-1.2,0.8-3,1.2-3.4,2.9c0.9,1.4-1.9,2.4-0.1,3.7c0.8,0.2,1.2-0.8,1.7-1.1c-0.9-1.5,1.1-1.1,1.3-2.3c0.7-0.3,1.4-1.5,2.3-1
							c0.3,0.5,0.9,0.7,1.4,0.5c1.3-0.4,2.5-0.9,3.6-1.5c3.1,0.4,2.7-4.2,5.6-3c-0.6,0.7-1,1.6-1.4,2.6c-1.8,1.5-2.6,4.5-5.2,5.4
							c-1.3,2-4.8,2.7-5.1,5.5c-0.1,0.7-0.7,0.9-1,1.4c-0.2,1.1-0.6,3,0.3,3.7c0.4,0.1,0.7-0.1,1-0.3c0.1-0.5-1.3-1.2-0.1-1.6
							c0.4,0,0.7,0.4,1.1,0.1c-0.1-0.6-0.9-0.9-0.8-1.5c0.8-0.4,1.2,0.6,1.4,1.2c0.9,0.4,1-1,1.6-1.3c0.4-1.1-1.6-0.9-0.9-2
							c0.8-0.5,2.1-0.5,2.8-1.3c0,0.2,0.3,0.4,0.4,0.6c0.8-0.2,1.1-1.5,2-0.7c0.5-0.3,1.1-0.1,1.6,0.1c0.5-0.7,0.7-1.5,1.5-2.2
							c-0.2-0.9,0.2-1.7,0.6-2.3c0.3-0.1,0.5,0.1,0.6,0.3c0.1,1.9-0.7,3.7-2.5,4.9c-0.2,2.1-2.3,2.5-3.2,4c-0.9,1.1-3.1,1.2-3.1,2.7
							c-1.1,1.1-2.5,1.1-3.9,1.4c-1.4,0.2-2.9-0.3-4,0.3c-1.6,0.5-3,1.3-3.7,2.9c-1.9,0.3-1.6,3.1-3.7,3.5c-0.8,1.7-2.7,3.3-1.4,5.3
							c-0.6,1.1-2.3,2.4-1.1,3.5c1.5,1.1,2-1.4,3.1-1.7c0.4-0.5,0.5-1.2,1-1.6l-0.1-0.1c0.7-0.7,1.4-1.2,2.1-1.7c0,0,0,0,0,0
							c0.4-0.6,1.8-0.5,1.3-1.7c-0.4-0.2-0.1-0.9-0.2-1.3c0.3-0.4,1.1,0,1.3-0.6c0.3-0.8-0.2-2,1.1-2.2c0.2-0.1,0.2,0.1,0.4,0.2
							c0.1,0.5-0.8,0.8-0.1,1.2c0.7-0.2,0.9-1,1.7-0.4c0.6-0.2,0.5-1,1-1c0.3,0.7-0.2,1.5,0.7,1.9c0.8,0,1.3-0.4,1.8-1
							c-0.2-0.7-0.2-1.2,0-1.9c1.2-0.5,0.1,1.1,1.1,1.3c0.9-0.1,1.6,0.7,2.4,0.4c1.8-1,0.3-2.9,1.6-4.1c0.3-0.9,0.2-2.3,1.2-2.7h0.4
							c-0.4,1-1.3,2.4-0.6,3.6c-0.1,0.5,0.5,0.9,0.9,0.5c0.4-1.4,2.7-1.7,2.1-3.6c0.8-0.8,0.5-2,0.6-3.1c-0.2-0.3-1.1-0.7-0.4-1.2
							c0.2-0.2,0.5-0.1,0.8-0.1c0.5,0.4,0.6,1,0.6,1.5c-0.4,0.5-0.2,1.3-0.2,1.7c0.3,0.3,0.7,0.4,0.9,0.7c0.1,0.9-1.2,0.9-1,1.8
							c0,0.9,0.3,2-0.7,2.6c0.1,1-0.6,1.6-0.7,2.5c-0.5,0.6-0.5,1.5-1.4,1.7c-1.4,0.1-2.2,1.5-3.5,1.8c-0.6,2.2-3.9,2.9-3.3,5.4
							c-1.4,1.2-1.5,2.6-3,3.6c0.2,0.6-0.4,1-0.2,1.6c-0.7,1.7-3.1,1.4-3.8,3.3c0.6,0.3,0.6,1,1.1,1.3c-0.1,0.8-1.7,1-0.9,2
							c0.2,0.9-0.7,1.5,0,2.2v0.3c0.6,0.3,0.9-0.5,1.1-0.7l0.2-0.8c0.6-0.1,0.6,0.5,1,0.6c0.7-0.3,0.6-1.3,1.2-1.4
							c0.9,0.6,1.7-0.2,2.5-0.5c0.1-0.2,0.2-0.4,0.3-0.6v-1.4c-0.1-0.1-0.2-0.1-0.3-0.2c-0.3-0.8-0.3-1.5-0.4-2.3
							c-0.2-0.5-0.4-0.5-0.3-1.1c1.4,0.8,2.2-1.3,3.3-1.5c0.2,0.1,0,0.4,0.1,0.5c-0.4,0.2-0.2,0.5-0.1,0.7c0.3,0.5,0.8,0.4,1.2,0.1
							c0.9-1.2,1.3-2.7,1.8-4.1c0-0.8-0.1-2.2,0.7-2.9c0.8-0.4,0.9-1.3,1.9-1.4c0.2-1.4,0-2.9,0.4-4.2h0.7c-0.6,1.4,0.8,4.2-1.3,4.8
							c-0.4,0.6-1.2,1-0.9,1.9c0.4,0.5,0.4,1.3,1.2,1.1c0.8-0.5,0.7-1.8,1.9-1.6c0,0.6,0.3,1.2,0.2,1.8c0.1,0.7,0.2,0.9,0.2,1.6l0,0
							c0.1,1.6-0.2,3.3,0.2,4.7c-0.5,1.4-0.3,3.1-0.8,4.5c1.1,1.1-0.7,2.4-0.1,3.7c-0.4,0.4-0.1,0.8-0.2,1.4l0.3,0.4l-0.1,3.7
							c-1.6,0.4-2.6,0.8-3.6,1.1c-3.2-0.9-10.7-6.1-13.3-5.7c0,0-0.7,0-1.1,0c-0.3,0-1.2-0.1-1.8-0.1c-0.7,0-1.3,0.3-1.6,0.4
							c-0.3,0.1-1.2,0.2-1.9,0.2c-0.7,0.1-1,0.1-1.2,0.2c-1,0.6-2.4,0.3-3.2,1.3c-1.9-0.7-3.4,0.5-4.8,1.4c-1.9-0.5-3.3-1.3-4.8-2.4
							c-1.3,0.3-1.8-1-3.1-0.6c-0.8-0.8-2,0.2-2.9-0.5c-1.1,0-2,0.6-3,0.8c-1.3,0.8-2.8,1.3-4.4,1.4c-0.8,0.8-1.1,1.1-1.6,1.2
							c-4.6-8.9-7.2-18.9-7.2-29.6c0-35.6,28.9-64.5,64.5-64.5c35.6,0,64.5,28.9,64.5,64.5c0,11-2.8,21.3-7.6,30.4
							C362.3,426.7,361.5,426.4,360.6,426.3z"/>
					</g>
					<g>
						<path class="st1" d="M305.6,304.8c-50.7,0-91.7,41-91.7,91.7c0,50.6,41,91.7,91.7,91.7c50.6,0,91.6-41,91.6-91.7
							C397.3,345.8,356.3,304.8,305.6,304.8z M305.6,486.6c-49.8,0-90.2-40.4-90.2-90.2c0-49.8,40.4-90.1,90.2-90.1
							c49.8,0,90.1,40.4,90.1,90.1C395.8,446.2,355.4,486.6,305.6,486.6z"/>
						<g>
							<polygon class="st1" points="309.1,301.1 305.7,299 302.3,301.1 305.7,303.2 							"/>
							<polygon class="st1" points="294.9,301.6 291.2,300.1 288.2,302.6 291.8,304.2 							"/>
							<polygon class="st1" points="280.9,304.3 277.1,303.3 274.4,306.3 278.3,307.2 							"/>
							<polygon class="st1" points="267.5,309 263.6,308.6 261.4,311.9 265.4,312.3 							"/>
							<polygon class="st1" points="254.9,315.6 251,315.8 249.3,319.4 253.3,319.2 							"/>
							<polygon class="st1" points="243.5,324 239.6,324.8 238.5,328.6 242.4,327.8 							"/>
							<polygon class="st1" points="233.4,334.1 229.7,335.5 229.2,339.4 233,338 							"/>
							<polygon class="st1" points="224.9,345.4 221.4,347.4 221.5,351.3 225,349.4 							"/>
							<polygon class="st1" points="218.3,358 215.1,360.4 215.8,364.3 218.9,361.9 							"/>
							<polygon class="st1" points="213.5,371.4 210.8,374.3 212,378.1 214.8,375.2 							"/>
							<polygon class="st1" points="210.8,385.6 208.5,388.8 210.3,392.3 212.6,389.1 							"/>
							<polygon class="st1" points="210.3,400.1 208.5,403.6 210.8,406.8 212.6,403.3 							"/>
							<polygon class="st1" points="211.9,414.2 210.6,417.9 213.4,420.8 214.6,417 							"/>
							<polygon class="st1" points="215.5,427.9 214.9,431.8 218,434.2 218.7,430.3 							"/>
							<polygon class="st1" points="221.2,440.9 221.1,444.9 224.6,446.8 224.7,442.8 							"/>
							<polygon class="st1" points="228.8,453 229.3,456.9 233,458.3 232.5,454.3 							"/>
							<polygon class="st1" points="238.1,463.8 239.1,467.6 243,468.4 241.9,464.6 							"/>
							<polygon class="st1" points="248.8,473.1 250.5,476.7 254.4,476.9 252.8,473.3 							"/>
							<polygon class="st1" points="260.8,480.7 263,484 266.9,483.6 264.8,480.3 							"/>
							<polygon class="st1" points="273.8,486.4 276.5,489.4 280.3,488.4 277.7,485.5 							"/>
							<polygon class="st1" points="287.6,490.2 290.6,492.7 294.3,491.2 291.2,488.6 							"/>
							<polygon class="st1" points="301.9,491.7 305.3,493.8 308.7,491.7 305.3,489.7 							"/>
							<polygon class="st1" points="316.3,491.2 320,492.7 323,490.2 319.4,488.7 							"/>
							<polygon class="st1" points="330.3,488.6 334.1,489.6 336.8,486.6 332.9,485.6 							"/>
							<polygon class="st1" points="343.7,483.9 347.7,484.3 349.8,481 345.9,480.6 							"/>
							<polygon class="st1" points="356.3,477.3 360.2,477.1 361.9,473.5 357.9,473.7 							"/>
							<polygon class="st1" points="367.7,468.8 371.6,468 372.7,464.2 368.8,465 							"/>
							<polygon class="st1" points="377.8,458.8 381.5,457.4 382,453.5 378.3,454.8 							"/>
							<polygon class="st1" points="386.3,447.4 389.8,445.5 389.7,441.5 386.2,443.4 							"/>
							<polygon class="st1" points="393,434.8 396.1,432.4 395.4,428.5 392.3,430.9 							"/>
							<polygon class="st1" points="397.7,421.4 400.4,418.5 399.1,414.8 396.4,417.6 							"/>
							<polygon class="st1" points="400.4,407.3 402.7,404 400.9,400.5 398.6,403.7 							"/>
							<polygon class="st1" points="400.9,392.8 402.7,389.3 400.5,386 398.6,389.6 							"/>
							<polygon class="st1" points="399.3,378.7 400.6,374.9 397.9,372.1 396.6,375.8 							"/>
							<polygon class="st1" points="395.7,364.9 396.3,361 393.2,358.6 392.5,362.5 							"/>
							<polygon class="st1" points="390,351.9 390.1,347.9 386.6,346 386.5,350 							"/>
							<polygon class="st1" points="382.4,339.9 382,335.9 378.2,334.6 378.7,338.5 							"/>
							<polygon class="st1" points="373.2,329.1 372.1,325.3 368.2,324.5 369.3,328.3 							"/>
							<polygon class="st1" points="362.4,319.8 360.8,316.2 356.8,316 358.4,319.6 							"/>
							<polygon class="st1" points="350.4,312.2 348.2,308.9 344.3,309.2 346.4,312.6 							"/>
							<polygon class="st1" points="337.3,306.4 334.7,303.5 330.9,304.4 333.5,307.4 							"/>
							<polygon class="st1" points="323.6,302.7 320.6,300.2 316.9,301.7 320,304.2 							"/>
							<polygon class="st1" points="316.2,301.6 312.9,299.3 309.4,301.1 312.6,303.4 							"/>
							<polygon class="st1" points="301.9,301.1 298.4,299.3 295.2,301.6 298.7,303.4 							"/>
							<polygon class="st1" points="287.8,302.7 284.1,301.4 281.2,304.2 285,305.4 							"/>
							<polygon class="st1" points="274.1,306.4 270.2,305.7 267.8,308.8 271.7,309.5 							"/>
							<polygon class="st1" points="261.1,312 257.1,312 255.2,315.4 259.2,315.5 							"/>
							<polygon class="st1" points="249.1,319.6 245.1,320.1 243.8,323.8 247.7,323.3 							"/>
							<polygon class="st1" points="238.3,328.9 234.5,330 233.7,333.9 237.5,332.8 							"/>
							<polygon class="st1" points="228.9,339.6 225.3,341.2 225.1,345.2 228.7,343.6 							"/>
							<polygon class="st1" points="221.4,351.7 218,353.8 218.4,357.8 221.7,355.6 							"/>
							<polygon class="st1" points="215.7,364.7 212.7,367.3 213.7,371.1 216.6,368.5 							"/>
							<polygon class="st1" points="211.9,378.6 209.3,381.6 210.9,385.3 213.4,382.2 							"/>
							<polygon class="st1" points="210.3,393 208.2,396.4 210.3,399.8 212.3,396.4 							"/>
							<polygon class="st1" points="210.8,407.2 209.3,410.8 211.8,413.8 213.3,410.2 							"/>
							<polygon class="st1" points="213.4,421.1 212.5,425 215.5,427.6 216.4,423.7 							"/>
							<polygon class="st1" points="218.1,434.6 217.8,438.5 221.1,440.7 221.5,436.7 							"/>
							<polygon class="st1" points="224.8,447.1 225,451 228.6,452.7 228.4,448.7 							"/>
							<polygon class="st1" points="233.2,458.5 234,462.4 237.8,463.5 237,459.6 							"/>
							<polygon class="st1" points="243.3,468.7 244.7,472.4 248.6,472.9 247.2,469.2 							"/>
							<polygon class="st1" points="254.7,477.1 256.6,480.6 260.5,480.5 258.6,477 							"/>
							<polygon class="st1" points="267.2,483.8 269.6,487 273.5,486.3 271.1,483.1 							"/>
							<polygon class="st1" points="280.7,488.6 283.5,491.3 287.3,490 284.4,487.3 							"/>
							<polygon class="st1" points="294.9,491.2 298.1,493.5 301.6,491.7 298.4,489.4 							"/>
							<polygon class="st1" points="309.2,491.7 312.8,493.6 316,491.3 312.5,489.5 							"/>
							<polygon class="st1" points="323.4,490.2 327.1,491.4 330,488.7 326.2,487.4 							"/>
							<polygon class="st1" points="337.1,486.5 341,487.2 343.4,484 339.5,483.3 							"/>
							<polygon class="st1" points="350.1,480.8 354.1,480.9 356,477.4 352,477.3 							"/>
							<polygon class="st1" points="362.2,473.2 366.1,472.7 367.5,469 363.5,469.5 							"/>
							<polygon class="st1" points="372.9,464 376.8,462.9 377.5,459 373.7,460.1 							"/>
							<polygon class="st1" points="382.3,453.3 385.9,451.6 386.1,447.7 382.5,449.3 							"/>
							<polygon class="st1" points="389.9,441.2 393.2,439 392.8,435.1 389.5,437.3 							"/>
							<polygon class="st1" points="395.6,428.2 398.5,425.5 397.6,421.7 394.6,424.3 							"/>
							<polygon class="st1" points="399.3,414.3 401.9,411.2 400.3,407.6 397.8,410.6 							"/>
							<polygon class="st1" points="400.9,399.9 403,396.5 400.9,393.1 398.9,396.5 							"/>
							<polygon class="st1" points="400.4,385.7 401.9,382 399.4,379 397.9,382.6 							"/>
							<polygon class="st1" points="397.8,371.7 398.8,367.9 395.8,365.3 394.8,369.1 							"/>
							<polygon class="st1" points="393.1,358.3 393.5,354.4 390.1,352.2 389.7,356.2 							"/>
							<polygon class="st1" points="386.4,345.7 386.2,341.8 382.6,340.1 382.8,344.1 							"/>
							<polygon class="st1" points="378,334.3 377.2,330.4 373.4,329.4 374.2,333.2 							"/>
							<polygon class="st1" points="367.9,324.2 366.6,320.5 362.6,320 364,323.7 							"/>
							<polygon class="st1" points="356.5,315.7 354.6,312.3 350.7,312.4 352.6,315.8 							"/>
							<polygon class="st1" points="344,309 341.6,305.9 337.7,306.6 340.1,309.7 							"/>
							<polygon class="st1" points="330.5,304.3 327.7,301.5 323.9,302.8 326.8,305.6 							"/>
						</g>
						<path class="st1" d="M204,396.4c0,56,45.6,101.6,101.6,101.6c56,0,101.6-45.6,101.6-101.6c0-56-45.6-101.6-101.6-101.6
							C249.6,294.8,204,340.4,204,396.4z M206.7,396.4c0-54.6,44.4-99,99-99c54.5,0,99,44.4,99,99c0,54.6-44.4,99-99,99
							C251,495.4,206.7,451,206.7,396.4z"/>
					</g>
					<g>
						<g>
							<g>
								<path class="st1" d="M232.8,417.6c0.6-0.1,0.7-0.6,0.6-1.1c-0.1-0.6-0.3-1.2-0.5-1.8c-0.3-0.6-0.8-1-1.2-1.1
									c-0.4-0.1-0.9-0.1-1.2-0.1l-0.1-0.4c0.9-0.1,1.8-0.1,2.7-0.2c0.3,1.2,0.6,2.5,1,3.7c0.3,1.2,0.7,2.5,1.1,3.7l-0.5,0.1
									l-0.1-0.2c-0.1-0.5-0.4-1-1.3-0.8l-7.8,2.2c-0.8,0.2-0.7,0.8-0.6,1.3l0.1,0.2l-0.5,0.1c-0.2-0.7-0.3-1.5-0.5-2.3
									c-0.2-0.7-0.5-1.4-0.7-2.1l0.5-0.1l0.1,0.3c0.2,0.5,0.3,1,1.1,0.7L232.8,417.6z"/>
								<path class="st1" d="M232.5,412.2l0-0.2c-0.1-0.5-0.3-1-1.1-0.9l-8.2,1.3c-0.8,0.1-0.8,0.7-0.7,1.2l0,0.2l-0.5,0.1
									c-0.1-0.9-0.3-2.4-0.5-3.6c-0.2-1.2-0.5-2.7-0.6-3.7c0.7-0.1,1.7-0.2,2.4-0.4l0.2,0.4c-1,0.2-1.8,0.5-1.6,2.1l0.3,2l4.1-0.6
									l-0.3-1.7c-0.1-0.9-0.7-1-1.6-0.9l-0.1-0.4c0.6-0.1,1.2-0.1,1.8-0.2c0.6-0.1,1.2-0.2,1.8-0.3l0.2,0.4
									c-0.9,0.2-1.5,0.4-1.4,1.4l0.3,1.7l3.6-0.6c1-0.2,0.9-1,0.7-1.9c-0.3-1.7-0.5-2.5-2.4-2.6l0.1-0.4c0.9,0.1,1.7,0.1,2.6,0.1
									c0.1,0.9,0.3,2.6,0.5,3.9c0.2,1.3,0.5,3,0.7,3.8L232.5,412.2z"/>
								<path class="st1" d="M230,400.7c0.6,0,0.8-0.5,0.8-0.9c0-0.6,0-1.3-0.1-1.9c-0.1-0.6-0.5-1.1-0.9-1.4
									c-0.3-0.2-0.8-0.3-1.1-0.4l0-0.4c0.9,0.1,1.8,0.3,2.7,0.4c0.1,1.3,0.1,2.5,0.1,3.8c0.1,1.3,0.2,2.5,0.2,3.8l-0.5,0l0-0.2
									c0-0.5-0.1-1.1-1.1-1l-8.1,0.3c-0.8,0-0.9,0.6-0.9,1.1l0,0.2l-0.5,0c0-0.8,0-1.5,0-2.3c0-0.7-0.1-1.5-0.2-2.2l0.5,0l0,0.3
									c0,0.6,0.1,1,0.9,1L230,400.7z"/>
								<path class="st1" d="M234.3,375.5c-0.5,0-1-0.1-1.6-0.3l-7-1.6c-1.8-0.4-1.8-1.1-1.7-1.7l0.1-0.2l-0.5-0.1
									c-0.1,0.6-0.2,1.2-0.3,1.8c-0.2,0.7-0.4,1.3-0.5,2l0.5,0.1l0.1-0.3c0.1-0.4,0.5-1.2,1.7-0.9l5.8,1.3l0,0l-9.2,4.6
									c-0.1,0.4-0.1,0.8-0.2,1.3c-0.1,0.5-0.3,1.1-0.4,1.6l0.5,0.1l0-0.2c0.1-0.7,0.8-1.2,1.7-1l6.7,1.5c1.1,0.2,1.7,0.6,1.7,1.3
									c0,0.1,0,0.6,0,0.6c0,0.5-0.3,0.8-0.7,0.9c-0.5,0.2-1.1,0.3-1.6,0.4l-8.5,2c-0.1,0-0.3,0.1-0.4,0.1c0,0,0,0.1-0.1,0.1
									c0,0,0,0.1,0,0.1c0.2,0.3,0.4,0.9,0.6,1.4c0.6,0.1,1.3,0.5,1.9,0.7l7,2.9c0.6,0.3,1,0.8,0.9,1.3l0,0.1l0.5,0
									c0-0.5,0-1,0.1-1.6c0.1-0.6,0.1-1.2,0.2-1.8l-0.5,0l0,0.2c0,0.5-0.2,1.1-0.6,1c-0.3,0-0.7-0.2-1.2-0.4l-1.6-0.6l0.3-3.3
									l1.9-0.4c0.5-0.1,1-0.2,1.2-0.2c0.4,0,0.4,0.6,0.4,0.9l0,0.2l0.5,0c0-0.7,0-1.5,0.1-2.2c0.1-0.6,0.2-1.8,0.2-1.8
									c0.1-0.7,0.2-1.3,0.3-2c0.1-0.6,0.3-1.2,0.5-1.8l-0.5-0.1l-0.1,0.2c-0.2,1.1-0.8,1.2-2.1,0.9l-6.5-1.5l10.5-5.3L234.3,375.5
									z M226.7,392l-4.3-1.7v0l4.6-1L226.7,392z"/>
								<path class="st1" d="M234.2,374.1l0.1-0.2c0.2-0.5,0.3-1-0.4-1.3l-7.7-3c-0.8-0.3-1,0.2-1.2,0.7l-0.1,0.2l-0.4-0.2
									c0.2-0.4,0.6-1.3,0.9-2.1c0.3-0.9,0.6-1.6,0.8-2.2c1.3-3.3,4.2-4.6,7.2-3.3c2.9,1.2,4.4,4.4,3.2,7.1c-0.2,0.6-0.7,1.5-1,2.4
									c-0.4,0.9-0.7,1.9-0.8,2.3L234.2,374.1z M234.1,370.6c1,0.4,1.3,0,1.7-0.9c0.9-2.3-0.7-4.3-3-5.2c-3.9-1.5-5.6-0.1-6.4,2
									c-0.1,0.3-0.2,0.7-0.3,1L234.1,370.6z"/>
								<path class="st1" d="M235.9,351.6c-0.9-0.4-2.1-0.4-2.6,0.4c-0.6,1-0.3,1.9,0.8,2.6c2.3,1.4,3.8-2.8,7.1-0.8
									c1.9,1.1,2,3.1,1,4.7c-0.4,0.7-1.1,1.2-1.8,1.6c-0.7-0.4-1.4-0.7-2.2-1l0.2-0.4c1.2,0.5,2.6,0.6,3.3-0.6
									c0.5-0.9,0.4-1.9-0.6-2.5c-2.4-1.5-3.9,2.7-7.1,0.7c-1.8-1.1-2.1-2.8-1.1-4.4c0.2-0.4,1-1.3,1.3-1.7c0.6,0.4,1.3,0.7,2,1.1
									L235.9,351.6z"/>
								<path class="st1" d="M236.7,347.6c-0.7,0.9-0.5,1.1,0.3,1.9l-0.3,0.3c-0.3-0.3-0.6-0.6-1-1c-0.3-0.3-0.7-0.6-1-0.9l0.2-0.3
									c0.4,0.2,0.7-0.1,0.9-0.4l4.6-6c0.2-0.3,0.5-0.6,0.1-0.9l0.3-0.2c0.3,0.3,0.6,0.6,0.9,0.9c0.3,0.3,0.7,0.5,1,0.8l-0.1,0.5
									c-0.5-0.3-1.3-0.8-1.8-0.1l-1.5,1.9l6.7,5.1c0.9,0.7,1.4,0.4,1.8-0.1l0.2-0.2l0.4,0.3c-0.4,0.5-1,1.2-1.5,1.8
									c-0.5,0.7-1.1,1.5-1.4,2l-0.4-0.3l0.2-0.2c0.5-0.6,0.7-1-0.3-1.8l-6.7-5.2L236.7,347.6z"/>
								<path class="st1" d="M263.6,335.4c-0.3-0.3-0.7-0.8-1-1.2l-4.4-5.7c-1.2-1.5-0.7-2-0.2-2.4l0.2-0.1l-0.3-0.4
									c-0.5,0.4-0.9,0.8-1.4,1.2c-0.5,0.4-1.1,0.8-1.6,1.2l0.3,0.4l0.2-0.2c0.3-0.3,1.1-0.6,1.9,0.4l3.7,4.7l0,0l-10-2.3
									c-0.3,0.3-0.6,0.6-1,0.8c-0.4,0.4-0.9,0.6-1.4,1l0.3,0.4l0.1-0.1c0.5-0.4,1.4-0.4,1.9,0.3l4.1,5.2c0.8,1,1,1.8,0.2,2.4
									l-0.1,0.1c-0.3,0.3-0.7,0.4-1.1,0.3c-0.5-0.2-1-0.5-1.5-0.7l-7.8-3.8c-0.1-0.1-0.3-0.1-0.4-0.2c-0.1,0-0.1,0-0.1,0
									c0,0,0,0.1-0.1,0.1c0,0.3-0.2,1-0.4,1.4c0.4,0.5,0.7,1.2,1,1.7l3.7,6.8c0.3,0.6,0.3,1.2-0.1,1.6l-0.1,0.1l0.3,0.3
									c0.3-0.4,0.6-0.8,1-1.2c0.4-0.4,0.8-0.8,1.2-1.3l-0.3-0.3l-0.1,0.1c-0.3,0.4-0.8,0.8-1.1,0.5c-0.2-0.2-0.4-0.7-0.7-1.1
									l-0.9-1.5l2.3-2.4l1.7,0.9c0.5,0.2,0.9,0.4,1,0.6c0.3,0.3-0.1,0.7-0.3,1l-0.1,0.1l0.3,0.3c0.5-0.6,1-1.1,1.5-1.6
									c0.4-0.5,0.9-0.9,1.3-1.3c0.5-0.4,1-0.9,1.5-1.3c0.5-0.4,1-0.7,1.5-1.1l-0.3-0.4l-0.2,0.1c-0.9,0.7-1.4,0.5-2.2-0.6l-4-5.1
									l11.5,2.5L263.6,335.4z M247.2,343.3l-2.3-4.1l0,0l4.1,2.1L247.2,343.3z"/>
								<path class="st1" d="M264.2,327.6l1.7-1c0.6-0.4,0.5-0.9,0.1-1.6l0.4-0.2c0.3,0.5,0.5,1,0.8,1.5c0.3,0.6,0.7,1.1,1,1.6
									l-0.4,0.2c-0.4-0.8-1-1.2-1.8-0.7l-1.6,0.9l2,3.5c0.5,0.8,1,0.4,1.7,0.1l0.2-0.1l0.2,0.4c-0.6,0.3-1.5,0.8-2.2,1.2
									c-0.7,0.4-1.4,0.9-1.9,1.2l-0.2-0.4l0.2-0.1c0.5-0.3,0.9-0.6,0.5-1.3l-4.2-7.1c-0.4-0.7-1-0.5-1.4-0.2l-0.2,0.1L259,325
									c0.8-0.5,2.1-1.2,3.1-1.8c1-0.6,2.3-1.5,3.2-2c0.3,0.6,0.9,1.5,1.3,2.1l-0.3,0.3c-0.6-0.9-1.2-1.4-2.2-0.8l-2,1.2
									L264.2,327.6z"/>
								<path class="st1" d="M271.8,318c2.8-1.2,5.9-0.3,7.3,2.8c1.4,3.3,0.2,6.5-2.6,7.7c-2.8,1.2-5.9,0-7.3-3.1
									C267.9,322.4,269,319.2,271.8,318z M276.3,327.8c2.6-1.1,2-3.8,1.1-5.9c-0.9-2.1-3.1-4.2-5.3-3.3c-2.3,1-2.1,3.6-1.2,5.5
									C271.9,326.7,274.1,328.8,276.3,327.8z"/>
								<path class="st1" d="M300.8,316.7c-0.4-3.3-2.9-5.3-6.4-4.9c-0.6,0.1-1.4,0.2-2.3,0.4c-0.9,0.1-1.9,0.2-2.3,0.2l0.1,0.5
									l0.2,0c0.5-0.1,1.1-0.1,1.2,0.7l1,8.4c0.1,0.8-0.4,1-0.9,1l-0.2,0h0c-0.7,0.1-1,0-1.6-0.5l-3.5-3.5c1-0.8,1.6-1.8,1.2-3.2
									c-0.6-2.2-2.3-2.3-4.1-1.8c-0.7,0.2-1.4,0.5-2.2,0.7c-0.9,0.2-1.8,0.4-2.2,0.5l0.2,0.5l0.2-0.1c0.4-0.1,1-0.2,1.3,0.9l2.1,8
									c0.1,0.6-0.3,1-0.8,1.1l-0.3,0.1l0.1,0.5c0.7-0.2,1.3-0.4,2-0.6c0.8-0.2,1.6-0.4,2.4-0.6l-0.1-0.5l-0.3,0.1
									c-0.6,0.2-1.2,0.3-1.5-0.9l-0.9-3.5l0.9-0.2c1.4,1.5,2.8,3.1,4.3,4.4c0.4-0.1,0.9-0.3,1.3-0.4c0.4-0.1,0.9-0.2,1.3-0.3l0,0
									c0.4,0,1.5-0.3,2.4-0.4c1-0.1,2-0.2,2.6-0.3C299,322.7,301.1,319.8,300.8,316.7z M283.7,319.4l-0.7,0.2l-1.2-4.6
									c0.2-0.1,0.3-0.2,0.8-0.3c1.3-0.3,2.3,0.3,2.7,1.7C285.7,318.2,285.1,319,283.7,319.4z M295.6,322.3c-1,0.1-1.5,0-1.6-1.1
									l-1.1-8.7c0.3-0.1,0.6-0.2,1-0.2c2.3-0.3,4.4,0.7,4.9,4.8C299.1,319.7,298.1,322,295.6,322.3z"/>
								<path class="st1" d="M307.9,312.3c0-0.8-0.6-0.9-1.2-0.9h-0.2l0-0.5c0.6,0,1.5,0.1,2.3,0.1c0.7,0,1.6,0,2.3,0l0,0.5l-0.2,0
									c-0.5,0-1,0.1-1,0.8l-0.3,9.5c-0.1,1.8-1.3,3.8-3.2,3.8c-0.9,0-1.7-0.4-1.7-1.4c0-0.4,0.4-0.9,0.9-0.9
									c1.2,0,0.4,1.5,1.3,1.6c0.5,0,0.6-0.8,0.6-1.2L307.9,312.3z"/>
								<path class="st1" d="M313.5,313c0.1-1.1-0.4-1.2-1-1.3l-0.2,0l0.1-0.5c0.6,0.1,1.4,0.3,2.3,0.4c0.9,0.1,1.6,0.2,2.2,0.2
									l-0.1,0.5l-0.2,0c-0.6-0.1-1.2-0.1-1.3,1l-0.8,5.5c-0.3,2,0.2,3.5,2.3,3.8c1.9,0.3,2.9-0.9,3.2-3l0.8-5.4
									c0.1-1.1-0.4-1.2-0.9-1.3l-0.3,0l0.1-0.5c0.6,0.1,1.2,0.2,1.7,0.3c0.6,0.1,1.1,0.1,1.7,0.2l-0.1,0.5l-0.3,0
									c-0.4-0.1-0.9-0.1-1.1,1l-0.7,5.1c-0.5,3.5-2.4,4.3-4.5,4c-2.8-0.4-4.1-1.7-3.8-4.5L313.5,313z"/>
								<path class="st1" d="M331.1,323.3L331.1,323.3l1.7-5.7c0.4-1.3-0.4-1.7-0.8-1.8l-0.3-0.1l0.1-0.5c0.6,0.2,1.3,0.5,1.9,0.7
									c0.6,0.2,1.2,0.3,1.7,0.4l-0.1,0.5l-0.2-0.1c-0.6-0.2-1.3-0.2-1.8,1.6l-2,6.9c-0.2,0.5-0.3,1.1-0.4,1.6l-0.5-0.2l-4.6-10.8
									l-1.8,6.3c-0.4,1.3-0.3,1.8,0.8,2.2l0.2,0.1l-0.1,0.5c-0.6-0.2-1.2-0.4-1.8-0.6c-0.6-0.2-1.3-0.3-1.9-0.5l0.1-0.5l0.2,0.1
									c1,0.3,1.5-0.3,1.8-1.6l1.9-6.4c0.2-0.8-0.2-1.5-0.9-1.7l-0.2-0.1l0.1-0.5c0.5,0.2,1.1,0.4,1.6,0.5c0.4,0.1,0.8,0.2,1.2,0.3
									L331.1,323.3z"/>
								<path class="st1" d="M332.4,326.6l0.2,0.1c0.5,0.2,1,0.4,1.3-0.4l3.2-7.8c0.3-0.7-0.2-1-0.7-1.2l-0.2-0.1l0.2-0.4
									c0.5,0.2,1.3,0.6,2,0.9c0.7,0.3,1.5,0.5,2.2,0.8l-0.2,0.4l-0.2-0.1c-0.5-0.2-1-0.3-1.3,0.4l-3.2,7.8c-0.3,0.8,0.1,1,0.6,1.2
									l0.2,0.1l-0.2,0.4c-0.6-0.3-1.4-0.7-2.1-0.9c-0.6-0.3-1.5-0.5-2-0.8L332.4,326.6z"/>
								<path class="st1" d="M346.5,321.3c2.7,1.5,3.9,4.5,2.3,7.5c-1.7,3.2-5,4.2-7.7,2.7c-2.7-1.5-3.7-4.6-2.1-7.6
									C340.6,321,343.8,319.9,346.5,321.3z M341.5,330.9c2.5,1.4,4.2-0.8,5.3-2.8c1.1-2,1.4-5-0.7-6.2c-2.2-1.2-4.1,0.6-5.1,2.4
									C339.7,326.8,339.4,329.8,341.5,330.9z"/>
								<path class="st1" d="M352.4,327c0.7-0.9,0.2-1.3-0.1-1.6l-0.2-0.1l0.3-0.4c0.4,0.3,1,0.9,1.8,1.4c0.7,0.5,1.3,0.9,1.9,1.3
									c1.5,1.1,2.5,2.5,1.1,4.3c-0.8,1.2-2.1,1.3-3.3,1l-0.4,4.7c-0.1,0.8,0,1.1,0.6,1.6l-0.3,0.4c-0.4-0.3-0.7-0.6-1.1-0.9
									c-0.4-0.3-0.8-0.5-1.1-0.8c0-1.9,0.3-3.9,0.6-5.9l-0.8-0.6l-2,2.7c-0.7,1-0.3,1.3,0.2,1.7l0.2,0.1l-0.3,0.4
									c-0.7-0.5-1.3-1-2-1.5c-0.6-0.4-1.1-0.8-1.7-1.2l0.3-0.4l0.2,0.2c0.4,0.3,1,0.4,1.3-0.1L352.4,327z M351.7,331.1l0.6,0.4
									c1.2,0.9,2.2,0.8,3.3-0.7c0.8-1.1,0.7-2.3-0.3-3.1c-0.4-0.3-0.5-0.3-0.7-0.4L351.7,331.1z"/>
								<path class="st1" d="M364.4,336.7c0.8-0.8,0.5-1.2,0.1-1.6l-0.1-0.1l0.3-0.3c0.4,0.5,0.9,1.1,1.5,1.8
									c0.6,0.6,1.1,1.1,1.5,1.5l-0.3,0.3l-0.1-0.1c-0.4-0.4-0.8-0.9-1.6-0.1l-4,3.7c-1.5,1.4-2,2.8-0.6,4.3
									c1.3,1.4,2.8,1.1,4.4-0.3l4-3.6c0.9-0.8,0.5-1.2,0.2-1.6l-0.2-0.2l0.4-0.3c0.4,0.4,0.7,0.9,1.2,1.3c0.4,0.4,0.8,0.8,1.2,1.2
									l-0.3,0.3l-0.2-0.2c-0.3-0.3-0.7-0.7-1.5,0.1l-3.7,3.4c-2.6,2.4-4.5,1.9-6,0.3c-1.9-2.1-2.1-3.9-0.1-5.9L364.4,336.7z"/>
								<path class="st1" d="M371.7,356L371.7,356l4.9-3.3c1.1-0.7,0.8-1.5,0.5-1.9l-0.2-0.3l0.4-0.3c0.4,0.6,0.7,1.1,1.1,1.7
									c0.4,0.5,0.7,0.9,1.1,1.4l-0.4,0.3l-0.1-0.2c-0.3-0.5-0.8-1-2.4,0.1l-5.9,4.1c-0.5,0.3-0.9,0.6-1.3,1l-0.3-0.4l3.3-11.3
									l-5.4,3.7c-1.2,0.8-1.4,1.2-0.8,2.2l0.1,0.2l-0.4,0.3c-0.4-0.5-0.6-1.1-1-1.6c-0.4-0.5-0.8-1-1.2-1.6l0.4-0.3l0.1,0.2
									c0.6,0.8,1.3,0.7,2.4,0l5.5-3.7c0.7-0.5,0.8-1.4,0.4-1.9l-0.1-0.1l0.4-0.3c0.3,0.5,0.6,1,0.9,1.4c0.2,0.3,0.5,0.7,0.8,1
									L371.7,356z"/>
								<path class="st1" d="M370.7,359.4l0.1,0.2c0.2,0.5,0.6,0.9,1.3,0.5l7.3-3.9c0.7-0.4,0.5-0.9,0.3-1.4l-0.1-0.2l0.4-0.2
									c0.3,0.5,0.6,1.3,1,1.9c0.3,0.6,0.8,1.4,1.1,2l-0.4,0.2l-0.1-0.2c-0.3-0.5-0.6-0.9-1.3-0.5l-7.3,3.9
									c-0.7,0.4-0.5,0.9-0.3,1.4l0.1,0.2l-0.4,0.2c-0.3-0.6-0.7-1.4-1-2.1c-0.3-0.6-0.8-1.4-1-1.9L370.7,359.4z"/>
								<path class="st1" d="M383.9,363.4l-0.1-0.3c-0.2-0.5-0.5-0.6-0.7-0.5c-0.1,0-0.3,0.2-0.4,0.3l-5.5,5l0,0l7-0.4
									c0.5,0,0.8-0.1,0.9-0.2c0.4-0.2,0.3-0.6,0.2-1.1l-0.1-0.2l0.5-0.2c0.2,0.5,0.3,1,0.6,1.6c0.2,0.4,0.4,0.8,0.6,1.2l-0.4,0.2
									l0-0.1c-0.1-0.3-0.3-0.5-0.8-0.5c-0.2,0-6.4,0.2-9.2,0.4c-0.6,0-1.2,0-1.7,0.1l-0.2-0.5l7.7-7.2c0.6-0.5,0.6-0.9,0.4-1.5
									l-0.1-0.1l0.5-0.2c0.3,0.7,0.5,1.4,0.8,2.1c0.3,0.7,0.7,1.6,0.9,2L383.9,363.4z"/>
								<path class="st1" d="M376.7,372.5l0.1,0.2c0.1,0.5,0.4,1,1.1,0.8l8-2.2c0.8-0.2,0.7-0.8,0.6-1.3l0-0.2l0.5-0.1
									c0.2,0.9,0.6,2.3,0.9,3.5c0.3,1.2,0.8,2.6,1.1,3.6c-0.7,0.2-1.7,0.5-2.3,0.7l-0.2-0.4c1-0.3,1.7-0.7,1.3-2.2l-0.6-1.9
									l-4,1.1l0.5,1.7c0.2,0.8,0.8,0.9,1.6,0.7l0.1,0.4c-0.6,0.1-1.2,0.3-1.8,0.5c-0.6,0.2-1.2,0.3-1.7,0.5l-0.2-0.4
									c0.9-0.3,1.5-0.5,1.2-1.5l-0.5-1.7l-3.5,1c-1,0.3-0.8,1.1-0.5,2c0.5,1.7,0.8,2.4,2.6,2.3l0,0.4c-0.9,0-1.7,0.1-2.6,0.2
									c-0.2-0.9-0.6-2.5-1-3.8c-0.3-1.3-0.9-2.9-1.1-3.7L376.7,372.5z"/>
								<path class="st1" d="M387.9,380.7c1.2-0.2,1.1-0.7,1-1.2l0-0.3l0.4-0.1c0.1,0.5,0.1,1.4,0.3,2.2c0.1,0.9,0.3,1.5,0.4,2.3
									c0.3,1.8,0,3.5-2.2,3.8c-1.4,0.2-2.4-0.5-3-1.6l-3.6,3.1c-0.6,0.5-0.8,0.8-0.7,1.5l-0.5,0.1c-0.1-0.5-0.1-0.9-0.1-1.4
									c-0.1-0.5-0.2-0.9-0.3-1.4c1.4-1.3,3-2.5,4.6-3.7l-0.1-0.9l-3.3,0.5c-1.2,0.2-1.2,0.7-1.1,1.4l0,0.3l-0.5,0.1
									c-0.1-0.8-0.2-1.7-0.3-2.5c-0.1-0.7-0.3-1.4-0.4-2.1l0.5-0.1l0,0.3c0.1,0.5,0.4,1,1,0.9L387.9,380.7z M384.6,383.1l0.1,0.7
									c0.2,1.4,0.9,2.1,2.8,1.9c1.4-0.2,2.2-1.2,2-2.4c-0.1-0.4-0.1-0.6-0.2-0.8L384.6,383.1z"/>
								<path class="st1" d="M388.7,395.9c1-0.2,2-0.8,2-1.8c0-1.1-0.8-1.8-2-1.7c-2.6,0.1-1.7,4.4-5.5,4.6
									c-2.2,0.1-3.4-1.6-3.4-3.4c0-0.8,0.3-1.6,0.6-2.3c0.8-0.1,1.6-0.2,2.4-0.3l0.1,0.4c-1.4,0.2-2.5,0.9-2.4,2.3
									c0,1,0.7,1.8,1.9,1.7c2.8-0.1,1.8-4.3,5.6-4.5c2.1-0.1,3.3,1.2,3.4,3.1c0,0.4-0.1,1.6-0.2,2.1c-0.8,0-1.5,0.1-2.3,0.2
									L388.7,395.9z"/>
								<path class="st1" d="M380.5,397.5l0,0.2c0,0.5,0,1.1,0.9,1.1l8.3,0.3c0.8,0,0.9-0.5,0.9-1V398l0.5,0c0,0.6-0.1,1.4-0.2,2.1
									c0,0.7,0,1.6,0,2.3l-0.5,0l0-0.2c0-0.5,0-1.1-0.9-1.1l-8.3-0.3c-0.8,0-0.9,0.5-0.9,1l0,0.2l-0.5,0c0-0.7,0.1-1.6,0.2-2.3
									c0-0.7,0-1.6,0-2.2L380.5,397.5z"/>
								<path class="st1" d="M389.9,405c0.1-1.1-0.1-1.2-1.3-1.5l0.1-0.4c0.4,0.1,0.9,0.2,1.3,0.3c0.4,0.1,0.9,0.2,1.3,0.3l-0.1,0.3
									c-0.5,0.1-0.5,0.4-0.6,0.8l-1,7.4c0,0.4-0.1,0.7,0.4,0.8l-0.1,0.3c-0.4-0.1-0.8-0.2-1.2-0.3c-0.4-0.1-0.8-0.1-1.3-0.2
									l-0.1-0.5c0.6,0,1.5,0.1,1.7-0.9l0.3-2.4L381,408c-1.2-0.2-1.4,0.3-1.5,1l0,0.3l-0.5-0.1c0.1-0.6,0.3-1.6,0.4-2.3
									c0.1-0.9,0.2-1.9,0.3-2.4l0.5,0.1l0,0.3c-0.1,0.8-0.1,1.2,1.2,1.4l8.4,1.2L389.9,405z"/>
								<path class="st1" d="M382.6,416.5l4.9-1.7c0.8-0.3,1.2-0.4,1.4-1.1l0-0.1l0.4,0.1c-0.2,0.7-0.4,1.4-0.6,2.2
									c-0.2,0.7-0.3,1.4-0.5,2.1l-0.5-0.1l0-0.2c0.1-0.4,0.1-0.8-0.1-0.8c-0.2,0-0.4,0.1-0.6,0.1l-3.8,1.2l2.3,2.5
									c0.4,0.3,0.6,0.6,0.9,0.7c0.3,0.1,0.5-0.5,0.6-0.7l0.1-0.3l0.4,0.1c-0.1,0.5-0.3,1-0.5,1.6c-0.1,0.5-0.2,0.9-0.3,1.4
									l-0.5-0.1c0.1-0.5-0.1-1-0.4-1.3l-3.3-3.7l-3.6-1c-1.3-0.4-1.5,0-1.7,0.8l-0.1,0.3l-0.5-0.2c0.2-0.8,0.5-1.6,0.7-2.2
									c0.2-0.7,0.4-1.6,0.6-2.4l0.5,0.1l-0.1,0.3c-0.2,0.8-0.1,1.2,0.9,1.5L382.6,416.5z"/>
							</g>
						</g>
						<g>
							<g>
								<path class="st1" d="M295.4,479.5c-0.1,0.9,0.5,0.9,1.2,1l0.3,0l-0.1,0.5c-0.8-0.1-1.6-0.3-2.4-0.4
									c-0.9-0.1-1.8-0.2-2.7-0.3l0.1-0.5l0.3,0c0.6,0.1,1.4,0.2,1.5-0.7l1.1-7.9c-0.6,0.2-1.4,0.5-2.1,0.7l-0.2-0.5
									c0.6-0.2,1.4-0.6,2.1-0.9c0.7-0.4,1.4-0.8,1.8-1l0.4,0L295.4,479.5z"/>
								<path class="st1" d="M300.5,476.2l-0.2-0.1c-0.9-0.7-1.5-1.6-1.4-2.9c0.1-2.3,2-3,3.2-2.9c1.4,0.1,2.7,1,2.6,2.7
									c0,1.3-1.1,2.1-2.1,2.6c1.1,0.6,2.1,1.6,2,3.1c-0.1,1.9-1.7,3.1-3.3,3c-1.4-0.1-3-1-2.9-2.7
									C298.4,477.4,299.3,476.7,300.5,476.2z M302.2,475.2c0.7-0.5,1.2-1.4,1.3-2.3c0-1.1-0.5-2.1-1.6-2.2c-0.8,0-1.6,0.8-1.6,1.7
									C300.2,473.9,301.2,474.6,302.2,475.2z M301.3,481c1,0,1.6-0.7,1.7-1.7c0.1-1.5-1.2-2.2-2.2-2.9c-0.8,0.4-1.2,1.4-1.3,2.3
									C299.5,480,300.2,481,301.3,481z"/>
								<path class="st1" d="M311.4,475.3c-0.3,0.7-1.2,1.4-2.1,1.4c-1.7,0.1-2.6-1.3-2.7-2.9c-0.1-2.1,1.5-3.6,3.3-3.7
									c2.2-0.1,3.5,1.8,3.6,4c0.2,3.8-3.2,6.8-6.4,7.5l-0.2-0.4c2.9-0.9,5-3.5,4.9-6.9c-0.1-1.2-0.7-3.8-2.2-3.7
									c-1.1,0.1-1.4,1-1.4,2c0.1,1.2,0.9,2.7,2.1,2.6c0.5,0,0.7-0.2,1-0.5L311.4,475.3z"/>
								<path class="st1" d="M319.9,478.9c0.1,0.9,0.7,0.8,1.4,0.7l0.3-0.1l0.1,0.5c-0.8,0.1-1.6,0.2-2.4,0.3
									c-0.9,0.1-1.7,0.3-2.6,0.5l-0.1-0.5l0.3,0c0.6-0.1,1.3-0.2,1.2-1.1l-1.3-7.9c-0.5,0.4-1.2,0.9-1.8,1.3l-0.3-0.4
									c0.5-0.4,1.1-0.9,1.7-1.5c0.6-0.6,1.2-1.1,1.4-1.5l0.4-0.1L319.9,478.9z"/>
							</g>
							<g>
								<path class="st1" d="M369.7,446.1c0,0.2,0.2,4.2,0.2,4.2s-2.2-3.4-2.3-3.6c-0.2,0.1-3.7,1.4-3.7,1.4s2.4-3.1,2.5-3.2
									c-0.1-0.2-2.3-3.2-2.3-3.2s3.5,1.4,3.6,1.4c0.1-0.1,2.5-3.2,2.5-3.2s-0.4,3.8-0.4,4c0.2,0.1,4,1.3,4,1.3
									S369.9,446.1,369.7,446.1z"/>
								<path class="st1" d="M360.8,455.7c0,0.2-0.5,4.2-0.5,4.2s-1.6-3.7-1.7-3.9c-0.2,0-3.9,0.8-3.9,0.8s2.8-2.7,3-2.8
									c-0.1-0.2-1.7-3.5-1.7-3.5s3.2,1.9,3.4,2c0.1-0.1,3-2.8,3-2.8s-1,3.7-1,3.9c0.2,0.1,3.7,1.9,3.7,1.9
									S361.1,455.7,360.8,455.7z"/>
								<path class="st1" d="M350.6,463.8c-0.1,0.2-1.2,4-1.2,4s-1-3.9-1-4.1c-0.2,0-4,0.1-4,0.1s3.2-2.2,3.4-2.3
									c-0.1-0.2-1.2-3.8-1.2-3.8s2.9,2.4,3,2.5c0.1-0.1,3.4-2.3,3.4-2.3s-1.5,3.5-1.6,3.7c0.1,0.1,3.4,2.5,3.4,2.5
									S350.8,463.9,350.6,463.8z"/>
								<path class="st1" d="M241.3,446.7c0,0.2-0.2,4.2-0.2,4.2s2.2-3.4,2.3-3.6c0.2,0.1,3.8,1.4,3.8,1.4s-2.4-3.1-2.5-3.2
									c0.1-0.2,2.3-3.2,2.3-3.2s-3.5,1.3-3.6,1.4c-0.1-0.2-2.5-3.2-2.5-3.2s0.4,3.8,0.4,4c-0.2,0.1-4,1.3-4,1.3
									S241.1,446.6,241.3,446.7z"/>
								<path class="st1" d="M250.1,456.3c0,0.2,0.5,4.2,0.5,4.2s1.6-3.7,1.7-3.9c0.2,0,3.9,0.8,3.9,0.8s-2.8-2.7-3-2.8
									c0.1-0.2,1.7-3.5,1.7-3.5s-3.2,1.9-3.4,2c-0.1-0.1-3-2.8-3-2.8s1,3.7,1,3.9c-0.2,0.1-3.7,2-3.7,2S249.9,456.3,250.1,456.3z"
									/>
								<path class="st1" d="M260.4,464.4c0.1,0.2,1.2,4,1.2,4s1-3.9,1-4.1c0.2,0,4,0.1,4,0.1s-3.2-2.2-3.4-2.3
									c0-0.2,1.2-3.8,1.2-3.8s-2.9,2.4-3,2.5c-0.1-0.1-3.4-2.3-3.4-2.3s1.6,3.5,1.6,3.7c-0.2,0.1-3.4,2.5-3.4,2.5
									S260.2,464.4,260.4,464.4z"/>
							</g>
						</g>
					</g>
				</g>
			</g>
			<g>
				<path class="st0" d="M310.1,403.8c0.1,0.1,0.1,0.1,0.2,0.2C310.2,403.9,310.1,403.8,310.1,403.8z"/>
				<path class="st0" d="M308.8,421.7l-0.1-2.1c0,0.5,0,1.7,0.1,2.3V421.7z"/>
				<path class="st0" d="M308.2,435.3c0,0,0-0.2,0.1-0.6C308.2,434.9,308.2,435.1,308.2,435.3z"/>
				<path class="st0" d="M308.2,435.3C308.2,435.3,308.2,435.3,308.2,435.3C308.2,435.3,308.2,435.3,308.2,435.3L308.2,435.3z"/>
				<path class="st0" d="M322.2,413.8c0.6,0.1,0.2-0.7,0.4-1.1c-0.4-0.4,0-1.3-0.8-1.4c-0.2,0.8,0.2,1.6,0.1,2.5H322.2z"/>
				<path class="st0" d="M323.1,413.9c0.4-0.1,0.2-0.3,0.4-0.5c0-0.2-0.3-0.4-0.6-0.3C322.6,413.2,322.9,413.8,323.1,413.9z"/>
				<path class="st0" d="M322.9,411.5l0.3-0.1c0.2-0.3,0.1-0.6-0.1-0.9c0.3-1-1-1-0.8-1.8c-0.4-0.6-1-0.9-1.3-1.5
					c-0.3-0.2-1-0.1-0.9,0.5c0.4,0.8,0.8,1.3,1.6,1.8C321.8,410,323.5,410.6,322.9,411.5z"/>
				<path class="st0" d="M320.1,408c-0.1-0.5-1.5-0.9-1.3,0c0.1,0.5,0.7,0.6,1.1,0.7L320.1,408z"/>
				<path class="st0" d="M319.3,406.3V406c-0.2-0.4-0.7-0.7-1.3-0.5l-0.1,0.3C318.3,406.1,318.8,406.4,319.3,406.3z"/>
				<path class="st0" d="M316.4,405.3l-0.4,0.5c0.6,0.2,1.1,1.4,1.8,1.2C317.7,406.3,316.8,405.7,316.4,405.3z"/>
				<path class="st0" d="M330.5,403.8c0.3-0.4,0.2-1.1,0-1.5c-0.4-0.3-1.3-1-1.4-0.2C329.5,402.6,329.5,404,330.5,403.8z"/>
				<path class="st0" d="M328,402.6h0.3v-0.2C328.3,402.3,328,402.4,328,402.6z"/>
				<path class="st0" d="M327.9,403.7c0.3,0.3,0.3,0.6,0.6,0.9c0.3-0.1,0.8-0.4,0.6-0.9C329.2,403,327.9,403.1,327.9,403.7z"/>
				<path class="st0" d="M326.6,402.2c0.2,0.2,0.5,0.5,0.8,0.3c0.3-0.9-0.4-2.1-1.1-2.7C325.5,400.5,327.2,401.1,326.6,402.2z"/>
				<path class="st0" d="M320.5,399.6c-0.6-0.8-1.3-1.4-2.3-1.3v0.3c1.5,0.5,0.5,2.6,2.1,2.6C320.9,400.9,320.6,400.1,320.5,399.6z"
					/>
				<path class="st0" d="M322.3,399.1c-0.2,0.6-0.6,1.1-0.5,1.9c0.2,0.4,0.7,0.3,1,0.5c0.9-0.3,0-1.1,0.3-1.7
					C323,399.4,322.8,399,322.3,399.1z"/>
				<path class="st0" d="M318.1,396.7c0.2,0.6,0.4,0.8,1,1c1,0.7,1.8,1.8,2.2,2.9c0.2-0.2,0.2-0.3,0.3-0.4c-0.3-0.7-0.6-1.4-0.9-2.1
					C320.3,396.9,319.1,396.5,318.1,396.7z"/>
				<path class="st0" d="M319,401.1c-1.1-0.7-0.6,0.8-1.4,1.2c0.2,0.2,0.4,0.3,0.7,0.4C318.5,402.3,319.2,401.8,319,401.1z"/>
				<path class="st0" d="M321.1,393.4l0.5,1.6c0.3,0,0.6,0.1,0.7-0.2C322.4,394.2,321.6,393.7,321.1,393.4z"/>
				<path class="st0" d="M326.9,378.9c0.5,0.5,0.5,1.3,1.1,1.5c0.2-0.4-0.2-0.9-0.1-1.4C327.9,378.5,327,378.3,326.9,378.9z"/>
				<path class="st0" d="M323.7,377.1c0.4,0.5,0.9,0.8,1.7,0.9c0.1-0.1,0.3-0.2,0.3-0.4c-0.5-0.5-1.3-0.9-2-1V377.1z"/>
				<path class="st0" d="M321.1,376.2c0.6,0.2,1.3,0.9,1.8,0.6c-0.1-0.3-0.3-0.6-0.7-0.8c-0.6,0.1-1.3-0.3-1.9-0.4L321.1,376.2z"/>
				<path class="st0" d="M317.7,375l-0.1,0.7c1.3,0.7,1.5,3,3.3,2.6C320.1,376.9,319.2,375.4,317.7,375z"/>
				<path class="st0" d="M316.2,376c0.3,0.5,0,1.5,0.9,1.5c0.4-0.2,0.6-0.4,0.6-0.9C317.6,376.1,316.7,375.1,316.2,376z"/>
				<path class="st0" d="M315.6,378.1c0.1,0.2,0.3,0.2,0.5,0.2c0.2-0.1,0-0.3,0.1-0.5C316.4,377.4,315.2,377.5,315.6,378.1z"/>
				<path class="st0" d="M315.7,376.8c0.3-0.2,0.4-0.5,0.3-0.8c-0.2-0.6-0.6-1.3-1.2-1.4c-0.8,0.7,0.6,1.1,0.3,2
					C315.2,376.8,315.4,376.9,315.7,376.8z"/>
				<path class="st0" d="M313.7,376l-0.1,0.4c0.8,0.5,0.1,1.7,1.1,2c1.4-0.5-0.3-1.2,0-2C314.7,375.9,314.2,375.9,313.7,376z"/>
				<path class="st0" d="M312.4,373.3c-0.8,0.6,0.4,1.2,0.6,1.8l-0.6,0.3c0,0.2-0.1,0.5,0.2,0.6c0.2,0,0.4,0,0.6-0.2
					c-0.6-1,1.2-0.7,0.8-1.7C313.6,373.5,313,373.4,312.4,373.3z"/>
				<path class="st0" d="M311.2,369.4c-0.4-0.1-0.7-0.3-1.1,0l0.2,0.2C310.6,369.9,311.1,369.7,311.2,369.4z"/>
				<path class="st0" d="M327.1,369.1c0.3,0.1,1,0.2,1.2-0.1l-1.6-1.6c-0.2,0-0.4,0.1-0.6,0.2C326.4,368.1,326.4,368.7,327.1,369.1z
					"/>
				<path class="st0" d="M324.1,366.9c0,0.4,0.4,0.7,0.8,0.7c0.5-0.4-0.1-1,0.1-1.5c-1-0.5-1.4-1.8-2.6-1.8
					C322.7,365.2,324,365.8,324.1,366.9z"/>
				<path class="st0" d="M323.7,366.8c-0.3-0.4-0.8-1.1-1.6-0.9c-0.6,0.4,0.2,0.6,0.3,1C322.8,367.2,323.5,367.3,323.7,366.8z"/>
				<path class="st0" d="M317.3,365.6c0.3,0,0.4,0.6,0.9,0.4c0.2,0.1,0.4-0.1,0.4-0.3C318.2,365.4,317.4,365,317.3,365.6z"/>
				<path class="st0" d="M314.8,362.1L314.8,362.1l0.2,0.4c1.4,0,1.1,1.7,2.5,1.6c0.4,1,1.6,1.2,2.2,2.2c0.8,0.8-0.4,2.8,1,3.1
					c0.4-0.7,0.2-1.8,0.2-2.6c-0.1-0.7-1.6-1.2-1.4-2c0.8-0.1,0.8,0.6,1.6,0.5c0.3-0.6-0.5-1.1-0.9-1.6
					C318.3,363.4,316.9,362,314.8,362.1z"/>
				<path class="st0" d="M315.7,363.8c-1,0.2-0.9-1.4-1.8-0.7c0.3,0.5,0.6,0.9,0.8,1.5c0.3,0.5,0.9,0.2,1.3,0
					C316.2,364.1,315.8,364.2,315.7,363.8z"/>
				<path class="st0" d="M312,361.2c0.3,0.5,0.9,0.4,1.2,0.6c0.2,0.1,0.4-0.1,0.4-0.3C313.3,361.1,312.3,360.5,312,361.2z"/>
				<path class="st0" d="M308.1,358.1c0,1,0.2,2,0.4,2.9c0.3,0,0.5,0,0.7-0.2c0-0.2,0.1-0.4-0.1-0.5c0.2-0.1,0.1-0.5,0.5-0.4
					c-0.2,0.9,0.6,1.7,1,2.3c0.5,0,0.8,0.3,1.3,0c-0.4-0.9-0.9-1.7-1-2.7C310,358.8,309.2,357.6,308.1,358.1z"/>
				<path class="st0" d="M322.2,356.6c0.2-0.2,0-0.5,0.2-0.6c-0.1-0.6-1.1-1.2-1.5-0.8C321.8,355.6,321.2,356.6,322.2,356.6z"/>
				<path class="st0" d="M318.8,354.2c-0.2-0.6-1-0.7-1.7-0.8v0.4C317.8,353.8,318.1,354.6,318.8,354.2z"/>
				<path class="st0" d="M318.8,356.6c0.4-0.2,0.2-0.6,0.2-0.9c-0.4-0.6-1.6-1.1-2-0.2C317.6,355.8,317.9,356.8,318.8,356.6z"/>
				<path class="st0" d="M314.4,353.6L314.4,353.6c0.5-0.2,1.2,0.2,1.6-0.2C315.7,352.8,314.5,353,314.4,353.6z"/>
				<path class="st0" d="M313.6,355.8c0.3,0.2,0.7,0.4,1.1,0.2v-1c-0.2-0.4-0.5-0.6-1-0.5L313.6,355.8z"/>
				<path class="st0" d="M307,350.4c0.5,0.4,0.7,1,1.3,1c0.8,0.9,2,1.4,2.8,2.3c0.7,0.5,0.8,2.2,2,1.8c-0.3-2.3-2.8-3.4-4.6-4.3
					C308.9,350.2,307.4,349.7,307,350.4z"/>
				<path class="st0" d="M316,348.9V348l-0.7-0.1C315.4,348.3,315.4,349.1,316,348.9z"/>
				<path class="st0" d="M314.8,348.6v-0.2c-0.4-0.4-0.5-1.1-1.1-1v0.3C314.1,347.9,314.1,348.9,314.8,348.6z"/>
				<path class="st0" d="M315.2,346.9c0.1-0.5-0.6-0.8-0.9-1.2c-0.6-0.4-1.2-1-2-1.1C312.2,346.4,314.4,345.7,315.2,346.9z"/>
				<path class="st0" d="M311.9,348c0.4,0,0.3-0.5,0.3-0.7c-0.1-0.3-0.4-0.2-0.7-0.2C311.6,347.4,311.3,348,311.9,348z"/>
				<path class="st0" d="M311.5,345.7c0-0.3,0.1-0.6-0.1-0.8c-1-0.1-0.8-1.5-1.9-1.3v0.4C310.6,344.3,310.5,345.5,311.5,345.7z"/>
				<polygon class="st0" points="291.6,349.3 291.6,349.5 291.7,349.5 				"/>
				<path class="st0" d="M293.6,347.6c-0.5,0.3-1.2,0.6-1.2,1.2c0.1,0.1,0.2,0.1,0.3,0.1C293,348.5,293.9,348.1,293.6,347.6z"/>
				<path class="st0" d="M293.7,346.3c-1,0-1.8,0.7-2,1.6h0.5C292.6,347.1,293.6,347.2,293.7,346.3z"/>
				<path class="st0" d="M296.9,344.4l-0.1-0.1c-0.6,0.4-1.7,0-1.9,0.8C295.4,344.7,296.6,345.2,296.9,344.4z"/>
				<path class="st0" d="M295.6,347.4c-0.4-1.6,1.9-0.4,1.7-2c-0.7,0.1-1.6,0.5-2.3,0.9c0.3,0.6-0.5,1-0.2,1.4
					C295.2,347.7,295.5,347.6,295.6,347.4z"/>
				<path class="st0" d="M299.3,343.6c-0.3-0.6-0.8,0-1.1,0.3c-0.1,0.2-0.4,0.5-0.1,0.7L299.3,343.6z"/>
				<path class="st0" d="M300.7,345c0-0.5,0.1-1-0.6-1c-0.4,0.2-0.6,0.9-0.3,1.4C300.3,345.7,300.5,345.3,300.7,345z"/>
				<path class="st0" d="M290.9,365.5c0.3,0,0.3-0.4,0.5-0.5c-0.2-0.1-0.4-0.1-0.6,0C290.8,365.1,290.7,365.4,290.9,365.5z"/>
				<path class="st0" d="M291.7,363.4c-0.1,0.3-0.5,0.9,0.1,1.1c0.4,0,0.9-0.3,1-0.7c0.3-0.6,1.4-1.1,1.1-1.7
					C292.6,361.3,292.5,362.9,291.7,363.4z"/>
				<path class="st0" d="M295.3,361.5l-0.3-0.7c-0.3,0-0.4,0.4-0.3,0.7C294.9,361.7,295.1,361.6,295.3,361.5z"/>
				<path class="st0" d="M288,371.5h-0.5C287.6,371.8,288,371.6,288,371.5z"/>
				<path class="st0" d="M285.6,378.4c0.4,0.1,0.9-0.1,1.1-0.5c-0.2-0.4-0.7-0.3-1-0.4C285.8,377.9,285,378,285.6,378.4z"/>
				<path class="st0" d="M286.6,376c0.3,0,0.4-0.3,0.6-0.5c-0.1-0.2-0.4-0.1-0.7-0.1c-0.3,0-0.4,0.5-0.2,0.7H286.6z"/>
				<path class="st0" d="M288.4,375c0.5,0.2,1.1-0.3,1.3-0.8c-0.4-0.3-1.2-0.6-1.5,0.1C288.3,374.6,288.2,374.8,288.4,375z"/>
				<path class="st0" d="M289.6,371.9c0.3,0,0.8-0.3,0.7-0.6c-0.4-0.6-1,0-1.3,0.2C288.8,372,289.4,371.9,289.6,371.9z"/>
				<path class="st0" d="M291.1,372.5c-0.3-0.1-0.8-0.4-0.7,0.2C290.7,372.8,290.9,372.5,291.1,372.5z"/>
				<path class="st0" d="M291.1,371.3h0.3c0.1-0.1,0.1-0.2,0.1-0.4C291.3,370.8,291.2,371.1,291.1,371.3z"/>
				<path class="st0" d="M290.5,383.6v0.5l0.6-0.5C290.9,383.5,290.6,383.7,290.5,383.6z"/>
				<path class="st0" d="M292.6,382c0,0.2,0,0.5,0.2,0.6c0.6,0,1-0.5,1.1-0.9C293.5,381.2,292.9,381.5,292.6,382z"/>
				<path class="st0" d="M295.5,381.1c0.1,0.3,0.5,0.1,0.8,0.2c0.6-0.5,0.5-1.3,0.3-2C295.2,378.5,295.6,380.4,295.5,381.1z"/>
				<path class="st0" d="M297.5,381.7c1.1-0.7,0.3-2.1,0.7-3.1c-0.3-0.1-0.1-0.9-0.7-0.6c-0.5,0-0.1,0.5-0.3,0.6
					c-0.1,0.8,0.4,2.1-0.2,3L297.5,381.7z"/>
				<path class="st0" d="M298.4,377.4c-0.1,0.5,0.2,1.3,0.6,1.5c0.4-0.1,0.4-0.5,0.5-0.9C299.4,377.6,299,377.2,298.4,377.4z"/>
				<path class="st0" d="M299.3,381c0.3-0.2,0.6-0.5,0.4-0.9c-0.1-0.3-0.4-0.2-0.7-0.2c-0.4,0.3-0.2,0.7-0.2,1.1H299.3z"/>
				<path class="st0" d="M300.3,375.5c-0.3-0.2,0.1-1-0.6-0.8c-0.6,0.6-0.4,1.8-0.1,2.5h0.5L300.3,375.5z"/>
				<path class="st0" d="M281.2,396.9l-0.5-0.4l-0.3,0.8C280.7,397.5,281.1,397.2,281.2,396.9z"/>
				<path class="st0" d="M280.2,397.9c-1-0.6-0.9,0.6-1.3,1C279.6,399.4,280.1,398.4,280.2,397.9z"/>
				<path class="st0" d="M276,406.9c0.4-0.2,0.3-0.6,0.3-1c-0.1-0.3-0.4-0.2-0.7-0.2c-0.5,0.1-0.5,0.6-0.4,1
					C275.4,407,275.7,406.8,276,406.9z"/>
				<path class="st0" d="M276.8,402.6c0.3-0.1,0.3-0.3,0.3-0.6c-0.2-0.4-0.9-0.2-0.9,0.2C276.3,402.4,276.4,402.7,276.8,402.6z"/>
				<path class="st0" d="M276.6,403.6c-0.1,0.3-0.3,1,0.1,1.3c0.6,0,0.5-0.7,0.8-1C277.4,403.5,276.9,403.3,276.6,403.6z"/>
				<path class="st0" d="M279.5,402.3c0.1-0.3-0.2-0.3-0.3-0.5c-0.4,0-0.3,0.4-0.3,0.7C279.1,402.5,279.4,402.5,279.5,402.3z"/>
				<path class="st0" d="M278,402.7c0-0.1,0.1-0.2,0.2-0.1l0.2-2h0.1c0-0.2-0.1-0.5,0.1-0.6c0.2,0.2,0.1,0.7,0.1,1.1
					c0.5,0,0.7,0.9,1.3,0.7c0.2-0.5,0.1-1,0.4-1.5l0.2,0.6c0.4,0,0.6-0.1,0.8-0.3c0.3-0.2,0-0.5-0.2-0.7c-0.5-0.1-0.7,0.2-0.9,0.4
					c-0.3-0.1-0.2-0.4-0.3-0.5c-0.4-0.4-0.8,0.2-1.1,0.3l-0.2-0.3c-1-0.1-1.2,1.1-1.6,1.7C277.4,402,277.9,402.1,278,402.7z"/>
				<path class="st0" d="M281.4,398.3c1.2-0.6,1.5-1.9,1.7-3c-1.8-0.5-1,1.7-1.8,2.4C281.2,397.9,281.1,398.3,281.4,398.3z"/>
				<path class="st0" d="M283.7,394.4c0.6,0,1.2-0.8,1.5-1.3c-0.6,0-1.1,0.4-1.6,0.8C283.6,394,283.5,394.3,283.7,394.4z"/>
				<path class="st0" d="M287.5,395.4c0.2-0.2,0.5-0.4,0.4-0.7c-0.2,0-0.4-0.1-0.5,0.1C287.3,395,287.2,395.4,287.5,395.4z"/>
				<path class="st0" d="M286.3,393.4c-0.3,0.1-0.7,0.6-0.5,0.7c1.3,0.4,1.3-1.5,2.8-0.9C287.5,392.6,287.3,393.8,286.3,393.4z"/>
				<path class="st0" d="M288.3,397c0.6,0.3,1.1-0.1,1.1-0.7c-0.1-0.3-0.4-0.4-0.8-0.4C288.4,396.4,288.2,396.6,288.3,397z"/>
				<path class="st0" d="M289,394.4c0,0.4-0.8,0.8,0,0.9c0.2-0.1,0.6-0.3,0.4-0.6C289.5,394.3,289.1,394.4,289,394.4z"/>
				<path class="st0" d="M289.9,393.1c-0.2,0.1-0.5,0.5-0.3,0.8c0.3-0.2,0.7-0.4,0.9-0.6C290.3,393,290.1,393.1,289.9,393.1z"/>
				<path class="st0" d="M291.3,395.2c0.5,0.1,0.5-0.2,0.9-0.3c0.3,0.2-0.3,0.7,0.2,1c0.3-0.1,0.7,0.2,0.9-0.2c0-0.6-0.5-1-0.3-1.8
					h-0.2c-0.4,0-0.4,0.4-0.6,0.7l-0.2-0.2c0-0.2,0-0.5,0.1-0.7c-0.4-0.5-1.1,0-1.1,0.5C290.8,394.6,291.3,394.8,291.3,395.2z"/>
				<path class="st0" d="M294.1,391.1c0.3-0.1,0.7-0.4,0.7-0.8c0-0.4-0.5-0.2-0.7-0.4c-0.6,0.1-0.4,0.6-0.6,0.9
					C293.6,391.1,293.8,391.2,294.1,391.1z"/>
				<path class="st0" d="M293.7,394.2v1.2h0.4c0.2-0.1,0.2-0.3,0.2-0.6C294.3,394.4,294.1,394.3,293.7,394.2z"/>
				<path class="st0" d="M294.7,392.2c0.5-0.8-0.8-0.8-1-0.1c0,0.1-0.1,0.4,0.1,0.4C294.2,392.6,294.5,392.5,294.7,392.2z"/>
				<path class="st0" d="M296.6,388.5c0.7,0.1,1-0.6,1.4-1c-0.2-0.2-0.4-0.3-0.7-0.3C296.8,387.4,296.5,387.9,296.6,388.5z"/>
				<path class="st0" d="M298.7,391c-0.1-0.9,0.8-2.1-0.5-2.5c-0.2,0.3-0.8,0.5-0.6,1c1.4,0.7-0.3,1.9-0.3,2.6h0.3
					C297.6,391.6,298.3,391.3,298.7,391z"/>
				<path class="st0" d="M285.5,417.8c0.6-0.3,1.2-1,0.8-1.6c-0.9-0.2-1.2,0.8-1.3,1.4C285.1,417.7,285.3,417.8,285.5,417.8z"/>
				<path class="st0" d="M285.4,414.5h0.6c0.4-0.2,0.8-0.6,0.8-1.1c-0.2,0-0.4,0-0.6-0.1C285.8,413.5,285.1,414,285.4,414.5z"/>
				<path class="st0" d="M286.7,417.3c0.1,0.1,0.2,0.1,0.4,0.1c0.2-0.1,0.6-0.3,0.3-0.5C286.9,416.7,287.1,417.2,286.7,417.3z"/>
				<path class="st0" d="M288.1,414c-0.3-0.3-0.7-0.3-1,0c-0.3,0.6,0.4,0.6,0.6,0.7C288.1,414.7,288.1,414.3,288.1,414z"/>
				<path class="st0" d="M289.8,416.7c-0.1-0.2-0.2-0.3-0.4-0.4c-0.4,0-0.7,0.3-0.7,0.6C289,417.2,289.6,417.2,289.8,416.7z"/>
				<path class="st0" d="M289.4,414c-0.2-0.1-0.2-0.7-0.6-0.5v1.1h0.3C289.4,414.5,289.5,414.4,289.4,414z"/>
				<path class="st0" d="M288.6,411.2c0.2,0,0.3-0.1,0.5-0.2c-0.6-1.2,1.2-1.4,1.5-2.3c-0.1-0.1-0.2-0.1-0.3-0.1
					C289.6,409.2,288.1,410.1,288.6,411.2z"/>
				<path class="st0" d="M291.2,409.3c-0.3,0.5-1.1,0.7-0.8,1.2c0.3-0.4,1.2-0.4,1.2-1.1C291.6,409.3,291.4,409.4,291.2,409.3z"/>
				<path class="st0" d="M292,408.6l0.1-1.6l-0.6-0.1l-0.3,1.3C291.5,408.3,291.6,408.8,292,408.6z"/>
				<path class="st0" d="M292.6,404.1c-0.7-0.1-0.8,0.5-0.9,0.9h0.2C292.2,404.8,292.7,404.7,292.6,404.1z"/>
				<path class="st0" d="M293.9,404.7c-0.1-0.8-0.1-1.3,0.1-2.1l-0.8,0.8c0.3,1.8-1.3,2.7-0.7,4.6c0.8,0.4,0.3,1.3,0.5,2h0.2
					c-0.3-0.7,0.7-1.1,0-1.7c0.3-1.2-0.2-2.1,0.4-3.1C293.7,404.9,293.6,404.6,293.9,404.7z"/>
				<path class="st0" d="M294.3,404.8l-0.3,0.1c0.1,0.9-0.1,1.6-0.2,2.4c0.1,0,0.3,0,0.4,0.1C294.6,406.8,294.3,405.6,294.3,404.8z"
					/>
				<path class="st0" d="M294.6,407.8c-0.8,0.3-0.6,1.1-0.8,1.6c0.1,0.4,0.6,0.1,0.8-0.1C294.4,408.8,295.7,408,294.6,407.8z"/>
				<path class="st0" d="M295.3,405.5v-0.5H295C294.9,405.3,295,405.7,295.3,405.5z"/>
				<path class="st0" d="M296.1,403.8c0-1.1,1.5-0.3,1.6-1.3c0.2-0.4,0.1-0.7-0.1-1c-0.2-0.1-0.4,0.2-0.6,0.2
					c-0.6-0.6,0.6-0.8,0.3-1.6c-0.7,0.1-1.1,0.7-1.2,1.4c0.1,1.1-0.7,1.9-0.7,2.8L296.1,403.8z"/>
				<path class="st0" d="M298.8,406.1c0.1-0.1,0.4-0.2,0.4-0.5c0-0.6-1.2-0.6-1.1-0.1C298.2,405.8,298.3,406.2,298.8,406.1z"/>
				<path class="st0" d="M324.9,450.9L324.9,450.9c0.6-0.3,0.9-0.7,1.2-1c-0.1-0.4-0.5-0.7-1-0.7
					C325.2,449.8,324.9,450.4,324.9,450.9z"/>
				<path class="st0" d="M324.3,449.3c-0.3-0.4-0.8-0.6-1.3-0.7v1.3c-0.2,0.6-0.4,1.4-1.1,1.6c0,0.1,0,0.3,0.1,0.3
					c0.7,0.3,1.7,0,2.1-0.7C323.3,450.5,324.8,450,324.3,449.3z"/>
				<path class="st0" d="M321.4,450.6c0.5-0.2,0.4-0.5,0.6-0.8c0.5-1-0.7-1.5-1.4-1.2c0.3,0.2,0.8,0.7,0.6,1.1
					c-0.2,0-0.3-0.1-0.4-0.2c-0.4-0.1-0.7-0.7-1.1-0.3C320.4,449.5,320.5,450.7,321.4,450.6z"/>
				<path class="st0" d="M319.6,448.7c-0.2-0.5-0.3-1.2-1-1.4l-0.3,0.3C318.4,448.4,319.1,448.8,319.6,448.7z"/>
				<path class="st0" d="M320.7,452.2c0.1-1.1-0.9-1.8-1.5-2.4c-0.8-0.4-1.1-1.6-2.1-1.7c-0.2,0.2-0.5,0.3-0.3,0.6
					c1.3,1,2.7,2.2,3.4,3.7C320.3,452.4,320.6,452.4,320.7,452.2z"/>
				<path class="st0" d="M290.6,451.4c0.6,0.3,1.6,0.3,2.2,0c0.5-1.5,2.2-2,3.6-2.4c1.5-1.5,3.6-0.9,5-1.7c0.1-0.6-0.1-1.1-0.5-1.5
					c-0.7,0,0,0.8-0.7,1c-0.3-0.3-0.8-0.4-0.6-1l-0.5,0.5c0,1.5-1.5,0.6-1.9,1.7c-2,1.7-4.8,1.2-6.7,3
					C290.6,451.1,290.5,451.4,290.6,451.4z"/>
				<path class="st0" d="M294.6,448.5c-1.1-0.5-2.2,0.5-3.5,0.5c-0.7,1-2.3,0.7-2.5,1.9l1.1,0.1
					C291.1,449.8,292.7,448.9,294.6,448.5z"/>
				<path class="st0" d="M299.8,443.2H299c-1,0.9-0.3,2.7-1.4,3.3l0.8-0.2c0.9-0.2,0.2-1,0.8-1.6C298.6,443.9,300,444,299.8,443.2z"
					/>
				<path class="st0" d="M297.5,445.1c-0.1-0.8,0.7-1.2,0.6-2c-1.7,0.7-1.3,3.2-2.5,4.6c0.1,0.1,0.2,0.3,0.4,0.2
					c0.6,0,0.8-0.6,0.8-1c-0.7-0.9,0.7-1,0.6-1.6C297.3,445.2,297.4,445.1,297.5,445.1z"/>
				<path class="st0" d="M305.7,404.8h0.4c-0.1-1.1,0.1-1.9-0.1-3c-0.8,0.1-0.4,1.1-0.6,1.6C305.3,403.9,305.7,404.3,305.7,404.8z"
					/>
				<path class="st0" d="M306.6,434.8c0.8-2.8,0.3-5.8,0-8.6c-0.5,0.1-0.4,0.9-0.7,1.1l-0.2-0.1c0.6-1.2-0.6-2.3,0.2-3.2l-0.4-0.4
					c-0.2,0.3,0,0.8,0,1.2c-0.8,1.2,0.1,2.6-0.8,3.6c-0.1-0.7-0.1-1.7,0-2.5c-0.1-1.8,1-2.8,1.3-4.5c0.1-0.6-0.4-1.8,0.2-2.3
					c-0.2-0.4,0.5-1.8-0.6-1.8c-0.3,0.7,0.4,1.5-0.6,1.8c-0.1-0.1-0.1-0.1-0.1-0.2c0.5-1.5-0.8-4,0.7-5.4c0.3,0.8-0.4,1.3,0,2.2
					c0.3-0.1,0.5-0.3,0.8-0.8c0.3,0.6-0.4,1.2,0,1.8h0.1c0.5-0.7,0.9-1.7,0.9-2.7h-0.4c-0.1,0.3-0.2,0.7-0.6,0.8l-0.2-0.1
					c1.1-2,1.7-3.6,1.3-6.3h-0.6c0,0.9-0.1,1.7-0.3,2.4c-1-1,0.5-2.3,0-3.3c-0.4-0.1-0.7,0.4-0.7,0.6c0,1.2-0.3,2.4-0.6,3.5
					c0,0.6-0.7,0.8-1,1.2l-0.1,4c-0.3,0.2-0.3-4,0.1-5.7c1.4-1.5,0.1-3.4,0.6-5.2c0.1,0.7,0.3,1.3,0.7,1.9c1.5-1.5-1-2.5,0-4.1
					c-0.1-0.3-0.2-0.7-0.5-0.9c-0.6,0.4-0.3,1.2-0.5,2c-0.1,0.4,0.6,0.6,0.2,1c-0.2-0.1-0.6-0.4-0.8-0.1c-0.3,0.4,0.2,1.3-0.4,1.5
					l-0.1-0.1c-0.5,0.3-0.7,0.9-0.6,1.5c-0.6,0.6-0.2,1.3-0.4,1.8c0.2,0.2,0,0.8,0.5,0.5c0.4-1.2,0.6-2.1,0.7-3.5
					c0.5,0.7,0.5,1.7,0.5,2.4c-1.6,1.4-0.6,4.1-0.9,5.9c-0.4,0.5-0.2,0.9-0.2,1.6c-1.1,0.8,1.3,2.2-0.8,2.7c0,0.1-0.1,0.4,0.1,0.5
					c0.3,0,0.6-0.2,0.6-0.5c0.1,0.4,0.1,0.9,0.1,1.4c0,0.5-0.5,0.9-0.5,1.4c0,0.5-0.3,0.6-0.4,1.1h0.3c0.3-0.2,0.3-0.5,0.5-0.7
					c0,1.1-0.4,2.5-0.1,3.7c-0.5,0.7-0.7,1.6-1.1,2.3c0.1,0.3-0.3,1.1,0.4,1c0.8-0.9,1.4-4.4,1.8-3.8c-0.1,1.3-0.8,3.4-0.4,4.5
					c1.3,0.1,0.2-1.4,1-1.8l0.2,0.2c0.1,0.4-0.1,0.7-0.2,1c-0.2,1.3,0.4,3.5,0.4,5.1c1.2-0.6,0.3-2.6,0.7-3.9c0.5,1,0.4,2.4,0.6,3.6
					C306.4,435.1,306.5,434.9,306.6,434.8z"/>
				<path class="st0" d="M301.8,426.1c-0.1-0.3-0.4-0.2-0.7-0.2v0.6h0.3C301.6,426.4,301.8,426.3,301.8,426.1z"/>
				<path class="st0" d="M302.9,395.3c-0.4-0.5-0.7,0-0.9,0.4c0.1,0.2,0.3,0.2,0.6,0.2C302.7,395.7,303.1,395.5,302.9,395.3z"/>
				<rect x="301.8" y="399.9" class="st0" width="0.5" height="0.3"/>
				<path class="st0" d="M303.4,401.6c0.3-0.4-0.1-0.7-0.1-1l-0.6,0.3c0.1,0.3-0.1,0.7,0.1,0.9C303.1,401.9,303.3,401.8,303.4,401.6
					z"/>
				<path class="st0" d="M303.1,394.2c0.7-0.2,0.7-1.5,1-2.4c-0.3-0.1-0.4,0.1-0.7,0.2C303.6,392.9,302.8,393.5,303.1,394.2z"/>
				<path class="st0" d="M302.5,379.5h-0.2l0.1,0.2C302.4,379.6,302.5,379.6,302.5,379.5z"/>
				<path class="st0" d="M302.6,376.6c-0.3,0.1-0.2,0.4-0.2,0.7h0.5C303.1,377.1,302.9,376.7,302.6,376.6z"/>
				<path class="st0" d="M302.1,384.4h0.4c0.4-1,0.2-2.4,0.1-3.5h-0.3C301.5,381.9,302.2,383.2,302.1,384.4z"/>
				<path class="st0" d="M302.9,378.4c-0.1,0-0.1,0-0.2,0.1L302.9,378.4L302.9,378.4z"/>
				<path class="st0" d="M303.2,385.1h0.5v-0.5c0.8-1,0.4-2.9,0.3-4.2C302.2,381,303.1,383.7,303.2,385.1z"/>
				<path class="st0" d="M303.7,386.6c-0.2,0-0.4,0.3-0.3,0.6c-0.1,0.4,0.3,0.3,0.6,0.3c0.3-0.1,0.2-0.4,0.2-0.7
					C304.1,386.7,303.9,386.5,303.7,386.6z"/>
				<path class="st0" d="M305.5,375.7c-0.2,0.9-0.2,1.7,0.5,2.3c0.4,0,0.6-0.3,0.5-0.6c-0.5-0.7-0.1-1.4,0-2.2l-0.4-0.7
					C305.2,374.4,306,375.4,305.5,375.7z"/>
				<path class="st0" d="M306.6,406.9c0.5,0.2,0.7-0.3,0.9-0.5c0.3-0.5-0.2-2.2-1.1-1.1C306.4,405.8,306.1,406.4,306.6,406.9z"/>
				<path class="st0" d="M307.4,395.8c-0.1-0.2-0.3-0.2-0.5-0.3v0.5h0.5V395.8z"/>
				<path class="st0" d="M306.5,400.5c0.5-0.8,0.3-2,0.2-2.9c-0.8,0.2-0.7,1.4-0.9,2.2C305.9,400.1,306,400.7,306.5,400.5z"/>
				<path class="st0" d="M305.2,396.9v1.8c0.8,0,0.2-1.1,0.5-1.6C305.6,396.9,305.5,396.9,305.2,396.9z"/>
				<path class="st0" d="M304.6,391.7c0.2,0,0.4,0,0.6-0.2c-0.1-1.4,0.2-2.8-0.4-4C304.1,388.7,304.3,390.2,304.6,391.7z"/>
				<path class="st0" d="M304.5,383.8l0.1,1.2C304.9,384.6,304.6,384.1,304.5,383.8z"/>
				<path class="st0" d="M305.3,400.5v-0.8c-0.3-0.2-0.6,0.1-0.5,0.4C305,400.3,305.1,400.5,305.3,400.5z"/>
				<path class="st0" d="M306.2,395.6c0.1-0.2,0.2-0.4,0.1-0.5l-0.2-0.9c-0.5-0.2-0.4,0.4-0.4,0.7
					C305.7,395.1,305.6,395.8,306.2,395.6z"/>
				<path class="st0" d="M306.5,385.2c-0.2-1-1.2-0.1-1.1,0.6c0.6,1.4,0.1,3.4,0.4,5c0,0.7-0.5,1.3-0.3,2.1h0.6
					c-0.4-1.2,0.7-1.9,0.4-3.1C307.5,388.5,305.9,387,306.5,385.2z"/>
				<path class="st0" d="M306.5,382.6c-0.1-0.2-0.3-0.4-0.6-0.3c-0.4,0.1-0.2,0.6-0.2,0.9C306.1,383.5,306.5,383.1,306.5,382.6z"/>
				<path class="st0" d="M305.1,379.8c-1.9,0.6,0.3,2.1-0.3,3.6c0.9-0.4,0.2-1.7,0.6-2.5l0.1,0.1c0.2,0.1,0,0.8,0.5,0.6
					c0.9-0.2,0.3-1.4,0.5-2.1c0-0.3-0.4-0.6-0.7-0.7C305,378.8,305.7,379.6,305.1,379.8z"/>
				<path class="st0" d="M304.8,394.6c0-0.3,0.1-0.7-0.1-1l-0.6,0.8C304.2,394.7,304.6,394.7,304.8,394.6z"/>
				<path class="st0" d="M303.8,395.5l-0.3,0.2c-0.5,0.5-0.2,1.3-0.2,1.9c0.1,0.2,0.2,0.6,0.6,0.4
					C303.8,397.3,304.9,396.1,303.8,395.5z"/>
				<polygon class="st0" points="304.1,403.9 304,403.6 303.6,403.9 				"/>
				<path class="st0" d="M303.1,404.9c-0.3,0.2-0.3,0.4,0,0.6l0.1-0.1C303.1,405.2,303.3,404.9,303.1,404.9z"/>
				<path class="st0" d="M306.9,422.9c-0.7-0.2-0.3,0.9-0.8,1v1.4h0.2c0.2-0.1,0.2-0.3,0.3-0.5C306.6,424.1,307.3,423.6,306.9,422.9
					z"/>
				<path class="st0" d="M306,422.4v0.4l0.1-0.1C306.1,422.5,306,422.4,306,422.4z"/>
				<path class="st0" d="M306.2,422.1c0.3,0,0.6-0.1,0.8-0.4C306.6,421.4,306.2,421.7,306.2,422.1z"/>
				<path class="st0" d="M307.3,436.8c-0.1-0.2-0.3-0.3-0.5-0.2l0.3,0.4L307.3,436.8z"/>
				<path class="st0" d="M306,436.1h-0.5c-0.3,1.1-0.8,1.9-0.4,3.1h0.4c0.3-0.1,0.8-0.4,0.6-0.9C305.5,437.7,306.5,436.9,306,436.1z
					"/>
				<path class="st0" d="M304.6,445c0.6,0.6,0.6,2.3,1.6,2l-1.2-1.4c-0.1-0.8,0.5-1.2,0.9-1.7C305.3,443.8,304.6,444.3,304.6,445z"
					/>
				<path class="st0" d="M306.9,448.6c0.4-0.2,0.5-0.9,0.3-1.4H307C307.3,447.8,306.4,448.1,306.9,448.6z"/>
				<path class="st0" d="M307,444.5c-0.2,0.3-0.9,0.7-0.7,1.4c1,0.3,0.4-0.9,1-1.2C307.2,444.5,307.1,444.5,307,444.5z"/>
				<path class="st0" d="M305.2,448.7c-0.8,0.1-1.3-0.7-1.9-0.8c0.2,0.8,1.3,1,1.5,2c0.2,0.9-0.3,1.5-0.4,2.2c0.3,0.2,0.8,0.2,1-0.2
					c-0.1-0.7,0.9-1.5,0-2.1c0.5-0.4,0.6,0.3,1,0.1C306.5,449.2,305.3,449.5,305.2,448.7z"/>
				<path class="st0" d="M303.7,451.3c0.3,0,0.3-0.4,0.5-0.6c-0.4-0.1-0.8,0.3-0.9,0.5L303.7,451.3z"/>
				<path class="st0" d="M302.7,445.6c0.1-0.7-0.2-1.3-0.6-1.7c-0.8,0.6,0.2,1.3,0,2C302.4,446,302.5,445.6,302.7,445.6z"/>
				<path class="st0" d="M303.8,439.8c0.1,1.4-1.1,2.4-1.5,3.8h0.2c0.9-1.2,1.5-2.6,1.7-3.9C304.1,439.5,304,439.7,303.8,439.8z"/>
				<path class="st0" d="M302.5,431.9c-0.4,0.6-0.2,1.3-0.8,1.7c0.8,0.4-0.1,1.2,0.1,1.9h0.6c0.5-0.5,0.1-1.4,0.6-1.9
					C302.8,433,303.3,431.9,302.5,431.9z"/>
				<path class="st0" d="M301.8,440.4c0.6-0.7,1.2-1.5,0.9-2.4c-0.9,0.2-0.9,1.7-1.2,2.4H301.8z"/>
				<path class="st0" d="M302.7,436.4c0.1,0.2,0.4,0.1,0.6,0.1l0.1,1.7h0.3c0.4,0,0.5-0.5,0.8-0.7c0-0.8-0.3-1.8-1-2.3
					C302.9,435.4,302.8,436,302.7,436.4z"/>
				<path class="st0" d="M303.6,432.4c-0.3,0.6-0.5,1.5-0.2,2.3c0.2,0,0.5,0,0.7-0.3C303.9,433.8,304.5,432.6,303.6,432.4z"/>
				<path class="st0" d="M304.6,442.8l-0.3,0.1c-0.3,0.8-1.6,1.5-1.1,2.4c0.2,0,0.5,0.1,0.6-0.2
					C303.9,444.3,304.8,443.6,304.6,442.8z"/>
				<path class="st0" d="M306,448.4c0.2-0.7-1.2-0.9-1.2-1.8c-0.3-0.3-0.6-0.6-1-0.6C304.3,446.8,304.8,448.1,306,448.4z"/>
				<path class="st0" d="M303.4,446.7c-0.1-0.2-0.3-0.3-0.6-0.2v0.5C303.1,447,303.2,446.7,303.4,446.7z"/>
				<path class="st0" d="M301.6,437.9c-1-0.1-1.1,1.1-1.3,1.8c0.1,0.2,0.3,0.2,0.6,0.2C301.8,439.8,301.3,438.4,301.6,437.9z"/>
				<path class="st0" d="M300.6,444.5c1.4-0.7,1.2-2.5,2.3-3.2c0.6-0.9-0.5-0.8-0.9-0.5c-0.6,0.5-0.7,1.2-0.9,1.8
					c-0.2,0.6-0.4,1.4-0.9,1.8C300.4,444.4,300.5,444.4,300.6,444.5z"/>
				<path class="st0" d="M293.9,452.1c1.6-2.5,4.7-1.3,6.6-3.2c0.6-0.2,1.5-0.1,1.9-0.6c-1.6-0.8-3.1,0.2-4.7,0.3
					c-1.2,1.5-3.4,1.1-4.4,2.8C293.2,452,293.5,452.3,293.9,452.1z"/>
				<path class="st0" d="M296.9,453.8c0.6,0.5,1.5,0.2,2.1-0.2c3.3-0.1,6.4-0.5,9.8-0.5c0.3-0.3,1.1-0.6,0.8-1.3
					c-0.7-0.3-1.2-1.3-2.3-0.9c0.1,0.7,1.2,0.6,1.1,1.2c-0.9,0.7-1.5-0.7-2.5-0.7l-0.1,0.7c-0.3,0.4-0.9,1-1.7,0.8
					c-1.1-1.2-2.3,0.3-3.5,0.3c-1.4-1.3,1.1-1.1,1.5-1.9c-0.2,0-0.3-0.1-0.5-0.1c-1.4,0.5-2.8,0.8-4.1,1.4c-0.1-0.1-0.3-0.2-0.2-0.4
					c1.9-0.7,3.4-2.7,5.9-2.2c-0.7-1-1.9-0.6-2.8-0.3c-1,1.7-2.8,0.5-4.1,1.4c-0.3,0.6-1.2,0.7-1.8,1.1
					C294.4,453.7,296.4,452.8,296.9,453.8z"/>
				<path class="st0" d="M310.1,449.5c0.1-0.5-0.2-0.4-0.4-0.8c0.2-0.7-1.4-1.4-0.3-1.8c1,0.4,0.8,2.2,1.9,1.9l-0.3-1
					c0.1-0.6-1.2-0.9-0.6-1.5l0.7,0.6c0.4,0.1,0,0.7,0.7,0.5l-0.1-0.3c0.2-1.2-2.6-1.6-1.1-2.9l-0.3-0.1c-1.1,0.9-1.3-0.9-2.1-1.5
					c0.3-0.4,0.6,0,0.9,0v-0.4c-0.2-0.5-0.8-1-1.3-1c-0.1,0.4,0.2,1-0.4,1l-0.5-1.6c-0.3-0.1-0.4,0.3-0.6,0.5
					c-0.8-0.8,1.1-1.3,0.6-2.2c-0.6,0.1-0.6,1-1.4,1.1c-0.4,0.3-0.7,1.1-0.2,1.5c2.1,0.5,3.1,2.3,4,4.1c0.6,1.3-1.7,1.4-1.2,2.1
					c0.1-0.2,0.2-0.1,0.4-0.1c0.2,0.2,0.5,0.4,0.6,0.7c-0.9,0-0.7,1.2-1.5,1.2c0.3,0.5,1,0.6,1.5,0.6c0-0.1-0.1-0.2-0.1-0.2
					C309,449.3,309.7,449.7,310.1,449.5z"/>
				<path class="st0" d="M308.5,445.6c-0.4,0-0.3,0.5-0.3,0.8h0.4C308.9,446.1,308.6,445.8,308.5,445.6z"/>
				<path class="st0" d="M310.7,453.7l0.6-1.9c0-0.8-0.9-0.8-1.4-1.1l0.6,0.8c0.3,0.7-0.5,1.3-0.6,2
					C310.2,453.7,310.4,453.9,310.7,453.7z"/>
				<path class="st0" d="M316.4,451.8v-0.4L316,451c-0.8-0.6-1.7-2-2.7-1.4l1.1,0.8c-0.1,0.1,0.1,0.4-0.1,0.5c-0.7,0.1-1.5-0.4-2-1
					c-0.4-0.1-0.9,0.1-1.2,0.6c0.3,0.6,0.9,0.4,1.3,0.8C313.9,451,315.2,451.8,316.4,451.8z"/>
				<path class="st0" d="M313,448.1c0.4,0.1,0.5-0.4,0.4-0.6c0.1-0.5-0.6-0.6-0.9-0.4C312.5,447.4,312.5,448,313,448.1z"/>
				<path class="st0" d="M317.8,451.9h0.6c-0.5-1.7-2.3-3-3.6-4.1c-0.3,0.1-0.9,0.3-0.5,0.8C315.5,449.6,316.8,450.7,317.8,451.9z"
					/>
				<path class="st0" d="M316.9,447.3c0.4-0.5,0.7-1.1,0.5-1.8c-0.6-0.3-0.4-1.5-1.4-1.1c0.1,0.6,0.1,1.2,0,1.9
					C316.5,446.7,316.4,447.2,316.9,447.3z"/>
				<path class="st0" d="M315.6,446.7c-0.2-0.3-0.1-0.9-0.6-0.8c-0.5,0.3-0.1,0.8,0.1,1C315.3,447,315.4,446.8,315.6,446.7z"/>
				<path class="st0" d="M314.7,444.8c0.5,0,0.5-0.6,0.5-1.1c-0.5-0.5-1.1-1.5-1.8-1c0.4,0.7,1.2,0.9,1,1.9
					C314.5,444.7,314.6,444.9,314.7,444.8z"/>
				<path class="st0" d="M313.9,444.8v-0.6c-0.1-0.3-0.7-0.5-0.8-0.1C313.3,444.4,313.5,444.8,313.9,444.8z"/>
				<path class="st0" d="M312.7,446.1c2-0.7-1.4-1.5-0.2-3.2c-0.3-0.7-0.8-1.4-1.7-1.5c-0.9,1.4,0.6,1.8,1.1,2.9
					C311.8,445.2,312.6,445.5,312.7,446.1z"/>
				<path class="st0" d="M310.3,439.5c0-0.8-0.8-0.8-1.3-0.9c0.8,1.3,2.4,2,3.5,2.7C312.3,440.2,310.9,440.3,310.3,439.5z"/>
				<path class="st0" d="M310,442.3c0.7-0.7-0.3-1.4-0.5-2c-0.8-0.2-1.2-0.9-1.9-1.2C307.1,440.5,309.6,440.8,310,442.3z"/>
				<path class="st0" d="M307.7,423.8c0.4-0.7,0.8-1.4,0.4-2.2c-0.1,0-0.2,0-0.3-0.1c-0.6,0.8-0.5,1.5-0.4,2.3H307.7z"/>
				<path class="st0" d="M307.7,419.4c0.2-0.2,0.3-0.4,0.3-0.7c-0.2-0.3-0.9-0.3-1,0.1C307.3,419,307.2,419.5,307.7,419.4z"/>
				<path class="st0" d="M307,417.2c0.1,0.2,0.3,0.2,0.5,0.2c0.3-0.1,0.5-0.5,0.4-0.8C307.3,416.2,307.2,417,307,417.2z"/>
				<path class="st0" d="M309.4,407.6l0.1-0.8c0.1,0.6,0.8,1,1.1,1.4c0.4-0.2,0.4-0.4,0.6-0.8c-0.6-0.6-1.2-1.5-1.2-2.5
					c-0.3-0.7-0.9-0.1-1.3-0.1c-0.3,0.7,1,1.4,0.7,2.1c-0.2-0.2-0.4-0.4-0.7-0.3c-0.1,0.2-0.4,0.3-0.3,0.6
					C308.5,407.6,309,407.9,309.4,407.6z"/>
				<path class="st0" d="M312,408.5c0.3,0.1,0.9,0.3,1.1-0.2c-0.3-0.4-0.9-0.6-1.2-0.2C311.9,408.2,311.8,408.4,312,408.5z"/>
				<path class="st0" d="M314.7,411.5c-0.1,0.3,0.2,0.4,0.4,0.3c0.1,0,0.2-0.1,0.2-0.2C315.1,411.4,314.9,411.6,314.7,411.5z"/>
				<path class="st0" d="M317.6,413.9c-1-0.1,0,0.7-0.2,1.1c-0.9,0.9,0.8,0.5,0.6,1.4C319,415.7,317.5,414.9,317.6,413.9z"/>
				<path class="st0" d="M316.5,417.3c-0.2,0.1-0.2,0.2-0.2,0.4h0.9v-0.3C317,417.2,316.7,417.3,316.5,417.3z"/>
				<path class="st0" d="M316.7,412.7c-0.1-0.3-0.4-0.2-0.7-0.2v1.1h0.5C317,413.4,316.3,413,316.7,412.7z"/>
				<path class="st0" d="M316,411c-0.1-0.2-0.3,0-0.4-0.1v0.3h0.3C315.9,411.1,316,411.1,316,411z"/>
				<path class="st0" d="M315.4,410.4c-0.8-0.2-0.5-1.2-1.4-1c-0.3,0,0-0.7-0.6-0.4l0.3,0.6c0.8,0,0.6,1.1,1.3,1.1
					C315.2,410.7,315.3,410.7,315.4,410.4z"/>
				<path class="st0" d="M313.7,412.5c0.2-0.8,0.3-1.5-0.4-2c-0.6,0.6,0.4,1.2,0.2,2H313.7z"/>
				<path class="st0" d="M308.1,400.7c-1,0.7,0.2,1.8,0.4,2.6c0.4,0.5,1.1,0.1,1.5,0.4C309.3,402.9,309.2,401.2,308.1,400.7z"/>
				<path class="st0" d="M312.2,402.5c-0.4,1,0.9,1,1.2,1.7c0.3,0.4,0.2,1.3-0.6,1.1c-0.3-0.4-0.7-0.7-0.9-1.2
					c-0.8,0.3-1.3,0.1-1.7-0.2c0,0,0,0,0,0c0.2,1.1,1.1,2.2,2.2,2.4c0.8-0.2,1.7-0.3,2.2-1.1C313.8,404.3,313.7,402.4,312.2,402.5z"
					/>
				<path class="st0" d="M308.3,399.3c0.2,0.3,0.5-0.1,0.7,0c0.1-0.3-0.2-0.3-0.4-0.4L308.3,399.3z"/>
				<path class="st0" d="M309.1,397.6c-0.2,0.1-0.4,0.4-0.1,0.5c0.2,0,0.3,0.1,0.4-0.1C309.5,397.7,309.2,397.7,309.1,397.6z"/>
				<path class="st0" d="M310,401.1c-0.2,0-0.5,0-0.6,0.2c0.5,0.4,0.4,1.2,1,1.7c0.3,0,0.8,0.2,0.9-0.2
					C311.1,401.9,310.4,401.6,310,401.1z"/>
				<path class="st0" d="M311.1,397.6c-0.2-0.3-0.2-0.5-0.7-0.5c-0.2,0.3,0,0.8,0.2,0.9C310.8,397.9,311.2,397.8,311.1,397.6z"/>
				<path class="st0" d="M311.9,397.4l-0.1,0.7c0.6,0.5,0.7,1.3,1.7,1v-0.3C313,398.3,312.7,397.4,311.9,397.4z"/>
				<path class="st0" d="M310.4,391.4c0,0.3-0.1,0.6,0.1,0.9c0.6,0.4,0.9-0.2,1.1-0.6l0.3,2c0.2,0,0.4,0.1,0.6-0.1
					c0.4-0.2,0.4-0.8,0.4-1.2l-0.8-1.3C311.5,390.8,310.8,391.2,310.4,391.4z"/>
				<path class="st0" d="M314,398c-0.2-0.5-0.8-1.1-1.4-1.3v0.7C313,397.7,313.4,398.2,314,398z"/>
				<path class="st0" d="M315.6,393.4c-0.2-0.5-1.4-1.5-1.1-0.2c0.5,0.5-0.2,0.9,0,1.4C314.8,394.3,315.8,394.1,315.6,393.4z"/>
				<path class="st0" d="M314.9,387.5c0,0.2-0.1,0.7,0.4,0.5c0.1-0.1,0.5,0,0.3-0.3C315.4,387.5,315.2,387.5,314.9,387.5z"/>
				<path class="st0" d="M315.6,389.8v-0.1c-0.1-0.2-0.3,0-0.5-0.1C315.1,389.8,315.5,390,315.6,389.8z"/>
				<path class="st0" d="M315.4,390.6c-0.4,0-0.9-0.6-1.2,0.1c0,0.4,0.4,0.7,0.9,0.9c0.3,0.1,0.9,0.3,1.1-0.1
					C316.3,390.9,315.7,391,315.4,390.6z"/>
				<path class="st0" d="M313.3,392c0,0.9,0,1.5-0.5,2.3c-0.1,0.2,0.2,0.4,0.3,0.3c0.6-0.2,1.3-0.8,1-1.6
					C314.1,392.5,313.9,392,313.3,392z"/>
				<path class="st0" d="M313.3,388.3c0.4,0.2,0.4-0.3,0.5-0.5c-0.2-0.7-0.9-1-1.6-1.2l-0.1,0.3
					C312.5,387.5,312.4,388.2,313.3,388.3z"/>
				<path class="st0" d="M310.5,385.5l-0.1,0.7c0.9,0.9,1.2,2,1.4,3c0.3,0.3,0.2,0.9,0.9,0.7c0.6-0.6-0.3-1.1-0.4-1.6
					C311.6,387.2,311.7,385.7,310.5,385.5z"/>
				<path class="st0" d="M310.2,387.2c-0.2,0.9,0.4,2,1,2.5c0.3,0,0.4-0.4,0.3-0.6C310.9,388.5,311,387.4,310.2,387.2z"/>
				<path class="st0" d="M309.4,388.2c-0.9,0.3,0.3,0.9-0.1,1.4c0.3,0.2,0.3,0.7,0.8,0.5c0.2-0.3,0.1-0.8,0.1-1.2
					C309.9,388.7,309.9,388.2,309.4,388.2z"/>
				<path class="st0" d="M308.1,382.5c-0.4,0-0.1,0.5-0.2,0.8c0.4,0.9,0.9,1.7,1.1,2.8c0.1,0.2,0.3,0.3,0.6,0.3
					c0.6-1.2-1-1.9-0.8-3.1c-0.2-0.1-0.1-0.4-0.1-0.5C308.6,382.7,308.4,382.4,308.1,382.5z"/>
				<path class="st0" d="M307.4,384.5c0.5,0.5,0.1,1.5,0.9,1.5v-0.5C307.9,385.2,308.4,384.1,307.4,384.5z"/>
				<path class="st0" d="M307.4,391.3c0.5,0.1,0.2,0.6,0.3,0.9c0.4,1,1.2,1.5,2.1,1.9c0.8,0,1.4,1.6,2.2,0.6c0-0.2,0.1-0.5-0.1-0.6
					c-0.3-0.5-0.9-0.4-1.4-0.5c-0.5-0.2-0.6-0.6-0.5-1.1c0.6-1.6-1.3-2-1.1-3.6c-0.4-0.5-0.2-1.6-1.1-1.5
					C307.2,388.6,307.5,389.9,307.4,391.3z"/>
				<path class="st0" d="M307.1,392.4c-0.7,0.2,0,1.1-0.1,1.6c0.9,0.4,0.1,2,1.5,1.4c0.2,0.4,0.5,0.9,0.4,1.2h0.6
					c0.4-0.9-0.4-1.6-0.8-2.2C307.5,394.2,308.1,392.9,307.1,392.4z"/>
				<path class="st0" d="M309.6,372.9c1,0.1,1.1,1.7,2.1,0.9c-0.2-1.1-1.6-1.7-2.6-2C309.3,372.1,309.3,372.7,309.6,372.9z"/>
				<path class="st0" d="M308.5,373.5c0.9,0.5,1,1.6,2,2.3c0.3-0.1,0.8,0.1,1-0.1c0.4-0.5-0.1-0.8-0.4-1.1c-0.7-0.5-1.4-0.8-2-1.5
					C308.8,373.1,308.3,373.1,308.5,373.5z"/>
				<path class="st0" d="M306.6,368c-0.1,0.5,0.3,0.7,0.2,1.2c0.2,0.4,0.7,0.1,0.9-0.2C308.1,368.3,307.1,367.2,306.6,368z"/>
				<path class="st0" d="M304.5,365.1c0.8,0.4,0.4-0.7,1-0.9c0.4,0.7-0.2,1.7,0.5,2.3c1.2-0.6-0.3-1.6,0-2.6
					c-1.1,0.5-0.1-1.1-0.9-1.3C304.1,363.1,304.6,364.3,304.5,365.1z"/>
				<path class="st0" d="M304.6,367.8l0.6-0.8c0-0.4,0-0.8-0.4-1C305,366.7,304.2,367.5,304.6,367.8z"/>
				<path class="st0" d="M308,371.1c-0.3-0.4-0.6-0.4-0.9-0.2c-0.9-0.7-1.5-1.5-1.2-2.8l-0.2-0.5c-1.1,0.3,0.2,1.5-0.4,2.4
					c-0.1-0.1-0.2-0.1-0.1-0.2h-0.5v0.9c-0.5,0.7-0.1,1.4,0,2.1c-0.2,0.6-0.9,0.3-1.3,0.3l0.3-1c-1.1-0.6-0.5,1.1-1.3,1.5l0.7,0.4
					c0.6,0.5-0.2,1-0.1,1.6c1,1.1-0.1,2.3,0.6,3.5c0.3,0,0.7,0,0.9-0.3c-0.1-0.4,0.2-1-0.2-1.3c-0.7-0.6-0.2-1.4,0.1-2.1
					c0.1,0.2,0.3,0.2,0.5,0.4c0.4-0.8,0.5-1.8,0.8-2.6c0,0,0.1,0,0.2,0.1c0.2,0.4,0.1,0.9,0.7,0.7c0.9-0.4,0.2-1.4,0.6-2
					c0.3,0,0.7,0.1,0.9-0.1C308.1,371.5,308.2,371.1,308,371.1z"/>
				<path class="st0" d="M306,349c-0.2,0-0.4,0.3-0.3,0.5c0.3,0,0.6,0.4,0.9,0.1v-0.2C306.4,349.3,306.2,349.1,306,349z"/>
				<path class="st0" d="M304.5,349.2c0.4,1.4,0,3.2,1,4.2c0.4,0,0.9,0.2,1.1-0.2c-0.8-0.9-1.2-2.1-1.1-3.1
					c-0.6-0.7-0.4-2.2-1.7-2.3C303.3,348.6,304.4,348.6,304.5,349.2z"/>
				<path class="st0" d="M304.6,340c0,0.9-0.9,1.3-0.4,2.3c0.5-0.4,1.3-1.2,1.3-2C305.6,340,304.9,339.6,304.6,340z"/>
				<path class="st0" d="M304.3,344.1c0,0.3,0,0.6,0.3,0.9c0.3,0,0.4,0,0.6-0.1C305.5,344.1,304.7,343.5,304.3,344.1z"/>
				<path class="st0" d="M305.5,341.9c0,0.6-0.4,1.7,0.4,2.2c0.2,0.1,0.8,0.3,1-0.1C306.4,343.4,306.2,342.3,305.5,341.9z"/>
				<path class="st0" d="M306.8,342.2v-0.4c-0.3-0.1-0.2-0.7-0.7-0.5l0.1,0.6C306.2,342.2,306.7,342.4,306.8,342.2z"/>
				<path class="st0" d="M308.6,343.3c-0.3-0.8-0.1-2-1.1-2.3c-0.2,0.2-0.4,0.6-0.3,1C307.7,342.4,307.7,343.4,308.6,343.3z"/>
				<path class="st0" d="M305.7,339.4c0.2,0.5,0.1,1.1,0.7,1.3c0.2-0.4,0.6-0.4,0.6-0.9C306.8,339.3,306,338.1,305.7,339.4z"/>
				<path class="st0" d="M305.3,338.2c1.5,0.1-0.1-0.9,0.3-1.5c-1.6-1-0.1,1.3-1.2,1.5c-0.1,0.3,0.1,0.4,0.3,0.6
					C305.5,339,304.7,338.4,305.3,338.2z"/>
				<path class="st0" d="M302,343.5l0.2,0.2c-0.5,0.6,0.1,1.6-0.6,2.1h0.3c0.3-0.4,1-0.6,0.8-1.2c0.5-0.6,0-1.6,0.5-2.2
					c-0.1-1,0.6-1.7,0.7-2.6c-1,0-1,1.3-1.5,1.9c-0.1,0.1-0.1,0.3-0.1,0.5l-0.3,1.1c-0.2-0.2-0.6-0.7-1-0.3
					c-0.2,0.4,0.4,0.5,0.3,0.9C301.7,343.9,302,343.8,302,343.5z"/>
				<path class="st0" d="M293,356.2c-0.7,0-1.1,0.6-1.6,1.1l0.1,0.1C292.3,357.4,292.7,356.8,293,356.2z"/>
				<path class="st0" d="M292.8,357.8c0,0.4,0.5,0.2,0.7,0.2c0.3-0.2,0.5-0.5,0.6-0.9c-0.1-0.1-0.3-0.3-0.5-0.2
					C293.2,357.2,292.8,357.5,292.8,357.8z"/>
				<path class="st0" d="M295.6,355.8c0.6-0.8,1-0.1,1.6,0c0.4-0.2,0.7-0.6,0.6-1.1c-0.3-0.6-1-0.2-1.6-0.3
					c-0.8,0.3-1.8,0.6-2.3,1.3C294.3,356,295.1,355.9,295.6,355.8z"/>
				<path class="st0" d="M298.2,353.8c1.5,0.7,1.6-2.2,3-1c0.4-0.3,0.7-0.4,0.6-1c-0.3-0.3-0.6-0.4-1-0.3
					C299.8,352.1,298.3,352.6,298.2,353.8z"/>
				<path class="st0" d="M299.2,355.6c0.3,0.3,0.7,0,0.9-0.2c0-0.7,0.4-1.5,0.6-2c-0.6-0.1-0.9,0.2-1.2,0.5
					C299.7,354.7,298.4,355.1,299.2,355.6z"/>
				<path class="st0" d="M300,356.1c-0.3,0.1-0.2,0.4-0.2,0.6h0.3c0.2,0,0.3-0.3,0.5-0.4C300.4,356.2,300.3,356.1,300,356.1z"/>
				<path class="st0" d="M301.2,358.4c0.6-0.2,0.7-0.8,0.9-1.3c-0.9-0.7-1.2,0.5-1.4,1.2L301.2,358.4z"/>
				<path class="st0" d="M302.6,351.1c-0.9,0.8-0.4,2.4-1.7,3.1c0.1,0.6-0.1,1.8,0.7,1.9c1.1-0.4-0.1-1.1,0-1.7
					c1-0.5,0.5-1.5,1.6-1.9C303,352,303.6,350.8,302.6,351.1z"/>
				<path class="st0" d="M303.7,355.9c0.1,0,0.3,0.1,0.3-0.1c-0.2-1.3,0.7-1.6,0.8-2.7c0.1-0.4-0.6-0.5-0.3-1
					c-0.3,0-0.5-0.4-0.8-0.1c0,0.8,0,1.9-0.6,2.5C303,355.1,303.4,355.5,303.7,355.9z"/>
				<path class="st0" d="M304.1,357.5c-0.6,0.4-0.6,1.3-0.9,1.9c-0.4,1.2-0.3,2.6-1.1,3.6l0.3,0.1c1.2-1,0.8-2,1.5-3.2
					C303.6,359,304.3,358.5,304.1,357.5z"/>
				<path class="st0" d="M302.8,364.6h0.2c0.2-0.3,0.9-0.7,0.6-1.2C303.1,363.4,302.5,364,302.8,364.6z"/>
				<path class="st0" d="M300.7,364.8h-0.3v0.6C300.6,365.3,300.8,365.1,300.7,364.8z"/>
				<path class="st0" d="M297.3,366.1c-0.3,0.1-0.5,0.2-0.6,0.6c0.1,0.2,0.3,0.2,0.6,0.2c0.2-0.1,0.6-0.3,0.5-0.7
					C297.6,366.3,297.5,366.1,297.3,366.1z"/>
				<path class="st0" d="M294.5,369.7h0.6v-0.2C294.9,369.5,294.5,369.3,294.5,369.7z"/>
				<path class="st0" d="M293.6,371.1c0-0.4-0.8-0.5-1.1-0.2c-0.3,0.5-0.7,0.8-0.6,1.4C292.9,372.6,292.8,371.4,293.6,371.1z"/>
				<path class="st0" d="M293.7,372c-0.1,1-1.4,1.4-1.8,2.2l0.2,0.2c0.5,0,0.9-0.2,1.4-0.5c0.3-0.3-0.2-0.7,0-1
					c0.3-0.1,0.7,0.1,0.9-0.2C295,372.3,294.2,370.9,293.7,372z"/>
				<path class="st0" d="M296.1,370.5c-1.4,0.1-0.6,1.4-1.1,2.2c0.1,0.2,0.3,0.2,0.6,0.2c0.6-0.4,1.4-0.9,1.4-1.8
					C296.9,370.7,296.4,370.6,296.1,370.5z"/>
				<path class="st0" d="M297.3,372.1c0.9,0.2,0.7-0.8,1-1.2H298C298.1,371.6,297,371.5,297.3,372.1z"/>
				<path class="st0" d="M301.8,369c1.4,0.1,0.2-1.4,1-1.7c0.4,0.7,0.1,1.3,0.3,2l0.3-0.1c-0.3-1.7,1.1-2.9,0.5-4.6
					c-0.4,0.5-0.6,1.2-0.8,1.6v0.3c0.1,0.2-0.1,0.4-0.3,0.4c0.2-0.9-0.9-0.9-0.8-1.8c-0.3-0.1-0.5,0.1-0.7,0.3
					c-0.7,0.5,0.3,0.6,0.4,1c-0.1,0.6,0.3,1.7-0.3,2.1C301.6,368.7,301.9,368.7,301.8,369z"/>
				<path class="st0" d="M297.3,369.2c-0.1,0.3-0.9,0.7-0.2,1.1c1.7,0,1.3-1.9,2.2-2.7c0.4,0.9-0.5,1.6-0.6,2.3h0.3
					c0.3-0.1,0.9-0.5,0.9-1c0.3,0.2-0.1,0.6,0.4,0.8c0.6-0.1,1-0.6,1.2-1.1l-0.1-1.2c-0.3,0.1-0.7-0.1-0.8,0.2
					c-0.5-0.4,0.4-0.7,0.1-1.2c-0.4-0.5-0.8,0.3-1.2,0.4c-0.6-0.4,0.3-0.8,0-1.2H299c-0.3,0-0.5,0.4-0.6,0.5
					c-0.2,0.5-0.6,1.2-0.2,1.6C298.6,368.5,297.6,368.9,297.3,369.2z"/>
				<path class="st0" d="M301,376.6c0.5-0.5,0.6-1.5,0.4-2.3c-0.5,0.2-0.5,1-0.9,1.5C300.6,376.1,300.5,376.7,301,376.6z"/>
				<path class="st0" d="M301.1,373.1h0.6c0.4-0.8,0.9-1.3,1.4-2.2C302.1,371.1,301.1,372.3,301.1,373.1z"/>
				<path class="st0" d="M302.4,374.9l-0.6,0.4c-0.1,0.2,0.1,0.3,0.2,0.5c0.1-0.1,0.4,0.1,0.5-0.1
					C302.6,375.4,302.8,374.9,302.4,374.9z"/>
				<path class="st0" d="M302,389.7c0.3-0.1,0.6-0.2,0.5-0.6c-0.1-0.3-0.2-1-0.7-0.5C301.7,388.9,301.6,389.6,302,389.7z"/>
				<path class="st0" d="M301.9,394.5c0.9-0.5,0.7-1.6,1-2.3c0-0.7,0.5-1.2,0.8-1.9v-1.3c-1.8-0.3-0.4,1.7-1.5,2.5
					c-0.2,0.5-0.1,1.3-0.5,1.9C301.7,393.7,301.5,394.4,301.9,394.5z"/>
				<path class="st0" d="M300.9,385.1c-0.2,0.1-0.5,0.6-0.2,0.9h0.7C301.6,385.7,301.5,385,300.9,385.1z"/>
				<path class="st0" d="M301.5,399.1c0.3-0.1,0.4-0.4,0.5-0.6c-0.3-0.8-0.3-1.7-0.5-2.5c-0.4-0.3-0.6,0.1-0.8,0.3
					c0.1,0.7-0.3,1.2-0.3,1.9C300.5,398.6,300.9,399,301.5,399.1z"/>
				<path class="st0" d="M300.1,403.3h-0.3l0.2,0.2C300.1,403.4,300.2,403.4,300.1,403.3z"/>
				<path class="st0" d="M299.8,397.4c0.6-0.4,0.7-1.6,0.9-2.2C300,395.4,299.4,396.6,299.8,397.4z"/>
				<path class="st0" d="M300.6,402.6c1.3,0.2,0.2-1,0.8-1.5c0.4-0.9-0.7-0.7-0.9-0.5C300.4,401.3,300.2,401.9,300.6,402.6z"/>
				<path class="st0" d="M302,402.9c-0.6,0.7-0.2,2.1-0.3,2.9c-0.3,0.6-0.4,1.1-0.3,1.8c0.2,0.2,0.3,0.4,0.7,0.3
					c0.9-1.3,0.1-3.4,0.7-4.8C302.6,402.9,302.3,402.9,302,402.9z"/>
				<path class="st0" d="M302,416h-0.5c-0.2,0.7-0.4,1.7-0.3,2.5C302,417.8,302.1,416.8,302,416z"/>
				<path class="st0" d="M302,422.4c-0.1-0.2-0.3-0.2-0.6-0.2c-0.4,0.2-0.3,0.6-0.5,0.9h0.4C301.8,423,302,422.8,302,422.4z"/>
				<path class="st0" d="M300.9,428.5l0.3,0.2c0.2,0,0.4-0.3,0.3-0.6C301.4,427.7,300.9,428.3,300.9,428.5z"/>
				<path class="st0" d="M301.5,435.5c-0.3-0.3,0.3-1.3-0.6-1.1c-0.5,0.7-0.9,1.6-0.6,2.5C301.1,437,301.1,435.9,301.5,435.5z"/>
				<path class="st0" d="M299.2,440.3c0.3,0,0.7-0.3,0.6-0.6c-0.4-0.1-0.7,0.2-0.9,0.4C299,440.1,299,440.3,299.2,440.3z"/>
				<path class="st0" d="M292.4,446.5c0.4-0.1,0.7-0.6,0.8-1c-0.4,0-0.8,0.5-1,0.9C292.3,446.5,292.3,446.6,292.4,446.5z"/>
				<path class="st0" d="M281.8,448.9c1-0.1,2.7-0.4,3.6,0.5c1.6,0.1,3.2-0.9,4.3-2.1c0.5,0,1-0.3,1.3-0.6c-0.3-0.1-1,0-1.1,0.3
					c-1.1,0.2-1.8,1.3-2.8,1.7c-0.4,0.1-1,0.3-1.3-0.1c0.4-0.3,1.2-0.2,1.4-0.8c-0.8,0-1.7,0.4-2.5,0.5
					C283.7,448.6,282.6,448.1,281.8,448.9z"/>
				<path class="st0" d="M280.3,451.9c1.5-1.5,3.9-1.5,5.8-1.3c1.7,1,2.2-1.4,3.6-1.4c1-1.3,2.6-1.5,4.4-1.6
					c1.2-0.4,1.8-1.7,1.8-2.8c0.4-0.9,0.9-2.2,1.9-2.4c1.1,0.3,1.5-0.6,2.2-0.1c0.4-0.3,1-0.8,0.6-1.4c-0.8,0.5-1.9,0-2.7,0.8
					c-1.8-0.1-1.5,2-2.8,2.7c0.6,0.5-0.4,1.1-0.4,1.7c-0.7,0.5-1.3,0.8-1.9,1.4l-0.1-0.1c-0.7-0.5-1.5,0-2.1,0.3
					c-1.2,0-2.1,1.1-2.8,1.8c-1.1-0.5-1.5,0.9-2.6,0.4c-0.7-1-2.3-0.5-3.3-0.4c-0.7,1.7-2.5,0.6-3.8,1.5
					C278.2,452.2,279.5,451.7,280.3,451.9z"/>
				<path class="st0" d="M297.7,440.9c-0.6-0.6-0.9,0.3-1.4,0.3c-2.1,0.8-1.5,2.8-2.5,4.3c0.9,0.2,0.6-0.8,1-1.1
					c0,0,0.1,0.1,0.1,0.1l0.3-1.5C295.8,441.8,296.8,441.6,297.7,440.9z"/>
				<path class="st0" d="M278.3,450.1c0.8-0.5,2,0.6,2.4-0.4c-0.2-0.1-0.4-0.4-0.7-0.1c-1,0.5-2.5-0.5-2.8,0.8
					C277.6,450.4,278,450.4,278.3,450.1z"/>
				<path class="st0" d="M274,452.1c0.9,0.2,1.9,0.6,2.7,0.6l-0.1-0.3C275.7,452.1,274.6,451.8,274,452.1z"/>
				<path class="st0" d="M277,451.3c-0.5-0.6-1.3-0.2-1.8-0.8c-0.5-0.4-1.4-0.2-1.7,0.2c0.8,0.9,2.3,0.6,3.2,1.1
					C277,451.7,277.1,451.5,277,451.3z"/>
				<path class="st0" d="M277.6,452.3c0,0.5-0.4,0.9-0.6,1.4c0.4,0.4,0.9,0.5,1.4,0.6c0.2-0.6,1-0.8,1-1.5
					C278.9,452.5,278.3,452.2,277.6,452.3z"/>
				<path class="st0" d="M290.5,456.6c2-0.4,3.9-1.4,5.7-2.2c-1-0.7-2.3-0.8-3.2-1.5c-2-0.5-4.1-0.7-6.1-1.3c-2-0.4-4.2-0.3-6,0.8
					c0.7,0.5,1.6,0.5,2.6,0.5c1.7-1.6,3.7,0,5.5,0.3c1.3,0,2.4,0,3.8,0.3c0.5,0.3,1.4,0.3,1.4,0.9c-0.7,0.8-1.1-0.4-1.9-0.2
					c-2.7,0.4-4.6-1.2-7.1-1.3c-1.1,0.9-2.7,0.6-3.9,0.5c-0.8-0.5-1.4,0.3-1.8,0.9c0,0.8,1.4,1,2.2,1.4c0.8-0.4,1.1-1.1,1.9-1.4
					c1.6,0.2,3-0.5,4.5,0.2c1.2,0,2.6,0.2,3.9,0.3c0.2,0.2,0.2,0.4,0.3,0.6c-1.2,0.7-2.4-0.2-3.7-0.1c-1.4-1.1-2.9,0.8-4.3-0.4
					c-0.7,0.1-1,0.7-1.4,1.1c1.2,0.3,2.4,1.4,3.6,0.2C287.7,456.1,289.4,455.8,290.5,456.6z"/>
				<path class="st0" d="M286.7,457.4c0.1,0,0.1,0,0.2,0.1c0.8,0.3,1.8,0.1,2.2-0.6C288.4,456.6,287.1,456.5,286.7,457.4z"/>
				<path class="st0" d="M299.7,457.8c-1.2,0-1.8,1.4-2.7,1.6c0.8,0.5,1.9,0.4,2.9,0.4c0.5-0.8,1.5-0.4,2.2-0.7
					c0.8-0.1,1.9,1.6,2.4,0C302.6,459.6,301.6,457.5,299.7,457.8z"/>
				<path class="st0" d="M311.3,459.4c-2.2,1.1-4.7-1.2-6.4,0.6c2,0.3,4.1-0.1,6.1-0.1C311.1,459.8,311.5,459.8,311.3,459.4
					L311.3,459.4z"/>
				<path class="st0" d="M312,458c-2.7-0.5-6.2-0.5-8.8,0l0.3,0.2c2.5-0.7,4.5,1.3,7,0.5c1.7-1,2.3,1.6,3.9,0.7v-0.7
					C313.6,458.5,313,457.8,312,458z"/>
				<path class="st0" d="M315.4,459.4c0.2,0.1,0.4-0.2,0.5-0.2l-0.5-0.1V459.4z"/>
				<path class="st0" d="M314.7,456.8c-1.8-0.6-3.8-0.6-5.8-0.9c-1.2,0.5-2.4,0-3.7,0.4c-2-0.5-3.9-0.1-5.9,0.2
					c-1.6-0.6-2.7,0.6-4,1.1c-0.9,0.4-2,0.1-2.6,1c2,0.6,4-0.1,6-1.6c3.5,0.3,7-0.5,10.6-0.2c1.6-0.8,3.3,0.1,4.8,0.5
					c1.7-0.2,2.3,2.5,4,1.4C317.4,457.5,315.9,456.8,314.7,456.8z"/>
				<path class="st0" d="M319,458.7c0.1,0,0.4,0.1,0.4-0.1l-0.3-0.3C318.9,458.4,318.7,458.5,319,458.7z"/>
				<path class="st0" d="M319.4,456.2c-1.3-0.1-2.5-0.7-3.7-0.8c-1.5-0.6-3.4-0.7-5.1-0.7l-1.5-0.5c-2.2,0-5.1-0.7-7.3,0.5
					c-1.5-1.2-3.1,0.3-4.6,0.1c-1.5,0.8-3.1,1.5-4.7,2c-0.8,1-2.4,0.3-3.1,1.1c2,1.6,3.5-0.8,5.4-1c1.8-2,4.7-0.4,6.8-1.7
					c3.5,0.5,6.6-1.1,9.8,0.1c2.6,0.8,5.9,0.2,7.9,2.1c0.8,0.5,1.7,1.1,2.7,0.6C321.6,457,320.3,456.7,319.4,456.2z"/>
				<path class="st0" d="M314.6,453.7l-0.4-0.2c-0.8-0.1-1.6-0.3-2.2,0.1c0.6,1.5,2.1,0.3,3.5,0.7c1.4,0.8,3,1.1,4.7,1.4
					c1.4,0.2,1.8,2.4,3.3,2c0.1-0.6-0.4-1-0.5-1.4C320.4,454.7,317.6,454,314.6,453.7z"/>
				<path class="st0" d="M324,456.6c0,0.4,0.6,0.9,0.9,0.6C324.7,457,324.4,456.4,324,456.6z"/>
				<path class="st0" d="M334.8,452c-1.6-1.6-4-1.2-6-1.8l-1.4-0.8c-1.1-0.4,0,1.2-1.1,0.9c0,0.3-0.6,0.8-0.3,1.1
					c0.8,0.2,1.4-0.1,2,0.4c-0.9,1.2-2.5-0.4-3.8,0.5c-0.6,1.1-2.1-0.4-2.5,0.9c0.5,0.6,1.7,0.6,1.5,1.4c-1.6-0.8-3.3-1.6-5.3-1.7
					c-0.7-0.5-1.4,0-2-0.4c-1.3-0.1-2.5-0.8-3.7-0.2l0.2,0.2c3.3,0.2,6.7,1,9.7,2.3c0.9,1,2.6,0.2,3.4,1.7c0.6,0.3,1.1,0.3,1.7,0
					c-0.4-1.6-2.1-0.6-3.2-1.3c-0.2-0.8,0.6-0.3,0.9-0.6c1.2-0.1,2.1,0.2,3.1,0.6c0.9,0.1,1.9,0.8,2.7,0c-1.3-0.7-3-0.9-4.5-1.2
					c-0.7-1-1.6,0.4-2.4-0.3c-0.3-0.2,0-0.7,0.2-0.7c1.1-0.4,2.1-0.3,3,0.3c0.9,0,1.7,0.3,2.5,0.7c1.2,0,2.2,1.3,3.3,0.4
					c-0.4-0.7-1.2-0.8-1.9-1.1c-0.4-0.3-1.1-0.2-1.1-0.9c0.6-0.6,1.2,0.2,1.8,0.2c0.9,0.6,2,1.6,3.2,1.1c-1.2-1.3-3.3-1.8-5.2-2.2
					c-0.5-0.5-1.8,0.2-2-0.8l0.2-0.2c2.3,0.4,4.8,0.5,6.5,1.9c0.7,0.1,1.6,1.4,2.2,0.2C335.9,452.2,335.3,452.2,334.8,452z"/>
			</g>
		</g>
	</g>
</g>
<g id="Layer_4">
</g>
</svg>
